<?xml version="1.0" encoding="utf-8"?>
<!-- Generator: Adobe Illustrator 22.1.0, SVG Export Plug-In . SVG Version: 6.00 Build 0)  -->
<svg version="1.1" id="Домик_прямая_рука_1_"
	 xmlns="http://www.w3.org/2000/svg" xmlns:xlink="http://www.w3.org/1999/xlink" x="0px" y="0px" viewBox="0 0 128.4 138.4"
	 style="enable-background:new 0 0 128.4 138.4;" xml:space="preserve">
<style type="text/css">
	.st0{fill:#1BC09B;}
</style>
<path id="Глаз_1_" class="st0" d="M85.2,92.9c-2.5,0-4.6,2.1-4.6,4.6s2.1,4.6,4.6,4.6s4.6-2.1,4.6-4.6
	C89.8,94.9,87.7,92.9,85.2,92.9z M85.2,99.6c-1.2,0-2.1-1-2.1-2.1c0-1.2,1-2.1,2.1-2.1c1.1,0,2.1,1,2.1,2.1
	C87.3,98.6,86.3,99.6,85.2,99.6z"/>
<path id="Глаз" class="st0" d="M59.6,92.9c-2.5,0-4.6,2.1-4.6,4.6s2.1,4.6,4.6,4.6c2.6,0,4.6-2.1,4.6-4.6S62.1,92.9,59.6,92.9z
	 M59.6,99.6c-1.1,0-2.1-1-2.1-2.1c0-1.2,1-2.1,2.1-2.1s2.1,1,2.1,2.1C61.7,98.7,60.7,99.6,59.6,99.6z"/>
<path id="Рот_1_" class="st0" d="M83,108.1h-6.3h-1.2H63.2c-2.9,0-5.2,2.3-5.2,5.2c0,2.9,2.3,5.2,5.2,5.2H83
	c2.9,0,5.2-2.3,5.2-5.2C88.2,110.5,85.8,108.1,83,108.1z M63.2,116.1c-1.5,0-2.7-1.2-2.7-2.7s1.2-2.7,2.7-2.7h3.6
	c-2.2,1.6-3.2,3.8-3.5,5.5h-0.1V116.1z M83,116.1H65.9c0.5-1.8,2.4-5.5,9.6-5.5h1.2H83c1.5,0,2.7,1.2,2.7,2.7
	C85.7,114.9,84.5,116.1,83,116.1z"/>
<path id="Брови_1_" class="st0" d="M91.4,86.6l1,0.8l-1.6,1.9l-1-0.8c-17.3-14.1-33.6-1-33.8-0.8l-1,0.8l-1.4-1.9l1-0.8
	C54.7,85.6,72.6,71.3,91.4,86.6z"/>
<path id="Дом" class="st0" d="M109,15.4V4.2c0-2.3-1.9-4.2-4.2-4.2c-2.3,0-4.2,1.9-4.2,4.2v11.2H66.1L36.2,69.6h9.3v34.6
	c0,0.9,0,2.2,0,3.1v31.1h58.9l9.1-9.1v-22.5l1.6-1.6v16.3h6.6l6.7-6.4V15.4H109z M109,17.8h2.3c-0.5,0.9-1.3,2.4-2.3,4.4V17.8z
	 M103,4.2c0-1,0.8-1.7,1.7-1.7c1,0,1.7,0.8,1.7,1.7v24.2c0,1-0.8,1.7-1.7,1.7c-1,0-1.7-0.8-1.7-1.7V4.2z M103.3,32.3L84,67.1h-9.5
	l26.1-47.2v8.4C100.6,30.1,101.7,31.7,103.3,32.3z M98.9,17.8L71.7,67.1h-8.9L90,17.9L98.9,17.8L98.9,17.8z M87.2,17.8L60,67.1h-8.7
	l27.2-49.2L87.2,17.8L87.2,17.8z M40.4,67.1l27.2-49.3h8.1L48.5,67.1H40.4z M101.9,135.9h-54V69.6h51.5l2.4-4.5L101.9,135.9
	L101.9,135.9z M102,59.8L102,59.8L102,59.8l-3.9,7.3H86.9l19.2-34.8c1.7-0.6,2.9-2.1,2.9-4v-1l0.5-0.9c2.9-5.3,4.6-8.6,4.6-8.6l0,0
	h10.5L102,59.8z M119.8,119h-2.2v-16.3l2.3-2.3V119H119.8z M125.9,113.9l-3.6,3.5v-23L111,105.7v22.5l-6.7,6.6V60.5l5-9.2v11.3h2.5
	V46.7l6-11.1v11h2.5V31l5.6-10.5V113.9z"/>
<path id="Варюшка_1_" class="st0" d="M15.9,127.4L15.9,127.4c0-0.1-0.1-0.2-0.1-0.3c0-0.1,0-0.1-0.1-0.2l0,0l0,0
	c-0.8-2.3-2.5-4.5-4.1-5.6c-1.8-1.2-3.1-0.7-3.8-0.4s-1,0.9-1.1,1.6s0,1.5,0.2,2.1L6.3,125c-2.7,1-5.6,2.4-6.2,4.7
	c-0.3,1.3,0.2,2.7,1.3,4.1c1.8,2,4.6,2.6,7.9,1.6c3-0.9,6.3-3.2,6.8-5.4l0,0C16.2,129.2,16,128.2,15.9,127.4z M8.6,133
	c-1.3,0.4-3.8,0.9-5.3-0.9c-0.4-0.4-0.7-0.8-0.8-1.2c-0.1-0.2-0.1-0.4-0.1-0.6c0.3-1.3,3.4-2.6,4.6-3L8,127c0.2,0.4,0.4,0.5,0.4,0.7
	l0.7,1l2.1-1.4l-0.7-1c-0.9-1.3-1.4-2.8-1.2-3.2c0.2-0.2,0.6,0,1.1,0.3c1.7,1.1,3.6,4,3.3,5.9C13.5,130.2,11.3,132.2,8.6,133z"/>
<path id="Рука" class="st0" d="M15.6,126.6c-0.1-0.3-0.3-0.7-0.5-1c-0.2-0.4-0.4-0.8-0.6-1.1c10.3-6.9,20.7-13.7,31-20.6v2.9
	L15.6,126.6z"/>
</svg>
