<?xml version="1.0" encoding="utf-8"?>
<!-- Generator: Adobe Illustrator 22.1.0, SVG Export Plug-In . SVG Version: 6.00 Build 0)  -->
<svg version="1.1" xmlns="http://www.w3.org/2000/svg" xmlns:xlink="http://www.w3.org/1999/xlink" x="0px" y="0px"
	 viewBox="0 0 418 365.3" style="enable-background:new 0 0 418 365.3;" xml:space="preserve">
<style type="text/css">
	.st0{fill:#77BC97;}
	.st1{fill:#DAE9E5;}
</style>
<g id="Домик">
	<g>
		<path class="st0" d="M249.8,209.5c0-1.2-1-2.1-2.1-2.1c-1.2,0-2.1,1-2.1,2.1s1,2.1,2.1,2.1C248.8,211.6,249.8,210.7,249.8,209.5z"
			/>
		<path class="st0" d="M245.5,221c0-1.2,1-2.1,2.1-2.1c1.2,0,2.1,1,2.1,2.1c0,1.2-1,2.1-2.1,2.1C246.4,223.1,245.5,222.2,245.5,221z
			"/>
		<path class="st0" d="M245.5,232.8c0-1.2,1-2.1,2.1-2.1c1.2,0,2.1,1,2.1,2.1c0,1.2-1,2.1-2.1,2.1C246.4,235,245.5,234,245.5,232.8z
			"/>
		<path class="st0" d="M253.8,203.8c0,1.2-1,2.1-2.1,2.1c-1.2,0-2.1-1-2.1-2.1s1-2.1,2.1-2.1C252.8,201.7,253.8,202.6,253.8,203.8z"
			/>
		<path class="st0" d="M253.8,239c0,1.2-1,2.1-2.1,2.1c-1.2,0-2.1-1-2.1-2.1s1-2.1,2.1-2.1C252.8,236.8,253.8,237.8,253.8,239z"/>
		<path class="st0" d="M245.5,244.6c0-1.2,1-2.1,2.1-2.1c1.2,0,2.1,1,2.1,2.1c0,1.2-1,2.1-2.1,2.1
			C246.4,246.8,245.5,245.8,245.5,244.6z"/>
		<path class="st0" d="M245.5,255.9c0-1.2,1-2.1,2.1-2.1c1.2,0,2.1,1,2.1,2.1c0,1.2-1,2.1-2.1,2.1
			C246.4,258,245.5,257.1,245.5,255.9z"/>
		<path class="st0" d="M253.5,244.6c0-1.2,1-2.1,2.1-2.1c1.2,0,2.1,1,2.1,2.1c0,1.2-1,2.1-2.1,2.1
			C254.5,246.8,253.5,245.8,253.5,244.6z"/>
		<path class="st0" d="M253.8,250.2c0,1.2-1,2.1-2.1,2.1c-1.2,0-2.1-1-2.1-2.1c0-1.2,1-2.1,2.1-2.1
			C252.8,248.1,253.8,249.1,253.8,250.2z"/>
		<path class="st0" d="M184.7,160.6c-5.9,0-10.7,4.8-10.7,10.7v21h21.3v-7.8v-3.9v-9.3C195.3,165.4,190.6,160.6,184.7,160.6z
			 M191.4,188.4h-13.5v-17.1c0-2.6,1.5-4.8,3.6-5.9v19.2h9.9V188.4z M191.4,180.6h-6v-16c3.4,0.4,6,3.2,6,6.7V180.6z"/>
		<path class="st0" d="M245.5,267.4c0-1.2,1-2.1,2.1-2.1c1.2,0,2.1,1,2.1,2.1s-1,2.1-2.1,2.1C246.4,269.6,245.5,268.6,245.5,267.4z"
			/>
		<path class="st0" d="M223.3,243.8h2v-3.9h-2c-5.2,0-9.5,3.6-10.6,8.5c-1-0.3-2.1-0.5-3.3-0.5h-50.7c-0.8,0-1.6,0.1-2.4,0.3
			c-1.2-4.6-5.4-8.1-10.4-8.1h-2v3.9h2c3.8,0,6.9,3.1,6.9,6.9c0,3.8-3.1,6.9-6.9,6.9h-2v3.9h2c0.8,0,1.6-0.1,2.4-0.3
			c1.2,4.7,5.5,8.1,10.4,8.1h50.7c5.3,0,9.6-3.5,10.6-8.4c1,0.3,2.1,0.5,3.3,0.5h2v-3.9h-2c-1.1,0-2.1-0.3-3-0.7v0h0
			c-2.3-1.1-3.9-3.5-3.9-6.2C216.4,246.9,219.5,243.8,223.3,243.8z M160.2,265.5h-1.4c-3.4,0-6.2-2.5-6.8-5.8
			c2.5-1.7,4.3-4.5,4.6-7.7c0.7-0.2,1.4-0.4,2.1-0.4h1.4V265.5z M171.4,265.5h-7.4v-13.8h7.4V265.5z M183,265.5h-7.6v-13.8h7.6
			V265.5z M194.2,265.5h-7.4v-13.8h7.4V265.5z M205.8,265.5h-7.6v-13.8h7.6V265.5z M209.7,265.5v-13.7c1,0,1.9,0.2,2.8,0.7l0.1,0.1
			c0.4,2.6,1.8,4.9,3.7,6.5C216.3,262.6,213.4,265.4,209.7,265.5z"/>
		<g>
			<path class="st0" d="M223.2,223.5h-20.4v3.9h4.6c-0.2,0.6-0.4,1.3-0.4,1.9c0,3.1,2.6,5.7,5.7,5.7c3.1,0,5.7-2.6,5.7-5.7
				c0-0.7-0.1-1.3-0.4-1.9h5.1V223.5z"/>
			<path class="st0" d="M212.7,231.2c-1,0-1.8-0.8-1.8-1.8c0-1,0.8-1.8,1.8-1.8c1,0,1.8,0.8,1.8,1.8
				C214.5,230.4,213.7,231.2,212.7,231.2z"/>
		</g>
		<path class="st0" d="M261.6,186.1c0-1.2,1-2.1,2.1-2.1c1.2,0,2.1,1,2.1,2.1s-1,2.1-2.1,2.1C262.5,188.3,261.6,187.3,261.6,186.1z"
			/>
		<path class="st0" d="M261.8,192.3c0,1.2-1,2.1-2.1,2.1c-1.2,0-2.1-1-2.1-2.1s1-2.1,2.1-2.1C260.9,190.2,261.8,191.1,261.8,192.3z"
			/>
		<g>
			<path class="st0" d="M159.1,229.4c0-3.1-2.6-5.7-5.7-5.7c-3.1,0-5.7,2.6-5.7,5.7s2.6,5.7,5.7,5.7
				C156.6,235.1,159.1,232.5,159.1,229.4z"/>
			<path class="st0" d="M151.6,229.4c0-1,0.8-1.8,1.8-1.8c1,0,1.8,0.8,1.8,1.8c0,1-0.8,1.8-1.8,1.8
				C152.4,231.2,151.6,230.4,151.6,229.4z"/>
		</g>
		<path class="st0" d="M257.8,197.9c0,1.2-1,2.1-2.1,2.1c-1.2,0-2.1-1-2.1-2.1c0-1.2,1-2.1,2.1-2.1
			C256.9,195.8,257.8,196.7,257.8,197.9z"/>
		<path class="st0" d="M241.4,215.4c0-1.2,1-2.1,2.1-2.1c1.2,0,2.1,1,2.1,2.1c0,1.2-1,2.1-2.1,2.1
			C242.4,217.5,241.4,216.6,241.4,215.4z"/>
		<path class="st0" d="M241.4,239c0-1.2,1-2.1,2.1-2.1c1.2,0,2.1,1,2.1,2.1s-1,2.1-2.1,2.1C242.4,241.1,241.4,240.2,241.4,239z"/>
		<path class="st0" d="M253.8,215.4c0,1.2-1,2.1-2.1,2.1c-1.2,0-2.1-1-2.1-2.1c0-1.2,1-2.1,2.1-2.1
			C252.8,213.2,253.8,214.2,253.8,215.4z"/>
		<path class="st0" d="M241.4,203.8c0-1.2,1-2.1,2.1-2.1c1.2,0,2.1,1,2.1,2.1s-1,2.1-2.1,2.1C242.4,206,241.4,205,241.4,203.8z"/>
		<path class="st0" d="M245.7,192.3c0,1.2-1,2.1-2.1,2.1c-1.2,0-2.1-1-2.1-2.1s1-2.1,2.1-2.1C244.8,190.2,245.7,191.1,245.7,192.3z"
			/>
		<path class="st0" d="M249.8,197.9c0,1.2-1,2.1-2.1,2.1c-1.2,0-2.1-1-2.1-2.1c0-1.2,1-2.1,2.1-2.1
			C248.8,195.8,249.8,196.7,249.8,197.9z"/>
		<path class="st0" d="M241.4,226.9c0-1.2,1-2.1,2.1-2.1c1.2,0,2.1,1,2.1,2.1c0,1.2-1,2.1-2.1,2.1
			C242.4,229,241.4,228.1,241.4,226.9z"/>
		<path class="st0" d="M273.9,186.1c0,1.2-1,2.1-2.1,2.1c-1.2,0-2.1-1-2.1-2.1s1-2.1,2.1-2.1C272.9,184,273.9,184.9,273.9,186.1z"/>
		<path class="st0" d="M273.6,180.2c0-1.2,1-2.1,2.1-2.1c1.2,0,2.1,1,2.1,2.1s-1,2.1-2.1,2.1C274.6,182.4,273.6,181.4,273.6,180.2z"
			/>
		<path class="st0" d="M348.2,163.8l0-1.2c0-9.3-6.4-12.7-14.4-17.1c-1.2-0.7-2.5-1.4-3.9-2.1c-1.8-1-6.6-3.7-10.9-0.5
			c-0.1-0.1-0.2-0.1-0.2-0.1c-1.8-1.1-3.5-1.7-5.2-1.7c-1.5,0-2.9,0.6-4,1.9c-5.1,6.2-0.3,9.9,1.8,11.1c0,0,0,0,0,0
			c-0.6,1.1-1.1,1.9-1.2,2.1c-0.3,0.4-1.2,2.1-0.7,4.2c0.4,1.9,1.7,3.5,3.9,4.8c0.7,0.4,1.5,0.9,2.3,1.4c0,0.6,0,14.7,0,16.9
			c0,0.9,0,1.8,0,2.6c0,2.5,0.1,4.9-0.5,5.5c-0.2,0.2-0.8,0.4-1.6,0.4c-1.6,0-3.8,0-6,0l0.1-0.1l-6.8,0c-0.1,0-7.9,0-16.1-0.1
			l0-29.8l21.2-21.5l-56.2-56.2h-5.5l56.2,56.2l-6.4,6.4l-62.5-62.5h-5.5l65.3,65.3l-6,6l-69.3-69.3l1.9-1.9h-5.5l-21.5,21.5l0,0
			l-71.9,69.5l-2.7,2.6l8.2,8.7l0.3,0.4l8-7.7l0,13.1c-3.9,0-6.2,0-7,0c0,0-9.8-0.2-14.7-0.2c-0.8,0-1.3-0.1-1.6-0.4
			c-0.6-0.6-0.6-3-0.5-5.5c0-0.8,0-1.7,0-2.6c0-2.1,0.1-14.5,0.1-16.7c0.8-0.5,1.5-0.9,2.2-1.3c2.2-1.3,3.5-2.9,3.9-4.8
			c0.5-2.1-0.5-3.8-0.7-4.2c-0.1-0.2-0.6-1-1.2-2.1c2.1-1.2,6.9-4.9,1.8-11.1c-1.2-1.4-2.7-2.1-4.3-2.1c-1.6,0-3.3,0.7-4.9,1.9
			c0,0-0.1,0.1-0.2,0.1c-4.3-3.2-9.1-0.5-11,0.5c-1.3,0.8-2.6,1.5-3.9,2.1c-8,4.3-14.4,7.8-14.4,17.1l0,1.2c0,1.6,0,4.1,0,5.1
			c0.1,6.6,0.2,13.5,0.3,18.9c0.1,4,0.1,7.3,0.1,9.1c0.2,9.9,3.4,18.4,9.2,24.5c5.4,5.6,12.6,8.7,20.5,8.7c0.2,0,0.4,0,0.6,0
			c6.4-0.1,23.4-0.1,23.6-0.1l1.9,0l0,47.3h3.9l-0.1-102.3l50.5-48.7l50.1,50.1v100.9h4c0,0,0-0.1-0.1-0.1v-8.9
			c0.4-0.4,0.6-0.9,0.6-1.4s-0.2-1.1-0.6-1.4v-8.6c0.4-0.4,0.6-0.9,0.6-1.4c0-0.6-0.2-1.1-0.6-1.4v-8.4c0.4-0.4,0.6-0.9,0.6-1.4
			c0-0.6-0.2-1.1-0.6-1.4v-8.9c0.4-0.4,0.6-0.9,0.6-1.4c0-0.6-0.2-1.1-0.6-1.4v-8.9c0.4-0.4,0.6-0.9,0.6-1.4c0-0.6-0.2-1.1-0.6-1.4
			v-8.6c0.4-0.4,0.6-0.9,0.6-1.4c0-0.6-0.2-1.1-0.6-1.4v-8.6c0.4-0.4,0.6-0.9,0.6-1.4c0-0.6-0.2-1.1-0.6-1.4v-8.9
			c0.4-0.4,0.6-0.9,0.6-1.4s-0.2-1.1-0.6-1.4v-3.8l9.5,9.5c-0.7,0.4-1.2,1.1-1.2,1.9c0,1.2,1,2.1,2.1,2.1c1.2,0,2.1-1,2.1-2.1
			c0-0.1,0-0.1,0-0.2l5.4-5.3l6.5-6.2c0.2,1,1,1.7,2.1,1.7c1.2,0,2.1-1,2.1-2.1c0-1-0.7-1.8-1.7-2.1l2.2-2.2
			c0.4,0.3,0.8,0.5,1.3,0.5c1.2,0,2.1-1,2.1-2.1c0-0.5-0.2-1-0.5-1.3l2.2-2.2c0.1,0,0.1,0,0.2,0c1.2,0,2.1-1,2.1-2.1
			c0-0.1,0-0.1,0-0.2l2.9-2.9l0,6.8c-0.3-0.1-0.6-0.2-0.9-0.2c-1.2,0-2.1,1-2.1,2.1s1,2.1,2.1,2.1c0.3,0,0.7-0.1,0.9-0.2l0,8
			c-0.3-0.1-0.6-0.2-0.9-0.2c-1.2,0-2.1,1-2.1,2.1s1,2.1,2.1,2.1c0.3,0,0.6-0.1,0.9-0.2l0,3.7c-1,0-2,0-2.9,0c-0.2-0.9-1-1.6-2-1.6
			c-1,0-1.8,0.7-2,1.6c-1.5,0-2.8,0-4,0c-0.2-0.9-1-1.6-2-1.6c-1,0-1.8,0.7-2,1.6c-1.8,0.2-8.2,1.8-9.4,15.7
			c-0.2-0.1-0.4-0.1-0.6-0.1c-1.2,0-2.1,1-2.1,2.1s1,2.1,2.1,2.1c0.2,0,0.3-0.1,0.4-0.1c0,0.2,0,0.4,0,0.7c0,2.7,0.2,5,0.6,6.9
			c-0.3-0.2-0.6-0.3-1-0.3c-1.2,0-2.1,1-2.1,2.1c0,1.2,1,2.1,2.1,2.1c0.7,0,1.3-0.4,1.7-0.9c0.4,1.1,0.8,2.1,1.2,2.9
			c-0.6,0.4-1.1,1-1.1,1.8c0,1.2,1,2.1,2.1,2.1c0.6,0,1.2-0.3,1.5-0.7c1.9,1.5,3.6,1.6,3.7,1.6l0,0l15.7-0.1l0,0.9
			c-0.3-0.1-0.6-0.2-0.9-0.2c-1.2,0-2.1,1-2.1,2.1c0,1.2,1,2.1,2.1,2.1c0.3,0,0.6-0.1,0.9-0.2l0,7.9c-0.3-0.1-0.6-0.2-0.9-0.2
			c-1.2,0-2.1,1-2.1,2.1c0,0.4,0.2,0.8,0.4,1.2l-2.4,2.3c-1.1,0-2,0.9-2,2l-11.8,11.6c0-1.2-1-2.1-2.1-2.1c-1.2,0-2.1,1-2.1,2.1
			c0,1.2,0.9,2.1,2.1,2.1l-2.3,2.3c-0.4-0.5-1-0.9-1.7-0.9c-1.2,0-2.1,1-2.1,2.1c0,0.7,0.4,1.3,0.9,1.7l-2.2,2.2
			c-0.2,0-0.4-0.1-0.5-0.1c-1.2,0-2.1,1-2.1,2.1c0,0.2,0.1,0.3,0.1,0.5l-4.1,4h5.6l33.5-33l0-14.9l7.2,0v0.1l2,0
			c0.2,0,17.2,0,23.6,0.1c0.2,0,0.4,0,0.6,0c7.8,0,15.1-3.1,20.5-8.7c5.8-6.1,9-14.6,9.2-24.5c0-1.8,0.1-5,0.1-9.1
			c0.1-5.4,0.2-12.3,0.3-18.9C348.2,168,348.2,165.5,348.2,163.8z M311.2,148.5c-0.1-0.7,0.4-1.8,1.4-3c0.4-0.4,0.6-0.5,1-0.5
			c0.4,0,1.3,0.1,2.6,0.9l-2.9,4.8C312.4,150.1,311.4,149.3,311.2,148.5z M110.7,145.3c0.5,0,0.9,0.2,1.3,0.7c1,1.2,1.5,2.3,1.4,3
			c-0.1,0.7-0.9,1.5-2.1,2.2l-1.4-2.3c-0.4-0.8-0.9-1.5-1.2-2c-0.1-0.2-0.2-0.4-0.4-0.5C109.1,145.7,110,145.3,110.7,145.3z
			 M121,226.7c-5,0-10.7,0-13.8,0.1c-6.9,0.1-13.4-2.5-18.2-7.5c-5.1-5.4-8-13-8.1-21.9c0-1.8-0.1-5-0.1-9
			c-0.1-5.4-0.2-12.3-0.3-18.9c0-1,0-3.4,0-5l0-1.2c0-6.7,4-9.2,12.3-13.6c1.3-0.7,2.6-1.4,3.9-2.2c3.9-2.2,6.1-2.1,8,0.5l1.9,3.1
			c2,3.3,4.5,7.7,4.5,7.8l0.1,0.1c0,0,0.3,0.6,0.2,1.3c-0.2,0.8-0.9,1.6-2.1,2.3c-3.1,1.9-7.1,4.2-10.1,5.9c-1.7,1-3,1.7-3.6,2.1
			c-0.6,0.4-1.7,0.9-2.6,0.7c-0.6-0.1-1-0.6-1.5-1.3c-0.7-1.1-2.9-5.1-2.9-5.1l-3.4,2c0,0,2.3,4,3,5.1c1,1.7,2.3,2.7,3.9,3.1
			c1.7,0.4,3.6,0,5.6-1.2c0.5-0.3,1.8-1.1,3.5-2c1.2-0.7,2.6-1.5,4-2.3c0,3.3-0.1,10.7-0.1,13.6h0v2c0,1.3,0,2.6,0,3.7
			c-0.1,7.1-0.1,10.9,2.1,13.1c1,1,2.3,1.5,3.9,1.5h2v-3.9h-2c-0.8,0-1-0.2-1.1-0.3c-0.5-0.5-0.7-1.6-0.8-3.1c0.6,0.1,1.2,0.2,2,0.2
			c2.7,0,6.8,0,10,0c-1.5,2.7-2.9,7.5-2.9,15.7C118.2,219.4,119.6,224,121,226.7z M125.5,226.5c-1-1.2-3.4-5.2-3.4-14.6
			c0-12.1,3-15,3.8-15.6c0.9,0,3.1,0,6.8,0l0,30.1L125.5,226.5z M253.1,187.3l-65.9-65.9l-2.5,2.5l0,0l-59.8,57.7l-3.2-3.4
			l65.6-63.4l69.3,69.3L253.1,187.3z M259.2,181.3L190,112.2l5.5-5.5l69.2,69.2L259.2,181.3z M267.7,173.2l-69.3-69.3l6-6l69.3,69.3
			L267.7,173.2z M276.4,164.5l-69.3-69.3l6.1-6.1l69.3,69.3L276.4,164.5z M287.1,226l-22,0.1c-0.2,0-5.1-0.9-5.1-13.9
			c0-13.6,4.4-16.6,6.1-16.6c3.5,0,13.3,0,21.5,0.1c-1.1,2.1-3.1,7-3.1,15.1C284.5,218.5,286,223.4,287.1,226z M296.3,225.9l-4.9,0
			c0-0.1-3-4.8-3-15.1c0-9.4,3-13.8,3-14l0.8-1.1c1.7,0,3.3,0,4.6,0c-1.5,2.9-2.9,7.8-2.9,16.1C293.9,219,295.1,223.3,296.3,225.9z
			 M344.3,168.9c-0.1,6.6-0.2,13.5-0.3,18.9c-0.1,4-0.1,7.2-0.1,9c-0.2,8.9-3,16.5-8.2,21.9c-4.8,5-11.3,7.6-18.2,7.5
			c-3.7-0.1-11-0.1-16.5-0.1c-0.8-0.9-3.1-4.5-3.1-14.1c0-10.8,2.6-14.9,3.6-16c3.2,0,8.8,0,12.1,0c0.7,0,1.4-0.1,2-0.2
			c-0.1,1.4-0.4,2.4-0.8,2.8c-0.1,0.1-0.3,0.3-1.1,0.3h-2v3.9h2c1.6,0,2.9-0.5,3.9-1.5c2.2-2.2,2.1-6.1,2.1-13.1c0-1.2,0-2.4,0-3.7
			v-2h0c0-3.1,0-10.4,0-13.5c1.4,0.8,2.8,1.6,3.9,2.3c1.6,0.9,2.9,1.7,3.5,2c1.9,1.2,3.8,1.6,5.6,1.1c1.6-0.4,2.9-1.4,3.9-3.1
			c0.7-1.1,3-5.1,3-5.1l-3.4-2c0,0-2.3,4-3,5.1c-0.5,0.8-0.9,1.2-1.5,1.3c-0.9,0.2-2-0.3-2.6-0.7c-0.6-0.3-1.9-1.1-3.6-2.1
			c-3-1.7-7-4-10.1-5.9c-1.2-0.7-1.9-1.5-2.1-2.2c-0.2-0.7,0.2-1.3,0.2-1.3v0l0.1-0.1c0-0.1,3.9-6.7,5.8-9.8
			c2.1-3.5,4.4-3.9,8.7-1.5c1.4,0.8,2.7,1.5,3.9,2.2c8.3,4.5,12.3,6.9,12.3,13.6l0,1.2C344.3,165.5,344.3,167.9,344.3,168.9z"/>
		<path class="st0" d="M241.4,261.8c0-1.2,1-2.1,2.1-2.1c1.2,0,2.1,1,2.1,2.1s-1,2.1-2.1,2.1C242.4,263.9,241.4,263,241.4,261.8z"/>
		<path class="st0" d="M241.4,250.2c0-1.2,1-2.1,2.1-2.1c1.2,0,2.1,1,2.1,2.1c0,1.2-1,2.1-2.1,2.1
			C242.4,252.4,241.4,251.4,241.4,250.2z"/>
		<circle class="st0" cx="243.6" cy="273.3" r="2.1"/>
		<path class="st0" d="M265.9,232.8c0,1.2-1,2.1-2.1,2.1c-1.2,0-2.1-1-2.1-2.1c0-1.2,1-2.1,2.1-2.1
			C264.9,230.7,265.9,231.6,265.9,232.8z"/>
		<circle class="st0" cx="263.7" cy="255.9" r="2.1"/>
		<path class="st0" d="M269.6,244.6c0-1.2,1-2.1,2.1-2.1c1.2,0,2.1,1,2.1,2.1c0,1.2-1,2.1-2.1,2.1
			C270.6,246.8,269.6,245.8,269.6,244.6z"/>
		<path class="st0" d="M253.8,226.9c0,1.2-1,2.1-2.1,2.1c-1.2,0-2.1-1-2.1-2.1c0-1.2,1-2.1,2.1-2.1
			C252.8,224.8,253.8,225.7,253.8,226.9z"/>
		<path class="st0" d="M265.6,250.2c0-1.2,1-2.1,2.1-2.1c1.2,0,2.1,1,2.1,2.1c0,1.2-1,2.1-2.1,2.1
			C266.6,252.4,265.6,251.4,265.6,250.2z"/>
		<path class="st0" d="M257.5,250.2c0-1.2,1-2.1,2.1-2.1c1.2,0,2.1,1,2.1,2.1c0,1.2-1,2.1-2.1,2.1
			C258.5,252.4,257.5,251.4,257.5,250.2z"/>
		<path class="st0" d="M253.5,255.9c0-1.2,1-2.1,2.1-2.1c1.2,0,2.1,1,2.1,2.1c0,1.2-1,2.1-2.1,2.1
			C254.5,258,253.5,257.1,253.5,255.9z"/>
		<path class="st0" d="M261.6,244.6c0-1.2,1-2.1,2.1-2.1c1.2,0,2.1,1,2.1,2.1c0,1.2-1,2.1-2.1,2.1
			C262.5,246.8,261.6,245.8,261.6,244.6z"/>
		<path class="st0" d="M249.5,261.8c0-1.2,1-2.1,2.1-2.1c1.2,0,2.1,1,2.1,2.1s-1,2.1-2.1,2.1C250.5,263.9,249.5,263,249.5,261.8z"/>
		<path class="st0" d="M261.8,239c0,1.2-1,2.1-2.1,2.1c-1.2,0-2.1-1-2.1-2.1s1-2.1,2.1-2.1C260.9,236.8,261.8,237.8,261.8,239z"/>
		<path class="st0" d="M257.8,232.8c0,1.2-1,2.1-2.1,2.1c-1.2,0-2.1-1-2.1-2.1c0-1.2,1-2.1,2.1-2.1
			C256.9,230.7,257.8,231.6,257.8,232.8z"/>
		<path class="st0" d="M273.9,232.8c0,1.2-1,2.1-2.1,2.1c-1.2,0-2.1-1-2.1-2.1c0-1.2,1-2.1,2.1-2.1
			C272.9,230.7,273.9,231.6,273.9,232.8z"/>
		<path class="st0" d="M269.9,239c0,1.2-1,2.1-2.1,2.1c-1.2,0-2.1-1-2.1-2.1s1-2.1,2.1-2.1C268.9,236.8,269.9,237.8,269.9,239z"/>
		<path class="st0" d="M273.6,239c0-1.2,1-2.1,2.1-2.1c1.2,0,2.1,1,2.1,2.1s-1,2.1-2.1,2.1C274.6,241.1,273.6,240.2,273.6,239z"/>
	</g>
</g>
<g id="Рамка">
	<path class="st1" d="M396.4,94.6h-11.6c-1.1-3.2-4.2-5.5-7.8-5.5h-13c-0.9-3.9-4.3-6.8-8.5-6.8h-17.2v2.1h17.2
		c3.6,0,6.6,2.9,6.6,6.6v180.4c0,3.6-2.9,6.6-6.6,6.6H65.7c-3.6,0-6.6-2.9-6.6-6.6V90.9c0-3.6,2.9-6.6,6.6-6.6h267v-2.1h-267
		c-4.1,0-7.6,2.9-8.5,6.8H44.7c-3.6,0-6.7,2.3-7.8,5.5H25.3c-4.5,0-8.2,3.5-8.2,7.7v158.2c0,4.3,3.7,7.7,8.2,7.7H37
		c1.2,3.1,4.2,5.3,7.7,5.3h12.6c1,3.7,4.4,6.5,8.4,6.5h289.7c4,0,7.4-2.8,8.4-6.5H377c3.5,0,6.5-2.2,7.7-5.3h11.7
		c4.5,0,8.2-3.5,8.2-7.7V102.3C404.6,98,400.9,94.6,396.4,94.6z M25.3,266.3c-3.4,0-6.3-2.6-6.3-5.8V102.3c0-3.2,2.8-5.8,6.3-5.8
		h11.2c0,0.2,0,0.5,0,0.7v168.1c0,0.3,0,0.6,0.1,1H25.3z M44.7,271.5c-3.4,0-6.2-2.8-6.2-6.2V97.2c0-3.4,2.8-6.2,6.2-6.2h12.3v180.3
		c0,0.1,0,0.1,0,0.2H44.7z M383.2,265.3c0,3.4-2.8,6.2-6.2,6.2h-12.8c0-0.1,0-0.1,0-0.2V91l0,0H377c3.4,0,6.2,2.8,6.2,6.2V265.3z
		 M402.6,260.5c0,3.2-2.8,5.8-6.3,5.8h-11.2c0-0.3,0.1-0.6,0.1-1V97.2c0-0.2,0-0.5,0-0.7h11.2c3.4,0,6.3,2.6,6.3,5.8V260.5z"/>
</g>
<g id="Прещепка">
	<path class="st0" d="M333.6,16.4l-5.3,33.4L323,16.4h-7.9v65.8h4V20.4h0.5l6.7,41.9v12.5c-3.2,0.9-5.6,3.8-5.6,7.2v0.3h4V82
		c0-1.9,1.6-3.5,3.6-3.5h0.1c2,0,3.6,1.6,3.6,3.5s-1.6,3.5-3.6,3.5h-2V95c0,4.1,0,13.6,8.9,13.6h6.2V16.4H333.6z M337.5,104.7h-2.2
		c-3.1,0-4.9-1.6-4.9-9.6v-5.8c3.2-0.9,5.6-3.8,5.6-7.2s-2.4-6.3-5.6-7.2V62.3l6.7-41.9h0.5V104.7z"/>
</g>
<g id="Точка">
	<ellipse class="st0" cx="80.7" cy="51.8" rx="8.5" ry="8.4"/>
</g>
<g id="Круги">
	<g>
		<path class="st0" d="M103,80c-1.2,0-2.2,1-2.2,2.2h4.4C105.3,80.9,104.3,80,103,80z"/>
		<path class="st0" d="M107.2,73.9c-1.2,0-2.2,1-2.2,2.2c0,1.2,1,2.2,2.2,2.2c1.2,0,2.2-1,2.2-2.2C109.4,74.9,108.4,73.9,107.2,73.9
			z"/>
		<path class="st0" d="M111.3,80c-1.2,0-2.2,1-2.2,2.2h4.4C113.6,80.9,112.6,80,111.3,80z"/>
		<path class="st0" d="M148.7,78.3c1.2,0,2.2-1,2.2-2.2c0-1.2-1-2.2-2.2-2.2c-1.2,0-2.2,1-2.2,2.2C146.5,77.3,147.5,78.3,148.7,78.3
			z"/>
		<path class="st0" d="M152.9,72.5c0.6,0,1.1-0.2,1.5-0.6c-1.1-0.9-2.3-1.7-3.5-2.5c-0.1,0.2-0.2,0.5-0.2,0.8
			C150.6,71.5,151.6,72.5,152.9,72.5z"/>
		<path class="st0" d="M157,78.3c1.2,0,2.2-0.9,2.2-2.1c-0.8-0.8-1.6-1.5-2.5-2.3c-1.1,0.1-1.9,1.1-1.9,2.2
			C154.8,77.3,155.8,78.3,157,78.3z"/>
		<path class="st0" d="M150.6,82.2h4.4c0-1.2-1-2.2-2.2-2.2C151.6,80,150.7,80.9,150.6,82.2z"/>
		<path class="st0" d="M163.4,82.2c0-1.2-1-2.2-2.2-2.2s-2.2,1-2.2,2.2H163.4z"/>
		<path class="st0" d="M140.4,73.9c-1.2,0-2.2,1-2.2,2.2c0,1.2,1,2.2,2.2,2.2c1.2,0,2.2-1,2.2-2.2C142.6,74.9,141.6,73.9,140.4,73.9
			z"/>
		<path class="st0" d="M115.5,73.9c-1.2,0-2.2,1-2.2,2.2c0,1.2,1,2.2,2.2,2.2s2.2-1,2.2-2.2C117.7,74.9,116.7,73.9,115.5,73.9z"/>
		<path class="st0" d="M144.6,80c-1.2,0-2.2,1-2.2,2.2h4.4C146.8,80.9,145.8,80,144.6,80z"/>
		<path class="st0" d="M132.1,73.9c-1.2,0-2.2,1-2.2,2.2c0,1.2,1,2.2,2.2,2.2c1.2,0,2.2-1,2.2-2.2C134.3,74.9,133.3,73.9,132.1,73.9
			z"/>
		<path class="st0" d="M128,80c-1.2,0-2.2,1-2.2,2.2h4.4C130.2,80.9,129.2,80,128,80z"/>
		<path class="st0" d="M119.6,80c-1.2,0-2.2,1-2.2,2.2h4.4C121.9,80.9,120.9,80,119.6,80z"/>
		<path class="st0" d="M123.8,73.9c-1.2,0-2.2,1-2.2,2.2c0,1.2,1,2.2,2.2,2.2c1.2,0,2.2-1,2.2-2.2C126,74.9,125,73.9,123.8,73.9z"/>
		<path class="st0" d="M136.3,80c-1.2,0-2.2,1-2.2,2.2h4.4C138.5,80.9,137.5,80,136.3,80z"/>
		<path class="st0" d="M103,72.5c1.2,0,2.2-1,2.2-2.2c0-1.2-1-2.2-2.2-2.2s-2.2,1-2.2,2.2C100.8,71.5,101.8,72.5,103,72.5z"/>
		<path class="st0" d="M96.9,70.3c0-0.3-0.1-0.6-0.2-0.8c-1.2,0.8-2.4,1.6-3.5,2.5c0.4,0.3,0.9,0.6,1.5,0.6
			C96,72.5,96.9,71.5,96.9,70.3z"/>
		<path class="st0" d="M98.9,78.3c1.2,0,2.2-1,2.2-2.2c0-1.2-1-2.2-2.2-2.2c-1.2,0-2.2,1-2.2,2.2C96.7,77.3,97.7,78.3,98.9,78.3z"/>
		<path class="st0" d="M107.2,66.1c1.2,0,2.2-1,2.2-2.2c0-0.1,0-0.1,0-0.2c-1.4,0.4-2.7,0.9-4,1.4C105.7,65.7,106.4,66.1,107.2,66.1
			z"/>
		<path class="st0" d="M96.9,82.2c0-1.2-1-2.2-2.2-2.2c-1.2,0-2.2,1-2.2,2.2H96.9z"/>
		<path class="st0" d="M111.3,72.5c1.2,0,2.2-1,2.2-2.2c0-1.2-1-2.2-2.2-2.2c-1.2,0-2.2,1-2.2,2.2C109.1,71.5,110.1,72.5,111.3,72.5
			z"/>
		<path class="st0" d="M88.6,82.2c0-1.2-1-2.2-2.2-2.2c-1.2,0-2.2,1-2.2,2.2H88.6z"/>
		<path class="st0" d="M90.6,78.3c1.2,0,2.2-1,2.2-2.2c0-1.1-0.8-2.1-1.9-2.2c-0.8,0.7-1.7,1.5-2.5,2.3
			C88.4,77.4,89.4,78.3,90.6,78.3z"/>
		<path class="st0" d="M119.6,72.5c1.2,0,2.2-1,2.2-2.2c0-1.2-1-2.2-2.2-2.2c-1.2,0-2.2,1-2.2,2.2C117.4,71.5,118.4,72.5,119.6,72.5
			z"/>
		<path class="st0" d="M136.3,72.5c1.2,0,2.2-1,2.2-2.2c0-1.2-1-2.2-2.2-2.2c-1.2,0-2.2,1-2.2,2.2C134,71.5,135,72.5,136.3,72.5z"/>
		<path class="st0" d="M140.4,66.1c0.8,0,1.5-0.4,1.8-1c-1.3-0.5-2.7-1-4-1.4c0,0.1,0,0.1,0,0.2C138.2,65.1,139.2,66.1,140.4,66.1z"
			/>
		<path class="st0" d="M132.1,66.1c1.2,0,2.2-1,2.2-2.2c0-0.5-0.2-0.9-0.4-1.3c-1-0.2-2.1-0.4-3.1-0.5c-0.6,0.4-0.9,1.1-0.9,1.8
			C129.9,65.1,130.9,66.1,132.1,66.1z"/>
		<path class="st0" d="M144.6,72.5c1.2,0,2.2-1,2.2-2.2c0-1.2-1-2.2-2.2-2.2c-1.2,0-2.2,1-2.2,2.2C142.3,71.5,143.3,72.5,144.6,72.5
			z"/>
		<path class="st0" d="M115.5,66.1c1.2,0,2.2-1,2.2-2.2c0-0.7-0.4-1.4-0.9-1.8c-1,0.1-2.1,0.3-3.1,0.5c-0.3,0.4-0.4,0.8-0.4,1.3
			C113.3,65.1,114.3,66.1,115.5,66.1z"/>
		<path class="st0" d="M123.8,66.1c1.2,0,2.2-1,2.2-2.2c0-1.2-1-2.2-2.2-2.2c-1.2,0-2.2,1-2.2,2.2C121.6,65.1,122.6,66.1,123.8,66.1
			z"/>
		<path class="st0" d="M128,72.5c1.2,0,2.2-1,2.2-2.2c0-1.2-1-2.2-2.2-2.2c-1.2,0-2.2,1-2.2,2.2C125.7,71.5,126.7,72.5,128,72.5z"/>
	</g>
</g>
<g id="Бровь">
	<path class="st0" d="M153.7,213.2c-5.8,0-9.4,2.1-9.5,2.2l-1.7,1l2,3.4l1.7-1c0,0,2.8-1.6,7.5-1.6c4.3,0,6.9,1.5,7,1.6l1.6,1
		l2.1-3.3l-1.7-1C162.6,215.3,159.2,213.2,153.7,213.2z"/>
</g>
<g id="Лучики_низ">
	<g>
		
			<rect x="253.6" y="304.1" transform="matrix(0.8512 -0.5248 0.5248 0.8512 -130.3296 181.3558)" class="st1" width="2.1" height="32.9"/>
		
			<rect x="151.4" y="318.5" transform="matrix(0.5106 -0.8598 0.8598 0.5106 -192.9861 300.0331)" class="st1" width="31.4" height="2.1"/>
		<rect x="210.1" y="306.1" class="st1" width="2.1" height="44"/>
	</g>
</g>
<g id="Лучики_верх">
	<g>
		<rect x="208.4" y="12" class="st1" width="2.1" height="44"/>
		
			<rect x="164.4" y="26.8" transform="matrix(0.8603 -0.5098 0.5098 0.8603 1.4419 90.3022)" class="st1" width="2.1" height="31.4"/>
		
			<rect x="236.7" y="42" transform="matrix(0.5152 -0.8571 0.8571 0.5152 85.5366 237.2524)" class="st1" width="31.5" height="2.1"/>
	</g>
</g>
</svg>
