<svg xmlns="http://www.w3.org/2000/svg" xmlns:xlink="http://www.w3.org/1999/xlink">
	<symbol x="0px" y="0px" viewBox="0 0 725.1 579.5" style="enable-background:new 0 0 725.1 579.5;" id='homeicon'>

		<style type="text/css">
			.st0{fill:#C3EDFF;}
			.st1{fill:url(#SVGID_1_);}
			.st2{fill:#A3FFCA;}
			.st3{fill:#E0E2E3;}
			.st4{fill:#04B56D;}
			.st5{fill:#79E29C;}
			.st6{fill:url(#SVGID_2_);}
			.st7{fill:#00D09C;}
			.st8{fill:#00783C;}
			.st9{fill:#005C4A;}
			.st10{fill:none;}
			.st11{fill:none;stroke:#000000;stroke-miterlimit:10;}
			.st12{fill:#FFC013;}
			.st13{fill:#FFBD86;}
			.st14{fill:#FF8C24;}
			.st15{fill:#CB946B;}
			.st16{fill:#FF8825;}
			.st17{fill:#FF9E53;}
			.st18{fill:#18D2A1;}
			.st19{fill:#FFA050;}
			.st20{fill:#FFFFFF;}
			.st21{fill:#FF9522;}
			.st22{fill:#FFC84D;}
			.st23{fill:#FF9023;}
			.st24{fill:url(#SVGID_3_);}
			.st25{fill:url(#SVGID_4_);}
			.st26{fill:#A1E2FF;}
			.st27{fill:url(#SVGID_5_);}
			.st28{fill:url(#SVGID_6_);}
			.st29{fill:url(#SVGID_7_);}
			.st30{fill:#003A76;}
			.st31{fill:#001633;}
			.st32{fill:#FFC8CE;}
			.st33{fill:#0070C2;}
			.st34{fill:#004B91;}
			.st35{fill:#4ECCFF;}
			.st36{fill:#3F030C;}
			.st37{fill:#00126D;}
			.st38{fill:#EFA69A;}
			.st39{fill:#000444;}
			.st40{fill:#E58080;}
			.st41{fill:#AFE7FE;}
			.st42{fill:#FFA7BA;}
			.st43{fill:#002855;}
			.st44{fill:#0096FF;}
			.st45{fill:#004B8F;}
			.st46{fill:#0070C1;}
			.st47{fill:#08C1FD;}
			.st48{fill:#00AEFF;}
			.st49{fill:#9FE8FF;}
			.st50{fill:#AE102F;}
			.st51{fill:#00C1FF;}
			.st52{fill:#AFE6FF;}
			.st53{fill:#00539A;}
			.st54{fill:#00AFF7;}
			.st55{fill:#00122E;}
			.st56{fill:#7AD8FF;}
			.st57{fill:url(#SVGID_8_);}
			.st58{fill:url(#SVGID_9_);}
			.st59{fill:url(#SVGID_10_);}
			.st60{fill:#00C1FE;}
			.st61{fill:#00C2FF;}
		</style>

				<radialGradient id="SVGID_1_" cx="569.1124" cy="519.5079" r="113.1017" gradientTransform="matrix(1.3386 0 0 1 -213.2349 0)" gradientUnits="userSpaceOnUse">
				<stop  offset="0" style="stop-color:#A1E2FF"/>
				<stop  offset="0.5308" style="stop-color:#A3E3FF"/>
				<stop  offset="0.7442" style="stop-color:#AAE5FF"/>
				<stop  offset="0.9" style="stop-color:#B6E9FF"/>
				<stop  offset="1" style="stop-color:#C3EDFF"/>
			</radialGradient>
			<path class="st1" d="M343.6,508.5c-4.7,0-8.5,3.8-8.5,8.5s3.8,8.5,8.5,8.5c63.9,3.4,131.2,5.2,201.5,5c62.5-0.2,122.6-2,180-5
				c0-5.7,0-11.3,0-17H343.6z"/>
			<linearGradient id="SVGID_2_" gradientUnits="userSpaceOnUse" x1="84.055" y1="490.2368" x2="403.055" y2="490.2368">
				<stop  offset="0" style="stop-color:#FFFFFF"/>
				<stop  offset="0.2623" style="stop-color:#D0F0FF"/>
				<stop  offset="0.5459" style="stop-color:#A1E2FF"/>
				<stop  offset="0.6969" style="stop-color:#A6E4FF"/>
				<stop  offset="0.8698" style="stop-color:#B4E8FF"/>
				<stop  offset="1" style="stop-color:#C3EDFF"/>
			</linearGradient>
			<path class="st6" d="M394.6,491.5c-35.7,6.9-77.2,12.4-123.5,14c-69.7,2.4-130.3-4.7-178.5-14c-4.7,0-8.5-3.8-8.5-8.5
				c0-4.7,3.8-8.5,8.5-8.5h302c4.7,0,8.5,3.8,8.5,8.5S399.2,491.5,394.6,491.5z"/>
			<circle class="st26" cx="370.8" cy="245.3" r="15.3"/>

				<linearGradient id="SVGID_3_" gradientUnits="userSpaceOnUse" x1="-792.445" y1="-1621.25" x2="-768.945" y2="-1621.25" gradientTransform="matrix(0 -1 1 0 2263.5549 -768.945)">
				<stop  offset="0" style="stop-color:#A1E2FF"/>
				<stop  offset="0.335" style="stop-color:#A7E4FF"/>
				<stop  offset="0.7909" style="stop-color:#B9EAFF"/>
				<stop  offset="1" style="stop-color:#C3EDFF"/>
			</linearGradient>
			<circle class="st24" cx="642.3" cy="11.8" r="11.8"/>
			<circle class="st26" cx="593.1" cy="265.5" r="25"/>
			<linearGradient id="SVGID_4_" gradientUnits="userSpaceOnUse" x1="436.055" y1="196" x2="525.055" y2="196">
				<stop  offset="0" style="stop-color:#FFFFFF"/>
				<stop  offset="0.2326" style="stop-color:#F9FDFF"/>
				<stop  offset="0.5499" style="stop-color:#E7F8FF"/>
				<stop  offset="0.9144" style="stop-color:#CBEFFF"/>
				<stop  offset="1" style="stop-color:#C3EDFF"/>
			</linearGradient>
			<circle class="st25" cx="480.6" cy="196" r="44.5"/>

				<linearGradient id="SVGID_5_" gradientUnits="userSpaceOnUse" x1="-1037.3459" y1="-2122.5566" x2="-886.3459" y2="-2122.5566" gradientTransform="matrix(-0.4522 -0.8919 0.8919 -0.4522 1706.8293 -1627.6443)">
				<stop  offset="0" style="stop-color:#A1E2FF"/>
				<stop  offset="0.335" style="stop-color:#A7E4FF"/>
				<stop  offset="0.7909" style="stop-color:#B9EAFF"/>
				<stop  offset="1" style="stop-color:#C3EDFF"/>
			</linearGradient>
			<circle class="st27" cx="248.6" cy="190" r="75.5"/>
			<path class="st30" d="M579.7,305v-15.8c0-2.3-0.5-4.6-1.3-6.6c-0.7-20.7-0.4-37.2-5.8-46.5c-6.8-11.6-25.9-10.4-37.3-23
				c-6-6.7-3.6-7.9-5.7-7.2c-0.1,0-0.2,0.1-0.2,0.2c-1.8,1.4,1.4,10.8-4.1,17.1c-0.5,0.6-4,4.5-8.6,4.3c-2.1-0.1-4.1-1.1-5.9-2.5
				c-2.4,2.3-5.1,4.8-7.1,9.7c-2.6,6.6-1.8,12.7-1.4,15.8c1.1,8.3,4.8,14.1,5.7,15.8c7.8,13.3,5.8,44.4-4.5,61.8h59
				c7,0,13.1-4.3,15.8-10.4c0.6-1.5,1.1-3.2,1.4-5.4C579.9,310.2,580,307.9,579.7,305z"/>
			<path class="st31" d="M507.9,266.2c-1-1.7-4.7-7.5-5.7-15.8c-0.4-3.1-1.2-9.2,1.4-15.8c1.9-4.9,4.7-7.4,7.1-9.7
				c-4.8-3.9-8.1-10.9-9.5-11.8c-0.2-0.1-0.3-0.1-0.4-0.1c-0.4,0.2,0.2,1.3,0,2.9c-0.6,4.7-7.6,6.6-15.8,11.5c-5.3,3.1-8,4.7-10.1,7.2
				c-5.1,6-4.5,13.4-4.3,28.7c0.1,9,0.2,20.2,0,25.8v21.5c0,9.5,7.8,17.2,17.2,17.2h15.6C513.7,310.7,515.7,279.5,507.9,266.2z"/>
			<path class="st32" d="M282.6,241c-6.6-6.1-5.8-12.5-11-14c-5.4-1.5-11.5,3.8-12,3c-0.5-0.8,6.7-4.3,6-8c-0.6-3.2-5.6-3.2-8-8
				c-1.7-3.3,0.1-4.6-1-9c-0.8-3.3-2.4-5-4-6.4c-1.9-1.1-3.4-1.6-5-1.6c-3.2,0-4.6,1.7-8,1c-2.8-0.6-3-1.9-5-2c-0.7,0-1.3,0.1-1.8,0.3
				c0,1.3,0.3,2.5,0.8,3.7c1.2,2.4,3,5,3,5c1.1,1.6,1.5,1.9,2,3c0.5,1.2,0.5,1.9,0.7,3c1.9-0.1,3.3-0.5,3.3,0c0,0.5-1.4,0.9-3.2,1
				c0.1,0.3,0.1,0.6,0.2,1c0.6,2.5,1.6,4.2,2,5c0.3,0.5,0.6,1,3,4c1.8,2.3,3.2,4,5,6c1.9,2.1,2.4,2.6,3,3c2.3,1.6,3.6,1.2,4,2
				c0.3,0.6-0.1,1.4-0.9,2.3c0.6-0.2,0.9-0.3,0.9-0.3s-4.3,5-6,11c-1.8,6.4-1.6,15.3,2,17c2.2,1,5-0.8,15-9
				c7.2-5.9,11.9-9.9,15.3-12.7C282.8,241.2,282.7,241.1,282.6,241z"/>
			<path class="st11" d="M276.8,329H300c-0.1-0.8-0.3-1.6-0.4-2.3C292.4,328,284.6,328.9,276.8,329C276.8,329,276.8,329,276.8,329z"/>
			<path class="st33" d="M217.3,323.1l-9.2-47.2c0-2.7-2.1-4.9-4.6-4.9h-78c-2.5,0-4.6,2.2-4.6,4.9l9.4,48.3c0,2.7,2.1,4.9,4.6,4.9
				h77.6h0.4c2.5,0,4.6-2.2,4.6-4.9L217.3,323.1z"/>
			<path class="st11" d="M275.6,329h1.3c0,0,0,0,0,0C276.4,329,276,329,275.6,329z"/>
			<path class="st34" d="M259.1,323h-13.6h-12.4h-15.1c-0.2,0-0.5,0-0.7,0.1l0.2,1.1c0,2.7-2.1,4.9-4.6,4.9h23.9h7h20.7
				c0-0.2,0-0.3,0-0.5C264.6,325.5,262.1,323,259.1,323z"/>
			<path class="st35" d="M366.1,329H300h-23.2h-1.3h-11h-20.7h-7H213h-0.4H135h-32.9c-2.5,0-4.5,2-4.5,4.5c0,2.5,2,4.5,4.5,4.5h136.7
				h62.7h64.6c2.5,0,4.5-1,4.5-3.5C370.6,332,368.5,329,366.1,329z"/>
			<path class="st36" d="M214.6,382c-1.8,2.2,5.7,3.2,10,14c0,0.1,0.1,0.2,0.1,0.3l16.1-6.4C226.8,388.2,216.6,379.5,214.6,382z"/>
			<path class="st10" d="M531.7,188.6c-0.2,0.5-0.4,1-0.6,1.4C531.4,189.8,531.6,189.3,531.7,188.6z"/>
			<path class="st11" d="M531.7,188.6c0.3-0.8,0.6-1.7,0.9-2.7c-0.1-0.1-0.2-0.1-0.2-0.1C531.9,185.9,531.9,187.4,531.7,188.6z"/>
			<path class="st10" d="M531.7,188.6c-0.2,0.5-0.4,1-0.6,1.4C531.4,189.8,531.6,189.3,531.7,188.6z"/>
			<path class="st10" d="M531.7,188.6c0.3-0.8,0.6-1.7,0.9-2.7c-0.1-0.1-0.2-0.1-0.2-0.1C531.9,185.9,531.9,187.4,531.7,188.6z"/>
			<path class="st37" d="M497.9,160c0.6,2.5-1.2,4.2,0,5.7c1.7,2.3,6.3-0.8,10.1,1.4c3.9,2.3,5.1,8.1,2.9,10.1
				c-0.1,0.1-0.2,0.2-0.3,0.2c2-0.5,5.3-1.8,11.8-4.5c1.4-0.6,5.6,3.5,5.7,7.2c0.3,7.1,1.3,10.4,2.9,10.1c0.1,0,0.1,0,0.2-0.1
				c0.2-0.4,0.4-0.9,0.6-1.4c0.2-1.2,0.2-2.8,0.7-2.8c0.1,0,0.2,0,0.2,0.1c1-3.6,1.4-8.1-0.2-13c-3.4-10.2-12.8-16.4-18.7-15.8
				c-3.9,0.4-12.4-0.9-18.1-0.5C496.7,157.6,497.6,158.8,497.9,160z"/>
			<path class="st38" d="M532.6,185.9c-0.3,1-0.6,1.9-0.9,2.7c-0.1,0.7-0.3,1.2-0.6,1.4c-0.1,0-0.1,0.1-0.2,0.1
				c-1.5,0.3-2.6-3-2.9-10.1c-0.2-3.7-4.3-7.8-5.7-7.2c-6.5,2.7-9.8,4-11.8,4.5c-2.3,1.5-6.8-0.5-8.3,1.2c-1.7,1.9,3.8,6.6,2.9,12.9
				c-0.8,5.3-5.3,4.1-5.7,8.6c-0.5,4.9,5.7,5.7,8.6,15.8c0.9,3.1,3.8,7.2,5.8,10.8c0.9,0.4,1.9,0.6,2.8,0.7c4.6,0.2,8.1-3.7,8.6-4.3
				c5.5-6.3,2.2-15.6,4.1-17.1c-0.5-1.9-0.6-3.5,0.2-4.5c1.4-1.7,2.9-1,4.3-2.9C537,194.7,533.9,186.7,532.6,185.9z"/>
			<path class="st39" d="M489.3,168.6c-1.7,0.9-2,0.3-1.4,1.4c4,8,2.4,16.4,3.9,22.9c0-0.8,0.2-1.3,0.4-1.4c0.8-0.1,2.1,5.9,2.9,5.7
				c1.1-0.2-3.5-20.1,5.7-20.1c6.2,0,6.4,1.1,9.7,0.2c0.1-0.1,0.2-0.1,0.3-0.2c2.2-2,1-7.7-2.9-10.1c-3.7-2.2-8.3,0.8-10.1-1.4
				c-1.2-1.5,0.6-3.3,0-5.7c-0.3-1.2-1.2-2.4-2.3-3.4c-1.3,0.1-2.5,0.2-3.4,0.5C487.9,158.5,492.2,167.1,489.3,168.6z"/>
			<path class="st40" d="M499.3,200.2c0.5-4.5,4.9-3.3,5.7-8.6c0.9-6.3-4.6-11-2.9-12.9c1.5-1.7,6,0.3,8.3-1.2
				c-3.3,0.9-3.5-0.2-9.7-0.2c-9.2,0-4.7,19.9-5.7,20.1c-0.7,0.1-2.1-5.9-2.9-5.7c-0.2,0-0.3,0.6-0.4,1.4c-0.1,1.5,0.1,4,0.4,5.8
				c0.5,3.4,0.9,6.3,2.9,7.2c1.2,0.5,1.9-0.3,2.9,0c1.6,0.4,2.4,3.4,3.3,7.2c1.7,1,6.1,10.9,12.6,13.6c-1.9-3.6-4.9-7.7-5.8-10.8
				C505.1,205.9,498.8,205.1,499.3,200.2z"/>
			<path class="st41" d="M563,328h-75.8c-4.4,0-8.1-3.6-8.1-8.1l-4.3-51.3c0-4.4,3.6-8.1,8.1-8.1h84.4c4.4,0,8.1,3.6,8.1,8.1
				l-4.3,51.3C571.1,324.4,567.5,328,563,328z"/>
			<path class="st11" d="M579.7,312.2c-0.3,2.2-0.8,3.9-1.4,5.4C579,315.9,579.5,314.1,579.7,312.2z"/>
			<path class="st40" d="M510.8,195.9c0,0.8-1.9,1.4-4.3,1.4c-2.4,0-4.3-0.6-4.3-1.4s1.9,0,4.3,0C508.9,195.9,510.8,195.1,510.8,195.9
				z"/>
			<path class="st40" d="M528,191c-0.3-0.8-2.7,0.8-5.7,2c-2.9,1.2-5.3,1.4-5,2.2c0.3,0.8,3,0.6,5.9-0.6
				C526.2,193.5,528.3,191.8,528,191z"/>
			<path class="st40" d="M519.3,209.5c0.2,0.8-0.9,1.7-2.4,2.1c-1.5,0.4-2.9,0.1-3.1-0.6s1.2-0.3,2.8-0.7S519.1,208.7,519.3,209.5z"/>
			<path class="st42" d="M275.6,217c-0.4-1-0.2-3.7,0-9c0.1-2.1,0.2-3.2,0-5c-0.2-2.1-0.6-5.7-2-6c-1.3-0.3-3.1,1.9-4,4
				c-1.8,4.1,0.2,7.2-1,8c-1.4,0.9-4.5-3.2-12-8c-1.6-1-2.8-1.8-4-2.4c1.6,1.5,3.1,3.2,4,6.4c1.1,4.4-0.7,5.7,1,9c2.4,4.8,7.4,4.8,8,8
				c0.7,3.7-6.5,7.2-6,8c0.5,0.8,6.6-4.5,12-3c5.2,1.5,4.4,7.9,11,14c0.1,0.1,0.2,0.2,0.3,0.3c4.8-3.9,7.1-5.2,10.1-5.3
				c-0.8-1.1-2.2-2.6-4.4-5c-5.3-5.7-8.5-7.8-8-9c0,0,0.1-0.1,0.1-0.1C278.7,221,276.4,219.5,275.6,217z"/>
			<path class="st43" d="M248.6,193c0.7,2.7,2.3,4,4,5.6c1.1,0.6,2.4,1.4,4,2.4c7.5,4.8,10.6,8.9,12,8c1.2-0.8-0.8-3.9,1-8
				c0.9-2.1,2.7-4.3,4-4c1.4,0.3,1.8,3.9,2,6c0.2,1.8,0.1,2.9,0,5c-0.2,5.3-0.4,8,0,9c0.9,2.5,3.1,4,5.1,4.9c1-1.6,8.3,0.6,8.9-0.9
				c0.5-1.4-5.4-3.1-7-8c-0.8-2.6,0.4-3.5,2-11c1.3-6,2-9.6,1-14c-0.8-3.5-2.3-5.9-3-7c-1.3-2-2.9-4.6-6-6c-1.6-0.7-2.5-0.7-5-1
				c-6.6-0.9-6.9-2.4-12-3c-1.8-0.2-3.9-0.5-6.1-0.3c0.6,1.3,1,2.8,1.1,4.3C255,182.5,246.9,186.2,248.6,193z"/>
			<g>
				<path class="st44" d="M275.6,318c-0.6,0.4-1.1,1.1-1.5,1.9c-1.7,3.4-1.2,9.1,1.5,9.1c0.4,0,0.9,0,1.3,0c7.7-0.1,15.5-1,22.7-2.3
					c-1.2-6.6-2.3-12.2-2.5-18.7C288.9,311.3,279.3,315.4,275.6,318z"/>
				<path class="st44" d="M334.6,304c-3-11-10-18.2-18-40c-3-8.1-3.3-12.3-8-18c-2.8-3.4-8-9.7-15-10c-0.2,0-0.4,0-0.6,0
					c-3,0-5.3,1.4-10.1,5.3c6,5.4,9.4,2.4,15.7,7.7c5,4.2,7,9.8,11,21c3.7,10.4,2.1,10.4,5,16c5,9.9,10.8,11.6,11,18
					c0.2,5.7-4.1,10.1-6,12c-4.2,4.2-11.6,6.5-20.6,7.4c0.2,1.1,0.4,2.2,0.6,3.3c14.9-2.7,27.4-7.4,32-10.7
					C335.8,313,335.4,307,334.6,304z"/>
			</g>
			<path class="st42" d="M233.1,323h12.4h13.6c3,0,5.5,2.5,5.5,5.5c0,0.2,0,0.3,0,0.5h11c-1.9,0-2.8-2.8-2.5-5.7
				c-11.7-0.9-23.4-2.7-32.8-4.3C236.8,320,234.2,321.4,233.1,323z"/>
			<path class="st45" d="M241.6,178c-2.5,2.8-4.4,4.8-6,8c-0.8,1.7-3,6.1-2.8,10.3c0.6-0.2,1.2-0.4,1.8-0.3c2,0.1,2.2,1.4,5,2
				c3.4,0.7,4.8-1,8-1c1.7,0,3.1,0.5,5,1.6c-1.7-1.6-3.4-2.9-4-5.6c-1.7-6.8,6.4-10.5,6-18c-0.1-1.5-0.5-2.9-1.1-4.3
				c-1.6,0.1-3.2,0.5-4.9,1.3C246,173.2,244.5,174.8,241.6,178z"/>
			<path class="st32" d="M251.6,317c-1.9,0.2-3.7,0.4-5.4,0.7c-2.1,0.3-4.1,0.8-5.8,1.3c9.4,1.6,21.1,3.4,32.8,4.3
				c0.1-1.2,0.4-2.4,0.9-3.4C266.1,318,254.8,316.7,251.6,317z"/>
			<path class="st20" d="M227.6,348c1,2.5,14.1-4.6,30-1c7.1,1.6,13.1,5,19.9,9.4c2.3-5.5,3.1-11.9,2.7-18.4h-41.5
				c-4.3,5.1-9.3,7.4-10.8,8.9C227.6,347.3,227.4,347.7,227.6,348z"/>
			<path class="st46" d="M277.5,356.4c1.3,0.8,2.7,1.7,4.1,2.6c11.9,7.7,14.9,12.3,18,11c0.3-0.1,0.6-0.3,0.8-0.5
				c4.6-3.7,2.5-20.4,1.2-30.5c0-0.3-0.1-0.7-0.1-1h-21.2C280.6,344.5,279.8,350.9,277.5,356.4z"/>
			<path class="st44" d="M297.6,298c0.2-1.8,1-4.5,1.8-7c-0.5-1.7-1-4.7-3.8-13c-4.3-12.7-7.1-21.1-10-21c-3.6,0.2-1.9,13-12,26
				c-4.5,5.8-6.8,5.9-8,10c-2.3,8.1,5,13.5,10,25c3.7-2.6,13.3-6.7,21.5-10.1C297,304.9,297.1,301.6,297.6,298z"/>
			<path class="st20" d="M320.8,295c-1.9-2.2-4.1-4.9-6.2-9c-2.9-5.6-1.3-5.6-5-16c-4-11.2-6-16.8-11-21c-6.3-5.4-9.7-2.3-15.7-7.7
				c-3.4,2.8-8.2,6.9-15.3,12.7c-10,8.2-12.8,10-15,9c-3.6-1.7-3.8-10.6-2-17c1.7-6,6-11,6-11s-0.4,0.1-0.9,0.3
				c-2.4,0.8-8.8,3.1-12.1,6.7c-2.3,2.5-4.1,5.6-7,18c-2.8,12-4.2,18-3,23c1.8,7.5,5.3,7,9,15c2.7,5.8,3.9,12.8,3.6,19.7
				c1.7-0.3,3.6-0.5,5.4-0.7c3.3-0.3,14.5,1,22.5,2.9c-0.5,1-0.8,2.2-0.9,3.4c9,0.7,18.1,0.9,25.9,0.1c9-0.9,16.4-3.2,20.6-7.4
				c1.9-1.9,6.2-6.3,6-12C325.4,300.3,323.4,298.1,320.8,295z M297.1,307.9c-8.2,3.4-17.8,7.4-21.5,10.1c-5-11.5-12.3-16.9-10-25
				c1.2-4.1,3.5-4.2,8-10c10.1-13,8.4-25.8,12-26c2.9-0.1,5.7,8.3,10,21c2.8,8.3,3.3,11.3,3.8,13c1.1-3.2,2.2-6,2.2-6
				s3.6,6.4,6.2,11.3c1.5,2.9,2.8,5.3,2.8,5.7C310.6,302.5,304.4,304.9,297.1,307.9z"/>
			<path class="st42" d="M255.6,209c-0.1-0.8-0.7-0.5-4,0s-6.1,0.5-5.9,1.3s1.7,1.1,4.9,0.7S255.7,209.8,255.6,209z"/>
			<path class="st42" d="M242.6,211c0-0.5-1.4-0.1-3.3,0c0,0.3,0.1,0.6,0.1,1C241.2,211.9,242.6,211.5,242.6,211z"/>
			<path class="st42" d="M251.5,221.4c-0.1-0.5-1.6,0.3-2.9,0.6s-2.1,0.1-1.9,0.6c0.1,0.5,1.3,1.7,2.7,1.3
				C250.6,223.6,251.6,221.9,251.5,221.4z"/>
			<path class="st33" d="M473.3,337l-2.7,22.5c0,21.5,7.1,37.5,22,35.5l32.4-7.8c2.3-0.8,4.8-0.9,7.2-0.2l31.4,4.9c10.9,2,20-6,19-31
				l-2.6-24h-34.2H473.3z"/>
			<path class="st34" d="M239.1,390h75c1.4,0,2.5,1.1,2.5,2.5l0,0c0,1.4-1.1,2.5-2.5,2.5h-75c-1.4,0-2.5-1.1-2.5-2.5l0,0
				C236.6,391.1,237.7,390,239.1,390z"/>
			<path class="st34" d="M469.6,393h121c1.4,0,2.5,1.1,2.5,2.5l0,0c0,1.4-1.1,2.5-2.5,2.5h-121c-1.4,0-2.5-1.1-2.5-2.5l0,0
				C467.1,394.1,468.2,393,469.6,393z"/>
			<path class="st46" d="M475.6,398h109c1.4,0,2.5,1.1,2.5,2.5l0,0c0,1.4-1.1,2.5-2.5,2.5h-109c-1.4,0-2.5-1.1-2.5-2.5l0,0
				C473.1,399.1,474.2,398,475.6,398z"/>
			<path class="st47" d="M633.6,516.5c0,2.5,2,4.5,4.5,4.5s4.5-2,4.5-4.5l2-179.5h-13L633.6,516.5z"/>
			<path class="st48" d="M575,511.8c0,1.5,1.5,2.7,3.3,2.7c1.8,0,3.3-1.2,3.3-2.7l1.5-107.8h-9.5L575,511.8z"/>
			<path class="st48" d="M477,510.8c0,1.5,1.5,2.7,3.3,2.7s3.3-1.2,3.3-2.7l1.5-107.8h-9.5L477,510.8z"/>
			<path class="st47" d="M245,482.3c0,1.2,1.5,2.2,3.3,2.2s3.3-1,3.3-2.2l1.5-87.3h-9.5L245,482.3z"/>
			<path class="st47" d="M300,482.3c0,1.2,1.5,2.2,3.3,2.2s3.3-1,3.3-2.2l1.5-87.3h-9.5L300,482.3z"/>
			<path class="st47" d="M422.6,516.5c0,2.5,2,4.5,4.5,4.5s4.5-2,4.5-4.5l2-179.5h-13L422.6,516.5z"/>
			<path class="st49" d="M116.6,486.8c0,2.1,2,3.7,4.5,3.7s4.5-1.7,4.5-3.7l2-148.8h-13L116.6,486.8z"/>
			<path class="st49" d="M351.6,484.8c0,2,2,3.7,4.5,3.7s4.5-1.7,4.5-3.7l2-146.8h-13L351.6,484.8z"/>
			<path class="st34" d="M657.1,328H607h-19.7h-3.4h-1.3h-11h-20.7h-7H520h-0.4h-56.4H442h-32.9c-2.5,0-4.5,2-4.5,4.5
				c0,2.5,2,4.5,4.5,4.5h11.5h13h31.7h80.5H586h22.4h23.1h13h10.5c2.5,0,5.5-1.5,5.5-4C660.6,330.5,659.5,328,657.1,328z"/>
			<path class="st26" d="M1.6,107c5,0,14.3-0.8,31-9c16-7.9,22-14,26-18c0,0,9.1,7.9,24,32c14.4,23.3,24.3,35.9,18,36
				c-8.5,0.2-35,15.4-40,23c-1.7,2.6-13.3-7.3-33-30C9.1,119.6-4.8,107,1.6,107z"/>
			<path class="st20" d="M652.7,114.3c0.2-0.4,0.4-0.7,0.6-1c-1.4-0.4-3-0.8-4.7-1.3c-7.8-2-42.1-4.3-61.9-2c7.1,1.1,27.9,18,29.9,16
				c17.1-17.1,35.5-12,36-12c0.1,0-0.1,0.1-0.4,0.2C652.3,114.2,652.5,114.3,652.7,114.3z"/>
			<path class="st26" d="M652.6,114c-0.5,0-18.9-5.1-36,12c-2,2-22.9-14.9-29.9-16c0,0,0,0-0.1,0c-9-1.3-24,5-30,13
				c-1.9,2.5,36,36.1,37,35c30.8-32.6,55-42.3,58.6-43.8C652.5,114.1,652.6,114,652.6,114z"/>
			<path class="st20" d="M110.6,208c-2.6-2.6,2.9-6.4,8-14c5.9-8.8,5.7-14.9,8-13c5,4,8,12,19,13c9,0.8,17,11,18,13
				c1.8,3.7-2.5,5.5-8,14c-5.1,7.8-6.7,12.8-8,11c-3-4-9.4-10.4-18-13C119.6,216,113.6,211,110.6,208z"/>
			<path class="st0" d="M58.3,90.3l-14.3,11c-0.4,0.3-1.1,0.3-1.4-0.2h0c-0.3-0.4-0.3-1.1,0.2-1.4l14.3-11c0.4-0.3,1.1-0.3,1.4,0.2h0
				C58.8,89.3,58.7,90,58.3,90.3z"/>
			<path class="st0" d="M63.3,95.3l-14.3,11c-0.4,0.3-1.1,0.3-1.4-0.2h0c-0.3-0.4-0.3-1.1,0.2-1.4l14.3-11c0.4-0.3,1.1-0.3,1.4,0.2h0
				C63.8,94.3,63.7,95,63.3,95.3z"/>
			<path class="st0" d="M70,106.9L33,135.3c-0.4,0.3-1.1,0.3-1.4-0.2h0c-0.3-0.4-0.3-1.1,0.2-1.4l36.9-28.4c0.4-0.3,1.1-0.3,1.4,0.2v0
				C70.5,105.9,70.4,106.5,70,106.9z"/>
			<path class="st0" d="M75,111.9L38,140.3c-0.4,0.3-1.1,0.3-1.4-0.2h0c-0.3-0.4-0.3-1.1,0.2-1.4l36.9-28.4c0.4-0.3,1.1-0.3,1.4,0.2v0
				C75.5,110.9,75.4,111.5,75,111.9z"/>
			<path class="st0" d="M77.7,117.8L42,145.3c-0.4,0.3-1.1,0.3-1.4-0.2h0c-0.3-0.4-0.3-1.1,0.2-1.4l35.7-27.5c0.4-0.3,1.1-0.3,1.4,0.2
				v0C78.2,116.9,78.1,117.5,77.7,117.8z"/>
			<path class="st0" d="M576.9,116.1l24.6,24.5c0.4,0.4,0.4,1,0,1.4l0,0c-0.4,0.4-1,0.4-1.4,0l-24.6-24.5c-0.4-0.4-0.4-1,0-1.4v0
				C575.9,115.7,576.5,115.7,576.9,116.1z"/>
			<path class="st0" d="M582.9,114.1l22.2,22.1c0.4,0.4,0.4,1,0,1.4h0c-0.4,0.4-1,0.4-1.4,0l-22.2-22.1c-0.4-0.4-0.4-1,0-1.4l0,0
				C581.9,113.7,582.5,113.7,582.9,114.1z"/>
			<path class="st0" d="M589.6,111.8l20,19.9c0.4,0.4,0.4,1,0,1.4l0,0c-0.4,0.4-1,0.4-1.4,0l-20-19.9c-0.4-0.4-0.4-1,0-1.4l0,0
				C588.6,111.4,589.2,111.4,589.6,111.8z"/>
			<path class="st0" d="M80.5,123.5L47,149.3c-0.4,0.3-1.1,0.3-1.4-0.2h0c-0.3-0.4-0.3-1.1,0.2-1.4L79.3,122c0.4-0.3,1.1-0.3,1.4,0.2
				l0,0C81,122.6,80.9,123.2,80.5,123.5z"/>
			<path class="st0" d="M83.4,128.4L51,153.3c-0.4,0.3-1.1,0.3-1.4-0.2h0c-0.3-0.4-0.3-1.1,0.2-1.4l32.3-24.9c0.4-0.3,1.1-0.3,1.4,0.2
				l0,0C83.9,127.4,83.8,128.1,83.4,128.4z"/>
			<path class="st0" d="M87.4,132.4L55,157.3c-0.4,0.3-1.1,0.3-1.4-0.2h0c-0.3-0.4-0.3-1.1,0.2-1.4l32.3-24.9c0.4-0.3,1.1-0.3,1.4,0.2
				l0,0C87.9,131.4,87.8,132.1,87.4,132.4z"/>
			<path class="st0" d="M128.2,188.2l-5.6,7c-0.2,0.3-0.7,0.3-1,0.1v0c-0.3-0.2-0.3-0.7-0.1-1l5.6-7c0.2-0.3,0.7-0.3,1-0.1l0,0
				C128.4,187.5,128.5,188,128.2,188.2z"/>
			<path class="st0" d="M131.2,189.9l-5.6,7c-0.2,0.3-0.7,0.3-1,0.1l0,0c-0.3-0.2-0.3-0.7-0.1-1l5.6-7c0.2-0.3,0.7-0.3,1-0.1l0,0
				C131.4,189.2,131.4,189.6,131.2,189.9z"/>
			<path class="st0" d="M138.2,195.5l-13,16.2c-0.2,0.3-0.7,0.3-1,0.1h0c-0.3-0.2-0.3-0.7-0.1-1l13-16.2c0.2-0.3,0.7-0.3,1-0.1l0,0
				C138.4,194.8,138.5,195.2,138.2,195.5z"/>
			<path class="st0" d="M142.1,198.2l-12.6,15.7c-0.2,0.3-0.7,0.3-1,0.1l0,0c-0.3-0.2-0.3-0.7-0.1-1l12.6-15.7c0.2-0.3,0.7-0.3,1-0.1
				l0,0C142.3,197.5,142.4,197.9,142.1,198.2z"/>
			<path class="st0" d="M146.4,199.8l-13,16.1c-0.2,0.3-0.7,0.3-1,0.1l0,0c-0.3-0.2-0.3-0.7-0.1-1l13-16.1c0.2-0.3,0.7-0.3,1-0.1l0,0
				C146.6,199.1,146.7,199.5,146.4,199.8z"/>
			<path class="st0" d="M151.2,200.6l-13.3,16.6c-0.2,0.3-0.7,0.3-1,0.1l0,0c-0.3-0.2-0.3-0.7-0.1-1l13.3-16.6c0.2-0.3,0.7-0.3,1-0.1
				l0,0C151.4,199.9,151.4,200.3,151.2,200.6z"/>
			<path class="st0" d="M154.9,202.1l-13.4,16.7c-0.2,0.3-0.7,0.3-1,0.1l0,0c-0.3-0.2-0.3-0.7-0.1-1l13.4-16.7c0.2-0.3,0.7-0.3,1-0.1
				l0,0C155,201.4,155.1,201.8,154.9,202.1z"/>
			<path class="st0" d="M157.5,204.9l-13,16.1c-0.2,0.3-0.7,0.3-1,0.1l0,0c-0.3-0.2-0.3-0.7-0.1-1l13-16.1c0.2-0.3,0.7-0.3,1-0.1l0,0
				C157.7,204.1,157.8,204.6,157.5,204.9z"/>
			<path class="st36" d="M644.1,328h-44c-1.4,0-2.5-1.1-2.5-2.5l0,0c0-1.4,1.1-2.5,2.5-2.5h44c1.4,0,2.5,1.1,2.5,2.5l0,0
				C646.6,326.9,645.4,328,644.1,328z"/>
			<path class="st50" d="M636.1,323h-33c-1.4,0-2.5-1.1-2.5-2.5l0,0c0-1.4,1.1-2.5,2.5-2.5h33c1.4,0,2.5,1.1,2.5,2.5l0,0
				C638.6,321.9,637.4,323,636.1,323z"/>
			<path class="st50" d="M172.1,397.4c-4.9,3.5-8.8,5.4-10.6,9.6c-4,9.6-12.1,20.3-22.4,31.5c-7.4,8-16,16.3-25.2,24.5
				c1.8,2.5,4.3,4.8,7,6.7c1.9-1.8,3.8-3.3,5.6-4.6c13.6-10,14-9.8,21.4-16.7c1.3-1.2,2.8-2.6,4.6-4.3c4.5-4.3,11.5-12.9,17-25
				C172.6,412.2,172.8,404.5,172.1,397.4z"/>
			<path class="st36" d="M197.6,414c-11.9-17-14.6-20-16.3-23.7c-1.3,1-2.9,2.2-4.7,3.7c-1.6,1.3-3,2.4-4.4,3.4
				c0.7,7.1,0.5,14.8-2.6,21.6c-5.5,12.1-12.5,20.7-17,25c-1.8,1.7-3.3,3.1-4.6,4.3c-7.4,6.9-7.8,6.7-21.4,16.7
				c-1.8,1.3-3.7,2.9-5.6,4.6c1.3,0.9,2.7,1.7,4.1,2.4c6.7-4,16.4-7,25.9-12.6c7.5-4.5,14.9-10.7,20.6-20.4
				C179.7,425.1,198.5,415.3,197.6,414z"/>
			<path class="st50" d="M257.6,347c-15.9-3.6-29,3.5-30,1c-0.1-0.3,0-0.7,0.4-1.1c-0.1,0-0.3,0.1-0.4,0.1c-11,2-38,4-49,14
				c-0.8,0.7-5.3,8.5-2,17c2.8,7.2,3.5,9.9,4.7,12.3c1.7,3.7,4.4,6.7,16.3,23.7c0.9,1.3,2.2,3,3.7,4.9c1.7,2.2,3.6,4.7,5.6,7.3
				c5.3,6.9,11.1,14.8,14.7,21.4c4-0.8,8-2.4,11.1-4.4c-0.6-1.6-1.3-3.3-2.1-5.1c-2.8-6.5-5.6-11.6-8.4-16.2
				c-5.1-8.3-10.1-15.1-15.6-25.8c-7.1-13.9-11.2-22.1-8-26c5.9-7.2,27.5,10.3,56,3c6.3-1.6,13.6-3.5,19-10c1.6-2,2.9-4.2,3.9-6.6
				C270.7,352,264.7,348.6,257.6,347z"/>
			<path class="st36" d="M299.6,370c-3.1,1.3-6.1-3.3-18-11c-1.4-0.9-2.8-1.8-4.1-2.6c-1,2.4-2.3,4.7-3.9,6.6c-5.4,6.5-12.7,8.4-19,10
				c-28.5,7.3-50.1-10.2-56-3c-3.2,3.9,0.9,12.1,8,26c5.5,10.8,10.5,17.5,15.6,25.8c2.8,4.6,5.6,9.7,8.4,16.2c0.8,1.8,1.5,3.5,2.1,5.1
				c1.5-1,2.8-2.1,3.8-3.4c-0.6-1.6-1.2-3.1-1.9-4.8c-1.6-4.2-2.7-8-3.4-11.7c-1.8-8.5-2.3-16.4-6.4-27c0-0.1-0.1-0.2-0.1-0.3
				c-4.3-10.8-11.8-11.8-10-14c2.1-2.5,12.3,6.2,26.2,7.9c0.3,0,0.5,0.1,0.8,0.1c10,1,21,2,40-1c1.3-0.2,16.9-8.5,18.8-19.5
				C300.1,369.7,299.8,369.9,299.6,370z"/>
			<path class="st10" d="M546.3,485.6c0,0-0.1,0-0.1,0.1C546.2,485.6,546.3,485.6,546.3,485.6z"/>
			<path class="st10" d="M545.1,486C545,486,545,486,545.1,486C545,486,545,486,545.1,486z"/>
			<path class="st51" d="M548.5,461.3c-0.2-3.7-0.2-7.7,0.1-12.3c0.8-13.1,3.7-22.3,8-36c8.4-26.6,15-29.7,14-43
				c-0.8-9.9-5.2-17.4-8.5-22.5c-17.8-2-23.4,15.1-23.5,16.5c-3.8,57.2,0.3,60.8-6.6,93.9c-0.1,0.4-0.2,0.8-0.3,1.2
				c2.3,1.1,5.2,2.4,8.9,2.9C543.5,462.3,546.2,462,548.5,461.3z"/>
			<path class="st52" d="M532.6,480c2.5-1.6,6.7-2.3,9,0c1.6,1.6,1.9,4.3,1,6.8c0.8-0.2,1.6-0.4,2.4-0.7c0,0,0,0,0,0
				c0.4-0.1,0.7-0.3,1.1-0.4c0,0,0.1,0,0.1-0.1c0.4-0.2,0.8-0.4,1.2-0.6c0.4-0.2,0.6-0.3,0.9-0.5c1-9.4,0.4-15.8,0-23.1
				c-2.3,0.6-5,1-7.9,0.7c-3.7-0.4-6.6-1.8-8.9-2.9c0.9,10.2,0,15.3-2.5,24.5C529.9,482.2,531.2,480.8,532.6,480z"/>
			<path class="st53" d="M547.6,491c0.4-2.3,0.7-4.5,0.9-6.5c-0.3,0.2-0.5,0.3-0.9,0.5c-0.4,0.2-0.8,0.4-1.2,0.6c0,0-0.1,0-0.1,0.1
				c-0.4,0.2-0.7,0.3-1.1,0.4c0,0,0,0,0,0c-5.5,2-10.7,1.6-16.4-0.6c0.2-0.6,0.3-1.2,0.5-1.7c-0.3,0.5-0.5,1.1-0.7,1.7
				c-0.3-0.1-0.6-0.2-0.8-0.3c-1.7-0.7-1,14-9,19c-0.4,0.3-7,9,2,10c2.7,0.3,7,0.9,11.1,1c2.7-0.7,5.4-1.9,7.9-4
				C542.4,508.6,545.3,504.6,547.6,491z"/>
			<path class="st53" d="M545,486.1c-0.8,0.3-1.6,0.5-2.4,0.7c0.8-2.5,0.5-5.2-1-6.8c-2.3-2.3-6.5-1.6-9,0c-1.4,0.8-2.6,2.2-3.5,3.7
				c-0.2,0.6-0.3,1.1-0.5,1.7C534.3,487.7,539.5,488,545,486.1z"/>
			<path class="st33" d="M556.6,413c-4.3,13.7-7.2,22.9-8,36c-0.3,4.7-0.2,8.6-0.1,12.3c3.4-0.9,6.1-2.3,8.2-2.8
				c1.9-6.6,4.7-14.5,8.7-23.9c12.5-29.5,14.8-66.2,8-78.4c-0.6-1.1-3.6-7.6-10-8.6c-0.4-0.1-0.8-0.1-1.2-0.2
				c3.3,5.1,7.7,12.7,8.5,22.5C571.6,383.3,564.9,386.4,556.6,413z"/>
			<path class="st54" d="M548.5,484.5c2.2-1.5,0.7-3,2.1-2.5c0.7,0.2,0.5-5.1,1-4c0-4.6,0-7,5.1-19.4c-2,0.5-4.7,1.9-8.2,2.8
				C548.8,468.7,549.5,475.1,548.5,484.5z"/>
			<path class="st55" d="M541.6,513c9.7-6.7,5.1-9.8,10-11c3.3-0.8,3.1-12.8,0.8-17.8c-0.5-1.1-1.1-1.9-1.8-2.2
				c-1.4-0.5,0.1,1-2.1,2.5c-0.2,2-0.5,4.2-0.9,6.5c-2.3,13.6-5.2,17.6-8,20c-2.5,2.1-5.2,3.3-7.9,4C535.5,515,539.2,514.6,541.6,513z
				"/>
			<path class="st10" d="M513.8,479.9c0.1-0.1,0.2-0.1,0.3-0.2C514,479.8,513.9,479.9,513.8,479.9z"/>
			<polygon class="st10" points="512,480.7 512,480.7 512,480.7 	"/>
			<path class="st10" d="M514.7,479.5c0.3-0.2,0.6-0.3,0.9-0.5C515.3,479.2,515,479.3,514.7,479.5z"/>
			<path class="st10" d="M512.9,480.4c0,0,0.1,0,0.1-0.1C513,480.3,512.9,480.3,512.9,480.4z"/>
			<path class="st51" d="M501.4,341c-2.1,0-3.9,0.6-5.4,1.4c2.1,1.3,4,3.1,4.5,5.6c1,5.5-6.6,7.7-10,15c-6.1,13,10.3,23,11,47
				c0.4,13.5-4.8,11.7-5,29c-0.1,10.9,1.8,17.2,2.9,22.8c2.3,0.5,5,0.9,8.1,0.2c3.9-0.8,6.2-2.6,8-3.6c-0.1-1.3-0.2-2.5-0.3-3.6
				c-1.7-33.7,2.1-32.7,7.3-89.8C522.7,363.5,520.5,341,501.4,341z"/>
			<path class="st52" d="M499.4,461.8c0.6,3.1,0.9,6,0.3,9.4c2.9-1.6,7.2-1.4,9.8,0.8c2.4,2,3.1,5.4,2.4,8.7c0,0,0,0,0,0
				c0.3-0.1,0.6-0.2,0.9-0.4c0,0,0.1,0,0.1-0.1c0.3-0.1,0.5-0.2,0.8-0.4c0.1-0.1,0.2-0.1,0.3-0.2c0.2-0.1,0.4-0.2,0.6-0.3
				c0.3-0.2,0.6-0.3,0.9-0.5c0.2-0.1,0.4,0,0.6,0.2c-3.6-4.2-3.6-14.2-0.6-20.8c-1.8,1-4.1,2.8-8,3.6
				C504.5,462.6,501.8,462.3,499.4,461.8z"/>
			<path class="st53" d="M515.6,479c-0.3,0.2-0.6,0.3-0.9,0.5c-0.2,0.1-0.4,0.2-0.6,0.3c-0.1,0.1-0.2,0.1-0.3,0.2
				c-0.3,0.1-0.5,0.2-0.8,0.4c0,0-0.1,0-0.1,0.1c-0.3,0.1-0.6,0.3-0.9,0.4c0,0,0,0,0,0l0,0c-4.6,1.8-10.6,2.7-15.7,0.7
				c-2.7,5.5-5.5,9.5-3.7,14.6c0.6,1.8,2.8,4.5,7,10c2.5,3.2,4.1,5.1,5.2,6.5c1.8-0.1,3.5-0.3,4.8-0.5c9-1,5.6-18.8,6-19
				c4.4-1.8,2.3-12.2,0.6-13.8C515.9,479,515.7,478.9,515.6,479z"/>
			<path class="st33" d="M490.2,347.9c-8.6,11-12.1,47.6-4.3,78.7c3.6,14.5,5.2,25.4,5.7,33.5c2.1-0.3,4.6,0.9,7.8,1.6
				c-1-5.6-3-11.8-2.9-22.8c0.2-17.3,5.4-15.5,5-29c-0.7-24-17.1-34-11-47c3.4-7.3,11-9.5,10-15c-0.5-2.5-2.4-4.3-4.5-5.6
				C492.7,344.3,490.7,347.3,490.2,347.9z"/>
			<path class="st54" d="M491.6,460.1c3.6,4.9,2.2,11.7,1,17.9c1.3-0.5-0.2,0.9,1.7,2.4c0.6-1.9,1.5-3.8,2.3-5.4c1-2.1,1.7-2.7,2-3
				c0.4-0.3,0.8-0.6,1.2-0.8c0.5-3.4,0.2-6.3-0.3-9.4C496.2,461,493.7,459.9,491.6,460.1z"/>
			<path class="st55" d="M492.6,496c-1.8-5.1,1-9.1,3.7-14.6c-0.3-0.1-0.6-0.2-0.9-0.4c-3.4-1.6-3.1-1.4-2.8-3c-1,0.4-1.7,1.7-2.2,3.5
				c-1.2,4.7-1,12.7-1.8,15.5c-1.8,6-4,9,1,13c3.4,2.7,9.9,2.8,15.2,2.5c-1.1-1.3-2.7-3.3-5.2-6.5C495.3,500.5,493.2,497.8,492.6,496z
				"/>
			<path class="st53" d="M509.6,472c-2.6-2.2-6.9-2.4-9.8-0.8c-0.4,0.2-0.8,0.5-1.2,0.8c-0.3,0.3-1,0.9-2,3c-0.7,1.6-1.7,3.5-2.3,5.4
				c-1.9-1.5-0.4-2.9-1.7-2.4c-0.3,1.6-0.7,1.4,2.8,3c0.3,0.1,0.6,0.3,0.9,0.4c5.2,2,11.1,1.2,15.7-0.7
				C512.6,477.4,511.9,474,509.6,472z"/>
			<circle class="st56" cx="165.6" cy="301" r="6.5"/>
			<circle class="st20" cx="525.6" cy="294" r="6.5"/>
			<path class="st32" d="M93.6,485c2.1,0.5,4-2,8-4c2.9-1.4,6.1-2,9.2-2c2.1-1.9,4.6-4.2,7.8-7c0.9-0.8,1.8-1.6,2.6-2.2
				c-0.1,0-0.1-0.1-0.2-0.1c-2.8-1.9-5.2-4.2-7-6.7c-3.4,3-6.8,6-10.3,9.1c-2.7,2.3-6.8,5.4-11.6,8.6C90.4,482.5,90.1,484.2,93.6,485z
				"/>
			<path class="st48" d="M85.6,496c4-1,7.5-4.4,13-7c3.4-1.6,4.5-2.9,12.2-10c-3.1,0-6.3,0.6-9.2,2c-4,2-5.9,4.5-8,4
				c-3.5-0.8-3.1-2.5-1.6-4.4c-3.3,2.2-6.9,4.4-10.4,6.4c-4.2,2.4-10.7,4.4-11.8,5.6C73.6,494.1,79.5,497.5,85.6,496z"/>
			<path class="st42" d="M110.8,479c0.4,0,0.9,0,1.3,0c1.9,0.1,3.7,0.5,5.3,1c1.3-3.4,4-5.9,7.7-8.1c-1.4-0.7-2.7-1.4-3.9-2.3
				c-0.8,0.7-1.6,1.4-2.6,2.2C115.4,474.8,112.8,477.1,110.8,479z"/>
			<path class="st33" d="M69.6,493c1.7,3.1,14.4,7,19,4c6.5-4.2,12-5.8,16.4-6.6c7.2-1.4,11.3-0.8,11.6-6.4c0.1-1.4,0.4-2.7,0.8-3.9
				c-1.6-0.5-3.4-0.9-5.3-1c-0.4,0-0.9,0-1.3,0c-7.7,7-8.8,8.4-12.2,10c-5.5,2.6-9,6-13,7c-6,1.5-12-1.9-15.8-3.4
				C69.6,492.7,69.5,492.9,69.6,493z"/>
			<path class="st32" d="M218.6,466c4.7,0.4,9-3.6,15.6-7.3c0.9-0.5,1.9-1,2.9-1.5c-1.8-3.7-6.1-7.4-9-11.7c-2.1,0.9-4.3,1.6-6.6,2
				c3.1,5.8,4.5,10.5,2,12.4c-2.9,2.4-5.1,4-6.9,5.2C216.9,465.7,217.2,465.9,218.6,466z"/>
			<path class="st48" d="M206.6,476c7.1-0.1,12.4-2.7,19-6c7.5-3.8,11.3-5.6,12-8c0.5-1.6,0.2-3.2-0.5-4.7c-1,0.5-2,1-2.9,1.5
				c-6.6,3.6-10.9,7.7-15.6,7.3c-1.4-0.1-1.7-0.3-1.9-0.8c-4.2,2.9-5.9,3.4-9.1,4.8c-4.5,1.9-13.7,2.3-14,5c0,0.2,0,0.4,0.1,0.6
				c1-0.3,1.9-0.5,2.9-0.6C200.5,474.6,200.9,476.1,206.6,476z"/>
			<path class="st42" d="M237.6,457c1.3-0.6,2.8-1.1,4.5-1.5c-2.6-7.7-4.1-11.8-5.6-15.7c-1,1.2-2.3,2.4-3.8,3.4
				c-1.4,0.9-2.9,1.7-4.6,2.4c2.8,4.3,7.2,8,9,11.7C237.2,457.2,237.4,457.1,237.6,457z"/>
			<path class="st33" d="M203.6,480c9.7,0,16.2-4.4,23-3c1.9,0.4,3.8,0.6,5.6,0.8c7.2,0.5,12.5-0.8,13.4-1.8c2.5-2.5,0.3-9.2-3-19
				c-0.2-0.5-0.4-1-0.5-1.5c-1.7,0.4-3.2,1-4.5,1.5c-0.2,0.1-0.3,0.2-0.5,0.3c0.7,1.6,1,3.1,0.5,4.7c-0.7,2.4-4.5,4.2-12,8
				c-6.6,3.3-11.9,5.9-19,6c-5.6,0.1-6.1-1.4-10-1c-1,0.1-1.9,0.3-2.9,0.6C194.5,478,202,480,203.6,480z"/>
			<path class="st49" d="M282.6,501.4c0,2.3,2,4.1,4.5,4.1s4.5-1.8,4.5-4.1l2-163.4h-13L282.6,501.4z"/>
			<ellipse class="st50" cx="503.6" cy="486.5" rx="6.5" ry="1"/>
			<ellipse class="st50" cx="502.6" cy="490.5" rx="6.5" ry="1"/>
			<ellipse class="st50" cx="531.6" cy="491.5" rx="4.5" ry="1"/>
			<ellipse class="st50" cx="530.6" cy="495.5" rx="4.5" ry="1"/>
			<path class="st36" d="M454.3,296h-4.4c0.1,1.3,0.1,2.6,0.1,4c0,11.7-3.3,22-8.3,28h7.6c2.9,0,5.3-2.4,5.3-5.3l5-24.5
				C459.6,295.4,457.2,296,454.3,296z"/>
			<path class="st50" d="M449.9,296h-15.1c-2.9,0-5.3-0.6-5.3,2.3l5,24.5c0,2.9,2.4,5.3,5.3,5.3h1.9c5-6,8.3-16.3,8.3-28
				C450.1,298.6,450,297.3,449.9,296z"/>
	</symbol>



	<use xlink:href="#homeicon" width="725.1" height="579.5" x="0" y="0"/>
</svg>
