<?xml version="1.0" encoding="utf-8"?>
<!-- Generator: Adobe Illustrator 22.1.0, SVG Export Plug-In . SVG Version: 6.00 Build 0)  -->
<svg version="1.1" id="_x31_" xmlns="http://www.w3.org/2000/svg" xmlns:xlink="http://www.w3.org/1999/xlink" x="0px" y="0px"
	 viewBox="0 0 102.8 138.3" style="enable-background:new 0 0 102.8 138.3;" xml:space="preserve">
<style type="text/css">
	.st0{fill:#1BC09B;}
</style>
<g id="Глаз_1_">
	<path class="st0" d="M59.6,92.9c-2.5,0-4.6,2.1-4.6,4.6c0,2.5,2.1,4.6,4.6,4.6s4.6-2.1,4.6-4.6C64.2,94.9,62.1,92.9,59.6,92.9z"/>
	<path class="st0" d="M59.6,99.6c-1.2,0-2.1-1-2.1-2.1c0-1.2,1-2.1,2.1-2.1s2.1,1,2.1,2.1C61.7,98.6,60.7,99.6,59.6,99.6z"/>
</g>
<g id="Глаз">
	<path class="st0" d="M38.6,97.5c0-2.5-2.1-4.6-4.6-4.6c-2.5,0-4.6,2.1-4.6,4.6c0,2.5,2.1,4.6,4.6,4.6
		C36.6,102.1,38.6,100,38.6,97.5z"/>
	<path class="st0" d="M31.9,97.5c0-1.2,1-2.1,2.1-2.1s2.1,1,2.1,2.1c0,1.2-1,2.1-2.1,2.1S31.9,98.6,31.9,97.5z"/>
</g>
<path id="Рот" class="st0" d="M57.4,108.1h-6.3h-1.2H37.6c-2.9,0-5.2,2.3-5.2,5.2c0,2.9,2.3,5.2,5.2,5.2h19.8
	c2.9,0,5.2-2.3,5.2-5.2C62.6,110.5,60.2,108.1,57.4,108.1z M37.6,116.1c-1.5,0-2.7-1.2-2.7-2.7c0-1.5,1.2-2.7,2.7-2.7h3.6
	c-2.2,1.6-3.2,3.8-3.5,5.5H37.6z M57.4,116.1H40.3c0.5-1.8,2.4-5.5,9.6-5.5h1.2h6.3c1.5,0,2.7,1.2,2.7,2.7
	C60.1,114.9,58.9,116.1,57.4,116.1z"/>
<path id="Брови" class="st0" d="M65.8,86.6l1,0.8l-1.6,1.9l-1-0.8c-17.3-14.1-33.6-1-33.8-0.8l-1,0.8L28,86.6l1-0.8
	C29.1,85.6,47,71.3,65.8,86.6z"/>
<g id="Дом">
	<path class="st0" d="M83.4,15.4V4.2c0-2.3-1.9-4.2-4.2-4.2C76.9,0,75,1.9,75,4.2v11.2H40.5L10.6,69.6h9.3v34.6c0,0.9,0,2.2,0,3.1
		v31.1h58.9l9.1-9.1v-22.5l1.6-1.6v16.3h6.6l6.7-6.4V15.4H83.4z M83.4,17.8h2.3c-0.5,0.9-1.3,2.4-2.3,4.4V17.8z M77.4,4.2
		c0-1,0.8-1.7,1.7-1.7c1,0,1.7,0.8,1.7,1.7v24.2c0,1-0.8,1.7-1.7,1.7c-1,0-1.7-0.8-1.7-1.7V4.2z M77.7,32.3L58.4,67.1h-9.5L75,19.9
		v8.4C75,30.1,76.1,31.7,77.7,32.3z M73.3,17.8L46.1,67.1h-8.9l27.2-49.2H73.3z M61.6,17.8L34.4,67.1h-8.7l27.2-49.2H61.6z
		 M14.8,67.1L42,17.8h8.1L22.9,67.1H14.8z M76.3,135.9h-54V69.6h51.5l2.4-4.5V135.9z M76.4,59.8L76.4,59.8L76.4,59.8l-3.9,7.3H61.3
		l19.2-34.8c1.7-0.6,2.9-2.1,2.9-4v-1l0.5-0.9c2.9-5.3,4.6-8.6,4.6-8.6l0,0H99L76.4,59.8z M94.2,119H92v-16.3l2.3-2.3V119z
		 M100.3,113.9l-3.6,3.5v-23l-11.3,11.3v22.5l-6.7,6.6V60.5l5-9.2v11.3h2.5V46.7l6-11.1v11h2.5V31l5.6-10.5V113.9z"/>
</g>
<path id="Рука" class="st0" d="M13.9,109c-2.3,2.1-4.9,3-6.3,2.4c-1.4-0.6-1.7-2.8-1.7-4.5V95.5c-0.5,0-1.6-0.1-2.5-0.6v11.9
	c0,4.4,1.7,6.1,3.2,6.8c0.7,0.3,1.4,0.4,2.1,0.4c2.4,0,5-1.5,6.9-3.2c1.3-1.2,3.3-2.8,4.4-3.6v-3.1C19.4,104.5,16.2,106.9,13.9,109z
	"/>
<path id="Варюшка" class="st0" d="M5.8,95.5L5.8,95.5c0.1,0,0.2,0,0.3,0c0.1,0,0.1,0,0.2,0l0,0l0,0c2.4-0.1,5-1.1,6.5-2.4
	c1.7-1.4,1.6-2.8,1.4-3.5c-0.2-0.7-0.6-1.2-1.2-1.5c-0.6-0.3-1.4-0.4-2.1-0.4L10.8,87c-0.2-2.9-0.7-6-2.8-7.3
	c-1.2-0.7-2.6-0.6-4.3,0.1C1.3,81-0.1,83.5,0,86.9c0,3.1,1.3,6.9,3.3,8l0,0C4,95.3,5,95.4,5.8,95.5z M2.5,86.9
	c0-1.4,0.2-3.9,2.3-4.8c0.5-0.3,1-0.4,1.4-0.4c0.2,0,0.4,0,0.6,0.1c1.2,0.7,1.5,4,1.6,5.3L8.4,88c-0.4,0.1-0.6,0.2-0.8,0.2l-1.2,0.4
	L7.2,91l1.2-0.4c1.5-0.5,3.1-0.6,3.4-0.3c0.1,0.2-0.2,0.6-0.6,1c-1.5,1.3-4.8,2.3-6.6,1.5C3.8,92.4,2.5,89.8,2.5,86.9z"/>
</svg>
