<?xml version="1.0" encoding="utf-8"?>
<!-- Generator: Adobe Illustrator 22.1.0, SVG Export Plug-In . SVG Version: 6.00 Build 0)  -->
<svg version="1.1" id="_x31_" xmlns="http://www.w3.org/2000/svg" xmlns:xlink="http://www.w3.org/1999/xlink" x="0px" y="0px"
	 viewBox="0 0 645.3 682.8" style="enable-background:new 0 0 645.3 682.8;" xml:space="preserve">
<style type="text/css">
	.st0{fill:#1BC09B;}
</style>
<polygon id="_x3C_Группа_x3E__1_" class="st0" points="583.6,549.6 573.5,539.5 563.3,549.6 557.9,544.3 568.1,534.1 
	557.9,524 563.3,518.6 573.5,528.7 583.6,518.6 589,524 578.8,534.1 589,544.3 "/>
<ellipse id="_x3C_Группа_x3E_" class="st0" cx="182" cy="302.6" rx="16.1" ry="15.8"/>
<g>
	<path class="st0" d="M93.5,642.6c-2.5,0-4.5,2-4.5,4.5s2,4.5,4.5,4.5s4.5-2,4.5-4.5S96,642.6,93.5,642.6z"/>
	<path class="st0" d="M85.1,630.3c-2.5,0-4.5,2-4.5,4.5c0,2.5,2,4.5,4.5,4.5c2.5,0,4.5-2,4.5-4.5C89.6,632.3,87.6,630.3,85.1,630.3z
		"/>
	<path class="st0" d="M68.3,630.3c-2.5,0-4.5,2-4.5,4.5c0,2.5,2,4.5,4.5,4.5c2.5,0,4.5-2,4.5-4.5C72.8,632.3,70.8,630.3,68.3,630.3z
		"/>
	<path class="st0" d="M101.9,630.3c-2.5,0-4.5,2-4.5,4.5c0,2.5,2,4.5,4.5,4.5c2.5,0,4.5-2,4.5-4.5
		C106.4,632.3,104.4,630.3,101.9,630.3z"/>
	<path class="st0" d="M59.9,642.6c-2.5,0-4.5,2-4.5,4.5s2,4.5,4.5,4.5s4.5-2,4.5-4.5S62.4,642.6,59.9,642.6z"/>
	<path class="st0" d="M76.7,642.6c-2.5,0-4.5,2-4.5,4.5s2,4.5,4.5,4.5c2.5,0,4.5-2,4.5-4.5S79.2,642.6,76.7,642.6z"/>
	<path class="st0" d="M110.3,642.6c-2.5,0-4.5,2-4.5,4.5s2,4.5,4.5,4.5s4.5-2,4.5-4.5S112.8,642.6,110.3,642.6z"/>
	<path class="st0" d="M135.5,630.3c-2.5,0-4.5,2-4.5,4.5c0,2.5,2,4.5,4.5,4.5c2.5,0,4.5-2,4.5-4.5
		C140,632.3,137.9,630.3,135.5,630.3z"/>
	<path class="st0" d="M143.9,642.6c-2.5,0-4.5,2-4.5,4.5s2,4.5,4.5,4.5c2.5,0,4.5-2,4.5-4.5S146.3,642.6,143.9,642.6z"/>
	<path class="st0" d="M127.1,642.6c-2.5,0-4.5,2-4.5,4.5s2,4.5,4.5,4.5c2.5,0,4.5-2,4.5-4.5S129.6,642.6,127.1,642.6z"/>
	<path class="st0" d="M118.7,630.3c-2.5,0-4.5,2-4.5,4.5c0,2.5,2,4.5,4.5,4.5c2.5,0,4.5-2,4.5-4.5
		C123.2,632.3,121.2,630.3,118.7,630.3z"/>
	<path class="st0" d="M169.1,630.3c-2.5,0-4.5,2-4.5,4.5c0,2.5,2,4.5,4.5,4.5c2.5,0,4.5-2,4.5-4.5
		C173.5,632.3,171.5,630.3,169.1,630.3z"/>
	<path class="st0" d="M177.5,642.6c-2.5,0-4.5,2-4.5,4.5s2,4.5,4.5,4.5s4.5-2,4.5-4.5S179.9,642.6,177.5,642.6z"/>
	<path class="st0" d="M152.3,654.4c-2.5,0-4.5,2-4.5,4.5c0,2.5,2,4.5,4.5,4.5c2.5,0,4.5-2,4.5-4.5
		C156.7,656.4,154.7,654.4,152.3,654.4z"/>
	<path class="st0" d="M160.7,642.6c-2.5,0-4.5,2-4.5,4.5s2,4.5,4.5,4.5c2.5,0,4.5-2,4.5-4.5S163.1,642.6,160.7,642.6z"/>
	<path class="st0" d="M185.9,654.4c-2.5,0-4.5,2-4.5,4.5c0,2.5,2,4.5,4.5,4.5s4.5-2,4.5-4.5C190.3,656.4,188.3,654.4,185.9,654.4z"
		/>
	<path class="st0" d="M152.3,630.3c-2.5,0-4.5,2-4.5,4.5c0,2.5,2,4.5,4.5,4.5c2.5,0,4.5-2,4.5-4.5
		C156.7,632.3,154.7,630.3,152.3,630.3z"/>
	<path class="st0" d="M43.1,666.7c-2.5,0-4.5,2-4.5,4.5c0,2.5,2,4.5,4.5,4.5c2.5,0,4.5-2,4.5-4.5C47.6,668.7,45.6,666.7,43.1,666.7z
		"/>
	<path class="st0" d="M194.3,666.7c-2.5,0-4.5,2-4.5,4.5c0,2.5,2,4.5,4.5,4.5c2.5,0,4.5-2,4.5-4.5
		C198.7,668.7,196.7,666.7,194.3,666.7z"/>
	<path class="st0" d="M51.5,654.4c-2.5,0-4.5,2-4.5,4.5c0,2.5,2,4.5,4.5,4.5c2.5,0,4.5-2,4.5-4.5C56,656.4,54,654.4,51.5,654.4z"/>
	<path class="st0" d="M34.7,654.4c-2.5,0-4.5,2-4.5,4.5c0,2.5,2,4.5,4.5,4.5c2.5,0,4.5-2,4.5-4.5C39.2,656.4,37.2,654.4,34.7,654.4z
		"/>
	<path class="st0" d="M39.1,682.8c-0.3-2.1-2.2-3.8-4.4-3.8c-2.2,0-4.1,1.7-4.4,3.8H39.1z"/>
	<path class="st0" d="M185.9,679c-2.2,0-4.1,1.7-4.4,3.8h8.8C189.9,680.6,188.1,679,185.9,679z"/>
	<path class="st0" d="M59.9,666.7c-2.5,0-4.5,2-4.5,4.5c0,2.5,2,4.5,4.5,4.5s4.5-2,4.5-4.5C64.4,668.7,62.4,666.7,59.9,666.7z"/>
	<path class="st0" d="M135.5,654.4c-2.5,0-4.5,2-4.5,4.5c0,2.5,2,4.5,4.5,4.5c2.5,0,4.5-2,4.5-4.5
		C140,656.4,137.9,654.4,135.5,654.4z"/>
	<path class="st0" d="M152.3,679c-2.2,0-4.1,1.7-4.4,3.8h8.8C156.4,680.6,154.5,679,152.3,679z"/>
	<path class="st0" d="M143.9,666.7c-2.5,0-4.5,2-4.5,4.5c0,2.5,2,4.5,4.5,4.5c2.5,0,4.5-2,4.5-4.5
		C148.4,668.7,146.3,666.7,143.9,666.7z"/>
	<path class="st0" d="M160.7,666.7c-2.5,0-4.5,2-4.5,4.5c0,2.5,2,4.5,4.5,4.5c2.5,0,4.5-2,4.5-4.5
		C165.1,668.7,163.1,666.7,160.7,666.7z"/>
	<path class="st0" d="M127.1,666.7c-2.5,0-4.5,2-4.5,4.5c0,2.5,2,4.5,4.5,4.5c2.5,0,4.5-2,4.5-4.5
		C131.6,668.7,129.6,666.7,127.1,666.7z"/>
	<path class="st0" d="M135.5,679c-2.2,0-4.1,1.7-4.4,3.8h8.8C139.6,680.6,137.7,679,135.5,679z"/>
	<path class="st0" d="M118.7,679c-2.2,0-4.1,1.7-4.4,3.8h8.8C122.8,680.6,120.9,679,118.7,679z"/>
	<path class="st0" d="M110.3,666.7c-2.5,0-4.5,2-4.5,4.5c0,2.5,2,4.5,4.5,4.5s4.5-2,4.5-4.5C114.8,668.7,112.8,666.7,110.3,666.7z"
		/>
	<path class="st0" d="M68.3,679c-2.2,0-4.1,1.7-4.4,3.8h8.8C72.4,680.6,70.5,679,68.3,679z"/>
	<path class="st0" d="M85.1,679c-2.2,0-4.1,1.7-4.4,3.8h8.8C89.2,680.6,87.3,679,85.1,679z"/>
	<path class="st0" d="M101.9,679c-2.2,0-4.1,1.7-4.4,3.8h8.8C106,680.6,104.1,679,101.9,679z"/>
	<path class="st0" d="M118.7,654.4c-2.5,0-4.5,2-4.5,4.5c0,2.5,2,4.5,4.5,4.5c2.5,0,4.5-2,4.5-4.5
		C123.2,656.4,121.2,654.4,118.7,654.4z"/>
	<path class="st0" d="M169.1,679c-2.2,0-4.1,1.7-4.4,3.8h8.8C173.1,680.6,171.3,679,169.1,679z"/>
	<path class="st0" d="M143.9,618.5c-2.5,0-4.5,2-4.5,4.5c0,2.5,2,4.5,4.5,4.5c2.5,0,4.5-2,4.5-4.5
		C148.4,620.5,146.3,618.5,143.9,618.5z"/>
	<path class="st0" d="M51.5,679c-2.2,0-4.1,1.7-4.4,3.8h8.8C55.6,680.6,53.7,679,51.5,679z"/>
	<path class="st0" d="M177.5,666.7c-2.5,0-4.5,2-4.5,4.5c0,2.5,2,4.5,4.5,4.5s4.5-2,4.5-4.5C181.9,668.7,179.9,666.7,177.5,666.7z"
		/>
	<path class="st0" d="M169.1,654.4c-2.5,0-4.5,2-4.5,4.5c0,2.5,2,4.5,4.5,4.5c2.5,0,4.5-2,4.5-4.5
		C173.5,656.4,171.5,654.4,169.1,654.4z"/>
	<path class="st0" d="M101.9,654.4c-2.5,0-4.5,2-4.5,4.5c0,2.5,2,4.5,4.5,4.5c2.5,0,4.5-2,4.5-4.5
		C106.4,656.4,104.4,654.4,101.9,654.4z"/>
	<path class="st0" d="M68.3,654.4c-2.5,0-4.5,2-4.5,4.5c0,2.5,2,4.5,4.5,4.5c2.5,0,4.5-2,4.5-4.5C72.8,656.4,70.8,654.4,68.3,654.4z
		"/>
	<path class="st0" d="M93.5,666.7c-2.5,0-4.5,2-4.5,4.5c0,2.5,2,4.5,4.5,4.5s4.5-2,4.5-4.5C98,668.7,96,666.7,93.5,666.7z"/>
	<path class="st0" d="M85.1,654.4c-2.5,0-4.5,2-4.5,4.5c0,2.5,2,4.5,4.5,4.5c2.5,0,4.5-2,4.5-4.5C89.6,656.4,87.6,654.4,85.1,654.4z
		"/>
	<path class="st0" d="M76.7,666.7c-2.5,0-4.5,2-4.5,4.5c0,2.5,2,4.5,4.5,4.5c2.5,0,4.5-2,4.5-4.5C81.2,668.7,79.2,666.7,76.7,666.7z
		"/>
	<path class="st0" d="M135.5,590.5c1.6,0,2.9-0.8,3.7-2c-2.7-1.1-5.4-2-8.2-2.8c0,0.1,0,0.2,0,0.4C131,588.5,133,590.5,135.5,590.5z
		"/>
	<path class="st0" d="M93.5,603.4c2.5,0,4.5-2,4.5-4.5c0-2.5-2-4.5-4.5-4.5s-4.5,2-4.5,4.5C89,601.4,91,603.4,93.5,603.4z"/>
	<path class="st0" d="M135.5,606.2c-2.5,0-4.5,2-4.5,4.5s2,4.5,4.5,4.5c2.5,0,4.5-2,4.5-4.5S137.9,606.2,135.5,606.2z"/>
	<path class="st0" d="M101.9,590.5c2.5,0,4.5-2,4.5-4.5c0-2.5-2-4.5-4.5-4.5c-2.5,0-4.5,2-4.5,4.5
		C97.4,588.5,99.4,590.5,101.9,590.5z"/>
	<path class="st0" d="M68.3,590.5c2.5,0,4.5-2,4.5-4.5c0-0.1,0-0.3,0-0.4c-2.8,0.8-5.5,1.8-8.2,2.8
		C65.4,589.7,66.7,590.5,68.3,590.5z"/>
	<path class="st0" d="M76.7,603.4c2.5,0,4.5-2,4.5-4.5c0-2.5-2-4.5-4.5-4.5c-2.5,0-4.5,2-4.5,4.5C72.2,601.4,74.2,603.4,76.7,603.4z
		"/>
	<path class="st0" d="M160.7,603.4c1.1,0,2.2-0.4,3-1.1c-2.3-1.8-4.7-3.4-7.1-5c-0.2,0.5-0.3,1-0.3,1.6
		C156.2,601.4,158.2,603.4,160.7,603.4z"/>
	<path class="st0" d="M143.9,603.4c2.5,0,4.5-2,4.5-4.5c0-2.5-2-4.5-4.5-4.5c-2.5,0-4.5,2-4.5,4.5
		C139.4,601.4,141.4,603.4,143.9,603.4z"/>
	<path class="st0" d="M152.3,615.2c2.5,0,4.5-2,4.5-4.5s-2-4.5-4.5-4.5c-2.5,0-4.5,2-4.5,4.5S149.8,615.2,152.3,615.2z"/>
	<path class="st0" d="M127.1,603.4c2.5,0,4.5-2,4.5-4.5c0-2.5-2-4.5-4.5-4.5c-2.5,0-4.5,2-4.5,4.5
		C122.6,601.4,124.6,603.4,127.1,603.4z"/>
	<path class="st0" d="M118.7,590.5c2.5,0,4.5-2,4.5-4.5c0-1-0.3-1.8-0.8-2.6c-2.1-0.4-4.2-0.8-6.3-1c-1.1,0.8-1.9,2.1-1.9,3.6
		C114.2,588.5,116.2,590.5,118.7,590.5z"/>
	<path class="st0" d="M59.9,603.4c2.5,0,4.5-2,4.5-4.5c0-2.5-2-4.5-4.5-4.5s-4.5,2-4.5,4.5C55.4,601.4,57.4,603.4,59.9,603.4z"/>
	<path class="st0" d="M110.3,603.4c2.5,0,4.5-2,4.5-4.5c0-2.5-2-4.5-4.5-4.5s-4.5,2-4.5,4.5C105.8,601.4,107.8,603.4,110.3,603.4z"
		/>
	<path class="st0" d="M17.9,663.3c2.5,0,4.5-2,4.5-4.5c0-2.5-2-4.5-4.5-4.5c-2.5,0-4.5,2-4.5,4.5C13.4,661.3,15.4,663.3,17.9,663.3z
		"/>
	<path class="st0" d="M8.4,675.6c2.5,0,4.5-2,4.5-4.5c0-2.5-2-4.5-4.5-4.5c-2.5,0-4.5,2-4.5,4.5C3.9,673.6,5.9,675.6,8.4,675.6z"/>
	<path class="st0" d="M12.9,647.1c0-2.4-2-4.4-4.4-4.5c-1.1,2.6-2.1,5.2-3,7.8c0.8,0.7,1.8,1.1,2.9,1.1
		C10.9,651.6,12.9,649.6,12.9,647.1z"/>
	<path class="st0" d="M4.4,682.8c-0.3-2.1-2.1-3.7-4.3-3.8C0,680.3,0,681.5,0,682.8H4.4z"/>
	<path class="st0" d="M4.5,658.8c0-1-0.3-1.8-0.8-2.6c-0.6,2.1-1.1,4.3-1.6,6.5C3.5,662,4.5,660.6,4.5,658.8z"/>
	<path class="st0" d="M26.3,627.5c2.5,0,4.5-2,4.5-4.5c0-2.5-2-4.5-4.5-4.5c-2.5,0-4.5,2-4.5,4.5C21.8,625.5,23.8,627.5,26.3,627.5z
		"/>
	<path class="st0" d="M43.1,627.5c2.5,0,4.5-2,4.5-4.5c0-2.5-2-4.5-4.5-4.5c-2.5,0-4.5,2-4.5,4.5C38.6,625.5,40.6,627.5,43.1,627.5z
		"/>
	<path class="st0" d="M47.6,598.9c0-0.6-0.1-1.1-0.3-1.6c-2.4,1.6-4.8,3.2-7.1,5c0.8,0.7,1.8,1.1,3,1.1
		C45.6,603.4,47.6,601.4,47.6,598.9z"/>
	<path class="st0" d="M34.7,615.2c2.5,0,4.5-2,4.5-4.5c0-2.3-1.7-4.2-3.9-4.4c-1.7,1.5-3.4,3-5,4.6
		C30.3,613.3,32.3,615.2,34.7,615.2z"/>
	<path class="st0" d="M17.9,639.2c2.5,0,4.5-2,4.5-4.5c0-2.5-2-4.5-4.5-4.5c-2.5,0-4.5,2-4.5,4.5C13.4,637.2,15.4,639.2,17.9,639.2z
		"/>
	<path class="st0" d="M51.5,615.2c2.5,0,4.5-2,4.5-4.5s-2-4.5-4.5-4.5c-2.5,0-4.5,2-4.5,4.5S49,615.2,51.5,615.2z"/>
	<path class="st0" d="M85.1,590.5c2.5,0,4.5-2,4.5-4.5c0-1.5-0.7-2.8-1.9-3.6c-2.1,0.3-4.2,0.6-6.3,1c-0.5,0.7-0.8,1.6-0.8,2.6
		C80.6,588.5,82.6,590.5,85.1,590.5z"/>
	<path class="st0" d="M76.7,618.5c-2.5,0-4.5,2-4.5,4.5c0,2.5,2,4.5,4.5,4.5c2.5,0,4.5-2,4.5-4.5C81.2,620.5,79.2,618.5,76.7,618.5z
		"/>
	<path class="st0" d="M85.1,606.2c-2.5,0-4.5,2-4.5,4.5s2,4.5,4.5,4.5c2.5,0,4.5-2,4.5-4.5S87.6,606.2,85.1,606.2z"/>
	<path class="st0" d="M68.3,606.2c-2.5,0-4.5,2-4.5,4.5s2,4.5,4.5,4.5c2.5,0,4.5-2,4.5-4.5S70.8,606.2,68.3,606.2z"/>
	<path class="st0" d="M51.5,630.3c-2.5,0-4.5,2-4.5,4.5c0,2.5,2,4.5,4.5,4.5c2.5,0,4.5-2,4.5-4.5C56,632.3,54,630.3,51.5,630.3z"/>
	<path class="st0" d="M59.9,618.5c-2.5,0-4.5,2-4.5,4.5c0,2.5,2,4.5,4.5,4.5s4.5-2,4.5-4.5C64.4,620.5,62.4,618.5,59.9,618.5z"/>
	<path class="st0" d="M110.3,618.5c-2.5,0-4.5,2-4.5,4.5c0,2.5,2,4.5,4.5,4.5s4.5-2,4.5-4.5C114.8,620.5,112.8,618.5,110.3,618.5z"
		/>
	<path class="st0" d="M127.1,618.5c-2.5,0-4.5,2-4.5,4.5c0,2.5,2,4.5,4.5,4.5c2.5,0,4.5-2,4.5-4.5
		C131.6,620.5,129.6,618.5,127.1,618.5z"/>
	<path class="st0" d="M118.7,606.2c-2.5,0-4.5,2-4.5,4.5s2,4.5,4.5,4.5c2.5,0,4.5-2,4.5-4.5S121.2,606.2,118.7,606.2z"/>
	<path class="st0" d="M43.1,642.6c-2.5,0-4.5,2-4.5,4.5s2,4.5,4.5,4.5c2.5,0,4.5-2,4.5-4.5S45.6,642.6,43.1,642.6z"/>
	<path class="st0" d="M101.9,606.2c-2.5,0-4.5,2-4.5,4.5s2,4.5,4.5,4.5c2.5,0,4.5-2,4.5-4.5S104.4,606.2,101.9,606.2z"/>
	<path class="st0" d="M93.5,618.5c-2.5,0-4.5,2-4.5,4.5c0,2.5,2,4.5,4.5,4.5s4.5-2,4.5-4.5C98,620.5,96,618.5,93.5,618.5z"/>
	<path class="st0" d="M198.2,682.8h5.5c0-1.2,0-2.5-0.1-3.7c-0.3-0.1-0.7-0.1-1-0.1C200.4,679,198.6,680.6,198.2,682.8z"/>
	<path class="st0" d="M34.7,630.3c-2.5,0-4.5,2-4.5,4.5c0,2.5,2,4.5,4.5,4.5c2.5,0,4.5-2,4.5-4.5C39.2,632.3,37.2,630.3,34.7,630.3z
		"/>
	<path class="st0" d="M185.9,639.2c2.5,0,4.5-2,4.5-4.5c0-2.5-2-4.5-4.5-4.5s-4.5,2-4.5,4.5C181.4,637.2,183.4,639.2,185.9,639.2z"
		/>
	<path class="st0" d="M201.8,663.2c-0.5-2.7-1.2-5.3-1.9-7.9c-1,0.8-1.7,2.1-1.7,3.5C198.2,661,199.7,662.8,201.8,663.2z"/>
	<path class="st0" d="M169.1,615.2c2.4,0,4.4-1.9,4.5-4.3c-1.6-1.6-3.3-3.1-5-4.6c-2.2,0.3-3.9,2.1-3.9,4.4
		C164.6,613.2,166.6,615.2,169.1,615.2z"/>
	<path class="st0" d="M177.5,627.5c2.5,0,4.5-2,4.5-4.5c0-2.5-2-4.5-4.5-4.5s-4.5,2-4.5,4.5C173,625.5,175,627.5,177.5,627.5z"/>
	<path class="st0" d="M194.3,651.6c1.6,0,3-0.8,3.8-2c-0.8-2.3-1.7-4.5-2.6-6.8c-0.4-0.1-0.7-0.2-1.1-0.2c-2.5,0-4.5,2-4.5,4.5
		S191.8,651.6,194.3,651.6z"/>
	<path class="st0" d="M156.2,623c0,2.5,2,4.5,4.5,4.5c2.5,0,4.5-2,4.5-4.5c0-2.5-2-4.5-4.5-4.5C158.2,618.5,156.2,620.5,156.2,623z"
		/>
	<path class="st0" d="M26.3,675.6c2.5,0,4.5-2,4.5-4.5c0-2.5-2-4.5-4.5-4.5c-2.5,0-4.5,2-4.5,4.5C21.8,673.6,23.8,675.6,26.3,675.6z
		"/>
	<path class="st0" d="M26.3,642.6c-2.5,0-4.5,2-4.5,4.5s2,4.5,4.5,4.5c2.5,0,4.5-2,4.5-4.5S28.8,642.6,26.3,642.6z"/>
	<path class="st0" d="M17.9,679c-2.2,0-4.1,1.7-4.4,3.8h8.8C22,680.6,20.1,679,17.9,679z"/>
</g>
<path id="_x3C_Группа_x3E__2_" class="st0" d="M339.8,473.2l22.1,110.5l-7.9,1.6l-22.1-110.5L339.8,473.2z M645.3,208.9
	c-0.9,20.4-17,34.8-43,38.3c-25.9,3.6-38.8-3.3-48.3-8.3c-4.9-2.6-8.4-4.4-12.2-4.2c-4.6,0.2-8.4,4.1-12.7,8.6
	c-5.5,5.7-12.3,12.7-23,12.7c-0.8,0-1.7,0-2.5-0.1c-23.9-2.4-36.3-5.6-38.9-6.3c-4.3,4.8-8.4,10.2-12.2,16
	c-6.3,9.9-11.9,23.4-16.6,40c6.4,1.1,12.7,2.7,19,4.7c6.1,2,10.8,6.1,13,11.4c1.7,4.1,1.7,8.4-0.2,12c-0.1,0.3-0.3,0.6-0.5,0.8
	c14.1,14.2,20.7,36.4,19,64.4c-0.9,14.5-3.6,27-5.5,34l0.1,0l-0.4,4c-0.1,1-0.3,2-0.8,3l-29.2,137.4c-0.6,14.7-28.7,32.3-61.5,32.3
	c-31.3,0-57.8-14.8-58.2-32.4l-28.1-134.9c-1-1.9-1.5-3.8-1.5-5.8v-4h0.1c0-0.4,0-0.9,0-1.3l-0.1,0l1.6-7.9l0.2,0
	c3.5-13.3,15.6-53.5,42.2-80.2c-2.9-7.7-6-15.6-9.4-23.5l0,0.1l-4,0.4c-0.2,0-2.2,0.2-5.3,0.2c-3.6,0-8.7-0.3-14.1-1.5
	c-13.9-3.1-23.3-10.8-27-22.2c-0.9-2.8-1.7-5.4-2.5-8c-6.1-19.4-9.2-29.1-20.7-33.1c-3.1-1.1-6.6-1.9-10.3-2.8
	c-13.6-3.3-30.6-7.3-40.2-27.7c-2.7-5.7-4.9-11.3-6.9-16.2c-6.3-15.9-10.5-26.4-24.2-29.9c-14.4-3.7-39.4-16.9-49.2-38.2
	c-6.2-13.4-5.7-27.8,1.6-42.9c7.9-16.2,21.7-25.6,40-27.2c27.5-2.4,57.1,13.7,68.7,29.9c6.6,9.3,11,18.1,14.8,26
	c7.2,14.6,12.3,25.2,27.7,31.5c33.7,13.8,52.3,31.3,55.3,52.1c1.2,8.4,0.8,14.4,0.5,19.3c-0.6,8.5-0.9,12.8,7.8,22.2
	c7.6,8.3,14,22.9,11,36.8c-3,14.1-14.6,25.8-15.1,26.3l-0.8,0.8c3.1,7.2,6,14.5,8.7,21.6c1.4-1.2,2.9-2.4,4.4-3.5
	c0,0-0.1-0.1-0.1-0.1c-1.8-3.6-1.9-7.9-0.1-12c2.2-5.3,7-9.4,13-11.4c8.1-2.7,16.4-4.5,24.9-5.6c0.4-12.3,0.8-24,1.2-34.2l-0.7-0.3
	c-1-0.4-23.8-9.9-28.9-36.7c-4-21.2,0.3-36,6.2-47.3c0-0.1,0.1-0.1,0.1-0.2c2.8-5.2,5.9-9.7,8.7-13.8c4.5-6.5,8.4-12.1,8.8-17.7
	c0.4-5.8-0.8-13-2-20.5c-2.7-16.6-5.8-35.4,5.4-51c6.3-8.7,13.3-12.8,20.2-16.8c10.4-6,20.1-11.8,26.8-34.8
	c5.2-17.8,23.2-34.6,46.4-30.6c26,4.4,34,30.3,32.9,51.1c-1.4,26.8-14.5,37.5-26.1,47c-5.5,4.5-10.7,8.8-14.1,14.4
	c-4.4,7.2-2.5,12.3,0.3,19.9c3.1,8.3,6.9,18.6,2.1,34c-4.3,14-12.3,21.4-19.4,27.9c-7.6,7.1-14.2,13.2-15.5,26.8
	c-2.7,29.2-38.3,47.3-39.8,48.1l-3.3,1.6c-0.4,9.7-0.8,20.7-1.2,32.3c8.7-0.6,17.5-0.5,26.2,0.6c5-17.8,11-32.3,17.8-43.1
	c6-9.3,12.7-17.3,19.9-24.3l0.7-3.8c0.4-1.9,9.5-47.5,46.6-57.3c13-3.4,20.3-1.2,26.2,0.6c5.1,1.6,8.5,2.6,14.8-0.3
	c2.1-1,4.2-2,6.3-3c13.6-6.7,27.7-13.6,52.5-7.8C631.8,169.7,646.2,188.9,645.3,208.9z M388.6,257.5c0.8-1,2-1.7,3.4-1.7
	c1.3,0,2.5,0.6,3.3,1.5c0.1-1.2,0.1-2.5,0.2-3.6c0.4-8.9,1.2-17.5,2.3-25.9c-1.1-0.8-1.9-2-1.9-3.5c0-1.9,1.2-3.5,2.9-4.1
	c0.8-5.5,1.7-10.8,2.7-16c-0.4,0.1-0.7,0.2-1.1,0.2c-2.4,0-4.4-2-4.4-4.4c0-2.4,2-4.4,4.4-4.4c1,0,1.9,0.4,2.7,1
	c0.5-2.4,1-4.7,1.6-7c-0.2-0.5-0.4-1.1-0.4-1.7c0-1.4,0.6-2.5,1.6-3.3c1.4-5.6,2.9-11.1,4.5-16.4c-0.5,0.2-1.1,0.3-1.6,0.3
	c-2.4,0-4.4-2-4.4-4.4c0-2.4,2-4.4,4.4-4.4c1.6,0,2.9,0.8,3.6,2.1c0.7-2.1,1.4-4.2,2.1-6.3c-1.1-0.8-1.9-2-1.9-3.5
	c0-2.4,2-4.4,4.4-4.4c0.1,0,0.1,0,0.2,0c5.7-15.6,11.7-28.8,17.1-39.4c-2.3-0.2-4.1-2-4.1-4.4c0-2.4,2-4.4,4.4-4.4
	c1.4,0,2.6,0.7,3.4,1.7c1.1-1.9,2.1-3.8,3-5.4c-1.5-0.7-2.6-2.2-2.6-4c0-2.4,2-4.4,4.4-4.4c1,0,1.9,0.4,2.6,0.9
	c1.3-2,2.4-3.8,3.3-5.1c-1.2-0.8-2-2.1-2-3.6c0-2.4,2-4.4,4.4-4.4c1.7,0,3.2,1,3.9,2.5l4.9,3.6l-2.4,3.2
	c-0.2,0.3-7.4,10.2-16.6,28.1c0.6-0.3,1.2-0.4,1.8-0.4c2.4,0,4.4,2,4.4,4.4c0,2.4-2,4.4-4.4,4.4c-2.1,0-3.9-1.6-4.3-3.6
	c-1,2.1-2.1,4.3-3.1,6.5c2,0.4,3.5,2.1,3.5,4.2c0,2.4-2,4.4-4.4,4.4c-1,0-1.8-0.4-2.5-0.9c-0.9,2.2-1.9,4.5-2.9,6.8
	c0.3,0.6,0.4,1.2,0.4,1.8c0,1.8-1.1,3.4-2.7,4.1c-3.2,8.3-6.3,17.3-9.2,27c2.1,0.4,3.6,2.1,3.6,4.3c0,2.4-2,4.4-4.4,4.4
	c-0.6,0-1.1-0.1-1.6-0.3c-2.4,9-4.6,18.5-6.5,28.6c2.3,0.1,4.2,2,4.2,4.4c0,2.4-2,4.4-4.4,4.4c-0.4,0-0.8-0.1-1.2-0.2
	c-0.9,5.5-1.6,11.2-2.2,17c0.8-1.1,2-1.8,3.5-1.8c2.4,0,4.4,2,4.4,4.4c0,2.4-2,4.4-4.4,4.4c-1.7,0-3.2-1-3.9-2.5
	c-0.2,2.5-0.5,4.9-0.6,7.4c0.4,0.7,0.7,1.4,0.7,2.2c0,1-0.4,1.9-1,2.7c-0.1,1.1-0.2,2.2-0.2,3.3c-0.1,2.5-0.3,5.3-0.4,8.2
	c0.3-0.2,0.8-0.4,1.3-0.7c-0.1-0.4-0.3-0.9-0.3-1.3c0-2.4,2-4.4,4.4-4.4c1.2,0,2.2,0.5,3,1.2c2-1.4,4.1-3,6.3-4.8
	c-0.4,0.1-0.7,0.2-1.1,0.2c-2.4,0-4.4-2-4.4-4.4c0-2.4,2-4.4,4.4-4.4c2.4,0,4.4,2,4.4,4.4c0,0.6-0.1,1.1-0.3,1.6
	c6.2-5.6,12.3-12.9,15.2-21.3c-0.5,0.2-1,0.3-1.6,0.3c-2.4,0-4.4-2-4.4-4.4c0-2.4,2-4.4,4.4-4.4c1.3,0,2.4,0.5,3.2,1.4
	c0,0,0-0.1,0-0.1c0.2-2.4,0.6-4.6,1.1-6.6c-0.2-0.6-0.4-1.2-0.4-1.8c0-1.6,0.9-2.9,2.1-3.7c3.4-8.7,9.1-14.2,14.9-19.5
	c-0.2-0.5-0.4-1.1-0.4-1.7c0-2.4,2-4.4,4.4-4.4c0.7,0,1.3,0.2,1.9,0.5c1.4-1.4,2.8-2.9,4-4.6c-1.2-0.8-2.1-2.1-2.1-3.6
	c0-2.4,2-4.4,4.4-4.4c0.9,0,1.6,0.3,2.3,0.7c0.9-1.7,1.6-3.6,2.3-5.6c-0.4-0.7-0.8-1.5-0.8-2.3c0-1.8,1-3.3,2.5-4
	c1.3-6.4,0.7-11.5-0.5-16.2c-1.2-0.8-2-2.1-2-3.6c0-0.6,0.1-1.2,0.4-1.7c-0.3-0.9-0.6-1.8-1-2.6c-0.5-1.3-0.9-2.5-1.4-3.8
	c-0.6,0.3-1.2,0.5-1.9,0.5c-2.4,0-4.4-2-4.4-4.4c0-2.4,2-4.4,4.4-4.4c-0.4-4.5,0.4-9.3,3.7-14.7c4.1-6.8,10.1-11.7,15.9-16.5
	c0.3-0.3,0.6-0.5,0.9-0.8c0-0.1,0-0.1,0-0.1c0-2.4,2-4.4,4.4-4.4c0.3,0,0.5,0.1,0.8,0.2c1.6-1.4,3.2-3,4.7-4.6c-1-0.8-1.6-2-1.6-3.4
	c0-2.4,2-4.4,4.4-4.4c1,0,1.8,0.4,2.5,0.9c1-1.5,1.8-3.2,2.6-4.9c-0.8-0.8-1.3-1.9-1.3-3.1c0-2.3,1.7-4.1,3.9-4.3
	c0.9-3.6,1.5-7.6,1.8-12.2c0.1-1.1,0-2.1,0.1-3.1c-0.4,0.1-0.9,0.3-1.3,0.3c-2.4,0-4.4-2-4.4-4.4c0-2.4,2-4.4,4.4-4.4
	c0.3,0,0.6,0.1,0.9,0.2c-2.1-17.7-11.7-27-21.9-30.3c-0.7,1.4-2.2,2.4-3.9,2.4c-2.2,0-4-1.7-4.3-3.8c-0.3,0-0.6,0-0.9,0
	c-2.4,0-4.9,0.3-7.3,0.8c-0.6,1.7-2.2,3-4.1,3c-0.9,0-1.6-0.3-2.3-0.8c-2.7,1.3-5.3,2.9-7.7,5c0.5-0.2,1.1-0.3,1.7-0.3
	c2.4,0,4.4,2,4.4,4.4s-2,4.4-4.4,4.4c-2.4,0-4.4-2-4.4-4.4c0-0.7,0.2-1.4,0.5-2c-2.6,2.7-4.9,6-6.6,9.9c0.7-0.4,1.4-0.7,2.2-0.7
	c2.4,0,4.4,2,4.4,4.4c0,2.4-2,4.4-4.4,4.4c-1.9,0-3.5-1.3-4.1-3c0,0.1,0,0.1-0.1,0.2c-0.7,2.4-1.4,4.6-2.2,6.6
	c1.5,0.7,2.5,2.2,2.5,3.9c0,2.4-2,4.4-4.4,4.4c-0.5,0-1-0.1-1.5-0.3c-1,2-2,3.8-3,5.4c0.3,0.6,0.6,1.3,0.6,2.1c0,2.4-2,4.4-4.4,4.4
	c-0.3,0-0.6-0.1-0.9-0.2c-1.7,1.9-3.4,3.6-5.2,5.1c0.7,0.8,1.1,1.7,1.1,2.8c0,2.4-2,4.4-4.4,4.4c-1.6,0-3-0.9-3.7-2.2
	c-1.7,1-3.3,2-5,3c-6.4,3.7-12.4,7.2-17.7,14.6c-5.2,7.3-6.6,15.7-6.4,24.5c2.3,0.2,4,2,4,4.3c0,2.1-1.5,3.7-3.4,4.2
	c0.5,4,1.1,7.9,1.8,11.9c0.9,5.8,1.8,11.4,2.1,16.5c0.8-1,2-1.7,3.4-1.7c2.4,0,4.4,2,4.4,4.4c0,2.4-2,4.4-4.4,4.4
	c-1.4,0-2.6-0.7-3.4-1.7c0,0.1,0,0.3,0,0.4c-0.2,2.2-0.7,4.4-1.4,6.5c0.5,0.7,0.9,1.6,0.9,2.6c0,2.4-1.9,4.3-4.2,4.4
	c-1.3,2.2-2.7,4.3-4.2,6.5c0,0.2,0.1,0.5,0.1,0.7c0,2.1-1.5,3.8-3.6,4.2c-1.6,2.4-3.3,4.9-4.8,7.6c0,0.1,0.1,0.2,0.1,0.3
	c0,1.6-0.9,3-2.3,3.8c-2.6,5.3-4.7,11.2-5.5,18.3c0.8-1,2-1.7,3.4-1.7c2.4,0,4.4,2,4.4,4.4c0,2.4-2,4.4-4.4,4.4
	c-1.6,0-3-0.9-3.7-2.2c-0.2,5.1,0.2,10.7,1.4,17.1c0,0.3,0.1,0.5,0.2,0.7c0.7-0.4,1.4-0.7,2.2-0.7c2.4,0,4.4,2,4.4,4.4
	c0,2.3-1.8,4.2-4.1,4.4c1.1,2.5,2.3,4.8,3.7,6.8c0.2-2.2,2.1-3.9,4.3-3.9c2.4,0,4.4,2,4.4,4.4c0,2.4-2,4.4-4.4,4.4
	c-0.2,0-0.4-0.1-0.6-0.1C384.9,254.4,386.8,256.1,388.6,257.5z M362.9,330.1c1.5,3.1,5,4.9,9.2,4.9c1.4,0,2.9-0.2,4.2-0.7
	c5.3-1.7,10.8-3,16.3-4c0.2-5.9,0.4-11.7,0.5-17.6c-7.5,1.1-14.9,2.7-22.1,5.1c-3.8,1.2-6.8,3.8-8.1,6.9
	C362.2,326.7,362.2,328.6,362.9,330.1z M354.4,345.4c5.7,15.7,10.2,30.3,13.5,41.7c7.5-2.8,15.3-4.3,23.3-4.4
	c0.3-12.4,0.8-27.9,1.2-44.1c-4.6,0.8-9.1,1.9-13.6,3.4c-2.2,0.7-4.5,1.1-6.7,1.1c-4.1,0-7.9-1.2-10.9-3.3
	C358.8,341.6,356.6,343.4,354.4,345.4z M413.7,393.8c-2.8-0.8-5.8-1.5-9-2c0,2.4-2,4.4-4.4,4.4c-0.5,0-0.9-0.1-1.4-0.3
	c-0.2,9-0.4,14.5-0.4,14.7l0,1.4c0.5-0.2,1.1-0.4,1.8-0.4c2.4,0,4.4,2,4.4,4.4c0,2.4-2,4.4-4.4,4.4c-2.4,0-4.4-2-4.4-4.4
	c0-0.5,0.1-1,0.3-1.5l-5.8-0.1l0.1-4c0-0.1,0-0.7,0-1.8c-1.7-0.6-3-2.2-3-4.1c0-2,1.3-3.6,3.2-4.2c0.1-2.7,0.2-5.9,0.2-9.5
	c-1,0-2,0.1-3,0.1c0.1,0.3,0.2,0.5,0.2,0.8c0,2.4-2,4.4-4.4,4.4c-2.3,0-4.2-1.8-4.4-4.1c-3.2,0.7-6.3,1.6-9.2,2.7
	c0.7,2.6,1.3,4.9,1.9,6.9c0.8-1,2-1.7,3.4-1.7c2.4,0,4.4,2,4.4,4.4c0,2.4-2,4.4-4.4,4.4c-0.6,0-1.2-0.1-1.7-0.3
	c0.4,1.5,0.6,2.3,0.6,2.4l0.9,3.9l-3.8,0.9c0,0.1,0.1,0.2,0.1,0.3c0,2.4-2,4.4-4.4,4.4c-2.4,0-4.4-2-4.4-4.4c0-2.1,1.5-3.8,3.5-4.2
	c-0.5-1.9-1.7-6.7-3.6-13.6c-1.1,0.6-2.2,1.2-3.3,1.9c2.2,0.3,3.9,2.1,3.9,4.3c0,2.4-2,4.4-4.4,4.4c-2.4,0-4.4-2-4.4-4.4
	c0-0.4,0.1-0.8,0.2-1.2c-1.1,0.8-2.1,1.6-3.2,2.4l0,0.1l-0.2,0c-17.6,13.9-28.2,33.6-31.9,41.3c1,0.6,2.1,1.1,3.2,1.6
	c0.8-0.7,1.8-1.2,3-1.2c2.4,0,4.3,1.9,4.4,4.2c2.6,0.9,5.5,1.8,8.6,2.7c-0.5-0.7-0.8-1.5-0.8-2.4c0-2.4,2-4.4,4.4-4.4s4.4,2,4.4,4.4
	c0,1.7-1,3.1-2.4,3.9c10.4,2.4,22.7,4,36.5,4.5c0.8-0.7,1.8-1.1,2.9-1.1c1.2,0,2.3,0.5,3,1.2c0.4,0,0.8,0,1.3,0
	c3.2,0,6.4-0.1,9.5-0.2c0.8-0.6,1.7-1,2.8-1c0.9,0,1.6,0.3,2.3,0.8c13.8-1,26.1-3.2,36.3-6c-0.3-0.6-0.5-1.2-0.5-1.9
	c0-2.4,2-4.4,4.4-4.4c2.2,0,4,1.7,4.3,3.8c4.4-1.5,8.3-3.1,11.7-4.6c-0.8-4.3-5.5-25.8-23-40.9l-0.8-0.2l0.1-0.4
	c-3.9-3.3-8.4-6.2-13.6-8.6c-0.1,2.1-0.3,4.1-0.4,5.8c0.7-1.5,2.2-2.6,4-2.6c2.4,0,4.4,2,4.4,4.4c0,2.4-2,4.4-4.4,4.4
	c-2,0-3.6-1.3-4.1-3.1c-0.2,4.6-0.3,7.3-0.3,7.4l0,0.7c0.3,0.6,0.6,1.3,0.6,2.1c0,2.4-2,4.4-4.4,4.4c-2.1,0-3.7-1.5-4.2-3.4l-0.1,0
	l0-0.4c0-0.2-0.1-0.4-0.1-0.6c0-0.3,0.1-0.5,0.1-0.7l0.1-2.3C412.7,412.9,412.8,405.5,413.7,393.8z M472.2,433.3
	c-0.4-10.1-7.6-17.8-21.7-23.2c9.9,12.7,14.1,26.4,15.6,32.7c1.7-1.1,3.1-2.2,4.1-3.2l1.1-3.2C471.4,436.3,471.7,435.2,472.2,433.3z
	 M312.7,442.6c2.9-5.9,8.7-16.5,17.5-27.2c1.3-1.6,2.7-3.2,4.1-4.7c-17.6,6.5-26.9,15.8-24.7,25.5l0.7,3.6
	C310.9,440.7,311.6,441.6,312.7,442.6z M414.3,385.6c1.1-13.5,3-30.7,6.2-48.4c-6.7-0.6-13.3-0.4-20,0.3
	c-0.5,16.7-0.9,32.8-1.3,45.6C404.7,383.5,409.7,384.4,414.3,385.6z M332.2,312.1c-1.2-2.8-2.5-5.5-3.8-8.2
	c-20.2-41.8-47.7-76.7-73.1-103.3c-0.3,2.1-2.1,3.8-4.3,3.8c-2.4,0-4.4-2-4.4-4.4c0-2.3,1.8-4.1,4-4.3c-1.6-1.6-3.1-3.2-4.7-4.7
	c-0.8,0.8-1.9,1.3-3.1,1.3c-2.4,0-4.4-2-4.4-4.4c0-1.2,0.5-2.3,1.2-3.1c-1.7-1.6-3.3-3.2-5-4.7c0,0-0.1,0-0.1,0
	c-2.3,0-4.2-1.8-4.4-4.2c-9.9-9-18.9-16.4-26-22c-0.7,1.4-2.2,2.4-3.9,2.4c-2.4,0-4.4-2-4.4-4.4c0-1.3,0.6-2.4,1.5-3.2
	c-2.1-1.5-3.9-2.9-5.4-3.9c-1.9,0-3.5-1.2-4.1-2.9c-0.8-0.6-1.3-0.9-1.3-0.9l-3.4-2.2l4.4-6.7l3.4,2.2c0.3,0.2,8.8,5.8,21.8,16.3
	c0.6-1.7,2.2-3,4.1-3c2.4,0,4.4,2,4.4,4.4c0,1.6-0.9,3-2.2,3.7c1.6,1.3,3.3,2.8,5,4.2c0.3-0.1,0.7-0.2,1-0.2c2.4,0,4.4,2,4.4,4.4
	c0,0.2-0.1,0.3-0.1,0.5c7.9,7,16.6,15.1,25.7,24.3c-0.1-0.3-0.2-0.6-0.2-1c0-2.4,2-4.4,4.4-4.4c2.4,0,4.4,2,4.4,4.4
	c0,2.4-2,4.4-4.4,4.4c-0.4,0-0.7-0.1-1.1-0.2c1.8,1.9,3.7,3.8,5.6,5.8c0.8-1.3,2.1-2.3,3.8-2.3c2.4,0,4.4,2,4.4,4.4
	c0,1.8-1.1,3.3-2.6,4c1.5,1.6,2.9,3.2,4.4,4.9c0.6-0.3,1.3-0.6,2.1-0.6c2.4,0,4.4,2,4.4,4.4c0,1-0.4,1.8-0.9,2.6
	c1.3,1.6,2.7,3.2,4,4.8c0.3-0.1,0.5-0.2,0.8-0.2c2.4,0,4.4,2,4.4,4.4c0,0.6-0.1,1.2-0.4,1.7c1.6,2,3.2,4.1,4.8,6.1
	c2.1,0.3,3.8,2.1,3.8,4.3c0,0.2-0.1,0.4-0.1,0.6c1.7,2.2,3.3,4.5,5,6.8c1.9,0.5,3.4,2.1,3.4,4.2c0,0.2-0.1,0.3-0.1,0.5
	c1.7,2.5,3.4,5,5.1,7.5c1.9,0.5,3.2,2.2,3.2,4.2c0,0.2-0.1,0.4-0.1,0.6c1.4,2.2,2.8,4.4,4.2,6.6c2.4,0.1,4.2,2,4.2,4.4
	c0,0.7-0.2,1.3-0.4,1.9c1.2,2,2.3,4,3.5,6c0.3-0.1,0.5-0.2,0.8-0.2c2.4,0,4.4,2,4.4,4.4c0,1.2-0.5,2.3-1.2,3c1,1.8,1.9,3.6,2.9,5.4
	c0.7-0.4,1.4-0.7,2.3-0.7c2.4,0,4.4,2,4.4,4.4c0,1.9-1.1,3.4-2.8,4.1c0,0.1,0.1,0.1,0.1,0.2c1,2,1.9,4.1,2.9,6.1
	c0.7-1.1,1.8-1.8,3.2-2c1.5-1.9,3.1-4.2,4.6-6.9c-0.2-0.5-0.3-0.9-0.3-1.5c0-1.9,1.3-3.5,3-4.1c0.7-1.7,1.2-3.4,1.6-5.1
	c0.8-3.5,0.7-7.1,0-10.7c-0.1,0-0.2,0.1-0.3,0.1c-2.4,0-4.4-2-4.4-4.4c0-1.6,0.9-3,2.3-3.8c-0.8-1.9-1.7-3.6-2.6-5.2
	c-0.8,1.1-2,1.8-3.5,1.8c-2.4,0-4.4-2-4.4-4.4c0-1.9,1.2-3.5,2.8-4.1c-1.5-1.7-2.7-3.3-3.8-4.8c-0.8,0.7-1.8,1.1-2.9,1.1
	c-2.4,0-4.4-2-4.4-4.4c0-2.1,1.4-3.7,3.4-4.2c-1.8-5.1-1.5-9.7-1.1-14.8c0-0.3,0-0.6,0.1-1c-1.4-0.8-2.3-2.1-2.3-3.8
	c0-1.8,1.1-3.3,2.6-4c0-2.6-0.2-5.5-0.7-8.8c-2.1-14.1-13.4-25.2-26.8-33.8c-0.8,1.4-2.2,2.3-3.8,2.3c-2.4,0-4.4-2-4.4-4.4
	c0-0.9,0.3-1.6,0.8-2.3c-5.4-2.9-10.9-5.5-16.2-7.6c-0.3-0.1-0.6-0.3-0.9-0.4c-0.6,1.8-2.2,3.1-4.2,3.1c-2.4,0-4.4-2-4.4-4.4
	c0-1,0.4-2,1-2.7c-11.3-7.2-16.8-17.4-22.4-29c-2-0.5-3.5-2.1-3.5-4.2c0-0.7,0.2-1.3,0.4-1.9c-0.9-1.9-1.9-3.7-2.9-5.6
	c-0.5,0.2-0.9,0.3-1.5,0.3c-2.4,0-4.4-2-4.4-4.4c0-1.4,0.7-2.5,1.6-3.4c-1.1-1.8-2.3-3.6-3.5-5.5c-0.6,0.3-1.3,0.5-2,0.5
	c-2.4,0-4.4-2-4.4-4.4c0-1.1,0.4-2,1.1-2.8c-1.7-1.7-3.5-3.4-5.6-5c-0.2,0-0.3,0.1-0.5,0.1c-2.2,0-3.9-1.6-4.3-3.6
	c-5.4-3.6-11.7-6.8-18.4-9.2c-0.7,0.4-1.4,0.7-2.2,0.7c-1.8,0-3.4-1.1-4-2.7c-2.7-0.7-5.4-1.3-8.1-1.7c0,2.4-2,4.4-4.4,4.4
	c-2.4,0-4.4-2-4.4-4.4c0-0.2,0.1-0.5,0.1-0.7c-2,0-3.9,0-5.8,0.2c-0.7,0.1-1.4,0.1-2.1,0.2c0,0.1,0.1,0.2,0.1,0.3
	c0,2.4-2,4.4-4.4,4.4c-1.9,0-3.5-1.2-4.1-2.8c-8.4,2.8-17.1,8.7-22.9,20.5c-6.2,12.7-6.7,24.8-1.5,36c0,0.1,0.1,0.1,0.1,0.2
	c0.8-1.1,2-1.9,3.5-1.9c2.4,0,4.4,2,4.4,4.4c0,2.3-1.7,4.1-3.9,4.3c1.2,1.8,2.6,3.5,4.1,5.1c0.8-1.3,2.1-2.2,3.7-2.2
	c2.4,0,4.4,2,4.4,4.4c0,1.6-0.9,2.9-2.1,3.7c9.8,8.3,21.6,13.7,29.6,15.8c10.8,2.8,17.1,9.2,21.9,17.4c-0.1-0.3-0.2-0.6-0.2-0.9
	c0-2.4,2-4.4,4.4-4.4c2.4,0,4.4,2,4.4,4.4c0,2.4-2,4.4-4.4,4.4c-1.2,0-2.2-0.5-3-1.2c2.4,4.6,4.4,9.7,6.6,15c2,5,4.1,10.2,6.7,15.7
	c8,16.9,21.6,20.1,34.8,23.3c3.4,0.8,6.6,1.6,9.7,2.6c0.2-2.3,2-4,4.3-4c2.4,0,4.4,2,4.4,4.4c0,1.2-0.5,2.2-1.2,3
	c2.2,1.4,4.2,3,5.9,4.9c2,0.4,3.6,2.1,3.6,4.3c0,0.2-0.1,0.3-0.1,0.4c1.3,2.1,2.5,4.3,3.6,6.8c0.1,0,0.3-0.1,0.4-0.1
	c2.4,0,4.4,2,4.4,4.4c0,1.4-0.7,2.7-1.8,3.5c0.7,2,1.4,4.1,2.1,6.3c0.8-1.2,2.1-2,3.6-2c2.4,0,4.4,2,4.4,4.4c0,2.4-2,4.4-4.4,4.4
	c-0.5,0-1.1-0.1-1.5-0.3c0.6,2,1.3,4,2,6.2c2.2,6.6,6.7,10.9,11.9,13.6c0.5-1.9,2.1-3.4,4.2-3.4c2.4,0,4.4,2,4.4,4.4
	c0,0.7-0.2,1.4-0.5,2c3.6,0.9,7.1,1.3,10,1.5c-1.1-0.8-1.8-2-1.8-3.4c0-2.4,2-4.4,4.4-4.4s4.4,2,4.4,4.4c0,1.5-0.8,2.7-1.9,3.5
	c1.5,0,2.5-0.1,2.6-0.1L332.2,312.1z M348.1,351.6c-17.2,18.6-27.7,43.3-33.3,59.9c7.5-5.2,17.9-9.6,30.9-12.6l1.9-0.4
	c4.2-3.2,8.5-5.8,12.9-8.1C357.4,379.8,353.2,366.3,348.1,351.6z M442.4,576.9l0.1-0.5c-2.2-0.2-4-2-4-4.3c0-2.4,2-4.4,4.4-4.4
	c0.5,0,0.9,0.1,1.3,0.3l5.9-27.6c-1.9-0.5-3.3-2.1-3.3-4.2c0-2.4,2-4.4,4.4-4.4c0.3,0,0.5,0.1,0.7,0.1l5.8-27.1
	c-1.5-0.7-2.6-2.2-2.6-4c0-2.4,2-4.4,4.4-4.4l3.9-18.5c-0.7,1.5-2.2,2.5-3.9,2.5c-2.4,0-4.4-2-4.4-4.4c0-2.4,2-4.4,4.4-4.4
	c2.4,0,4.3,1.9,4.4,4.2l1.7-8.2c-1.3-0.8-2.3-2.1-2.3-3.8c0-2.3,1.8-4.1,4-4.3l1.9-8.8c-1.7,1.1-3.6,2.1-5.6,3.1
	c-0.7,1.6-2.2,2.8-4.1,2.8c-0.5,0-1-0.1-1.4-0.3c-5.7,2.4-12.2,4.5-19.3,6.3c0.1,0.4,0.2,0.8,0.2,1.2c0,2.4-2,4.4-4.4,4.4
	c-2.2,0-3.9-1.6-4.3-3.7c-3.2,0.6-6.5,1.2-9.8,1.7c-0.8,1.2-2.1,2-3.6,2c-1.1,0-2.1-0.4-2.8-1.1c-8.4,1-17.2,1.6-26,1.6
	c-31.7,0-59.5-6.3-74.7-15.6l-0.4-0.1l25.7,123.7v0.4c0,11.4,21.9,24.7,50.2,24.7c5.8,0,11.3-0.6,16.5-1.6c-0.8-0.8-1.3-1.9-1.3-3.1
	c0-2.4,2-4.4,4.4-4.4c2.4,0,4.4,2,4.4,4.4c0,0.4-0.1,0.8-0.2,1.2c3-0.9,5.8-1.9,8.4-3c0.7-1.6,2.2-2.6,4-2.6c0.4,0,0.8,0.1,1.1,0.2
	c2.7-1.4,5.1-2.8,7.1-4.3c-1.9-0.5-3.3-2.2-3.3-4.2c0-2.4,2-4.4,4.4-4.4c2.2,0,4,1.7,4.3,3.8C441.1,581.1,442.4,578.8,442.4,576.9z
	 M461.5,340.3c-2.9,1.8-6.5,2.8-10.3,2.8c-2.3,0-4.5-0.4-6.7-1.1c-5.2-1.7-10.6-3-16-3.9c-3.3,18.5-5.2,36.4-6.3,50.1
	c6.5,2.7,12.2,6.2,17,10.1l1.7,0.4c19.2,4.6,29.5,11.9,34.8,19.6C479.6,396.9,482.1,361.1,461.5,340.3z M452.3,317.9
	c-16.4-5.4-33.8-7.4-51-6c-0.2,5.8-0.4,11.6-0.5,17.4c3.6-0.4,7.3-0.6,10.9-0.6c12,0,23.9,1.9,35.3,5.6c1.4,0.4,2.8,0.7,4.2,0.7
	c4.2,0,7.7-1.9,9.2-4.9c0.8-1.5,0.7-3.4-0.1-5.3C459.1,321.7,456.1,319.2,452.3,317.9z M631.4,224.5c0-0.1-0.1-0.2-0.1-0.3
	c0-1.9,1.2-3.5,2.8-4.1c1.8-3.5,2.8-7.4,3-11.6c0.1-1.5,0-3-0.1-4.5c-0.4,0.1-0.8,0.3-1.3,0.3c-2.4,0-4.4-2-4.4-4.4
	c0-2.2,1.7-4,3.8-4.3c-1.1-3.1-2.6-6-4.5-8.7c0.1,0.3,0.2,0.5,0.2,0.8c0,2.4-2,4.4-4.4,4.4c-2.4,0-4.4-2-4.4-4.4
	c0-2.4,2-4.4,4.4-4.4c0.6,0,1.2,0.1,1.7,0.3c-1.9-2.1-4.1-4-6.4-5.7c-0.8,1.2-2.1,2-3.6,2c-2.4,0-4.4-2-4.4-4.4c0-0.5,0.1-1,0.3-1.5
	c-1.1-0.4-2.1-0.7-3.2-1c-2.5-0.6-4.8-1-7-1.3c1.3,0.8,2.2,2.1,2.2,3.7c0,2.4-2,4.4-4.4,4.4c-2.4,0-4.4-2-4.4-4.4c0-2,1.3-3.6,3-4.1
	c-4.8-0.4-9.1-0.2-13,0.4c1.3,0.8,2.2,2.1,2.2,3.7c0,2.4-2,4.4-4.4,4.4c-2.4,0-4.4-2-4.4-4.4c0-1,0.4-1.8,0.9-2.5
	c-3.1,0.8-5.9,1.9-8.7,3.1c-0.3,2.2-2.1,3.9-4.3,3.9c-0.9,0-1.7-0.3-2.4-0.8c-0.8,0.4-1.6,0.8-2.4,1.2c-2.1,1-4.3,2.1-6.4,3.1
	c-3.7,1.7-6.8,2.4-9.6,2.5c0.2,0.5,0.4,1.1,0.4,1.8c0,2.4-2,4.4-4.4,4.4c-2.4,0-4.4-2-4.4-4.4c0-1,0.4-1.9,1-2.6
	c-1.2-0.3-2.3-0.6-3.4-1c-5.4-1.6-11-3.3-21.8-0.5c-0.9,0.2-1.8,0.5-2.7,0.8c0.9,0.8,1.5,2,1.5,3.3c0,2.4-2,4.4-4.4,4.4
	c-2.4,0-4.4-2-4.4-4.4c-17.2,9.7-25.5,29.4-28.8,40c1.3-1,2.6-2,4-3c0-0.2-0.1-0.3-0.1-0.5c0-2.4,2-4.4,4.4-4.4c0.7,0,1.4,0.2,2,0.5
	c1.8-1.2,3.7-2.3,5.5-3.4c-2-0.4-3.6-2.1-3.6-4.3c0-2.4,2-4.4,4.4-4.4c2.4,0,4.4,2,4.4,4.4c0,0.5-0.1,0.9-0.3,1.4
	c3.5-1.9,7-3.7,10.4-5.2c0.2-0.1,0.4-0.2,0.6-0.3c3.5-1.6,6.9-3,10.2-4.3c-0.2,0-0.3,0.1-0.5,0.1c-2.4,0-4.4-2-4.4-4.4
	c0-2.4,2-4.4,4.4-4.4s4.4,2,4.4,4.4c0,1.5-0.8,2.8-1.9,3.6c3.7-1.4,7.3-2.5,10.8-3.6c0,0,0,0,0,0c0-2.4,2-4.4,4.4-4.4
	c1.6,0,3,0.9,3.7,2.2c15.1-3.7,25.7-4.3,26.9-4.4l4-0.2l0.1,2.7c1.6,0.6,2.8,2.2,2.8,4.1c0,2.4-2,4.4-4.4,4.4
	c-1.9,0-3.5-1.2-4.1-2.8c-1.9,0.2-5,0.5-9.2,1.2c-0.8,1-2,1.6-3.3,1.6c-0.8,0-1.5-0.3-2.1-0.6c-5.8,1.1-12.7,2.8-20.3,5.3
	c1.2,0.8,2,2.1,2,3.6c0,2.4-2,4.4-4.4,4.4c-2.4,0-4.4-2-4.4-4.4c0-0.5,0.1-0.9,0.3-1.3c-3.3,1.2-6.7,2.6-10.2,4.2
	c-0.8,1-2,1.6-3.3,1.6c0,0-0.1,0-0.1,0c-2.1,1-4.2,2.1-6.4,3.2c1.5,0.7,2.6,2.2,2.6,4c0,2.4-2,4.4-4.4,4.4c-2.4,0-4.4-2-4.4-4.4
	c0-0.2,0.1-0.4,0.1-0.6c-5.6,3.3-11.1,7-16.4,11.3c0.2,0.5,0.3,0.9,0.3,1.5c0,2.4-2,4.4-4.4,4.4c-0.8,0-1.5-0.2-2.1-0.6
	c-0.9,0.9-1.9,1.7-2.8,2.6c2.4,0.5,5.8,1.2,10.2,2c0.8-0.7,1.8-1.2,3-1.2c1.7,0,3,0.9,3.8,2.3c2.6,0.4,5.5,0.8,8.6,1.1
	c0.5-1.9,2.1-3.4,4.2-3.4c2.4,0,4.3,1.9,4.4,4.3c7.5,0.3,12.4-4.5,17.5-9.7c-0.2-0.5-0.4-1.1-0.4-1.7c0-2.4,2-4.4,4.4-4.4
	c0.7,0,1.3,0.2,1.8,0.4c1.8-1.5,3.7-2.9,5.7-3.9c-2.1-0.4-3.7-2.1-3.7-4.3c0-2.4,2-4.4,4.4-4.4c2.4,0,4.4,2,4.4,4.4
	c0,1.1-0.4,2-1.1,2.8c0.9-0.2,1.9-0.3,2.9-0.4c2.9-0.1,5.6,0.4,8.1,1.3c-1.3-0.8-2.2-2.1-2.2-3.7c0-2.4,2-4.4,4.4-4.4
	c2.4,0,4.4,2,4.4,4.4c0,2.4-2,4.4-4.4,4.4c-0.3,0-0.6-0.1-0.9-0.2c2.3,0.9,4.6,2.1,6.9,3.4c0.3,0.1,0.6,0.3,0.8,0.4
	c0.5-0.2,0.9-0.3,1.4-0.3c2,0,3.6,1.3,4.2,3.1c2.5,1.1,5.2,2.2,8.4,3.1c-0.2-0.5-0.3-1.1-0.3-1.7c0-2.4,2-4.4,4.4-4.4
	c2.4,0,4.4,2,4.4,4.4c0,1.3-0.5,2.4-1.4,3.2c3.3,0.5,7.1,0.7,11.3,0.5c-1.3-0.8-2.2-2.1-2.2-3.7c0-2.4,2-4.4,4.4-4.4
	c2.4,0,4.4,2,4.4,4.4c0,1.4-0.7,2.6-1.8,3.4c1.7-0.1,3.4-0.3,5.3-0.6c1.6-0.2,3.2-0.5,4.8-0.8c-0.3-0.6-0.6-1.3-0.6-2
	c0-2.4,2-4.4,4.4-4.4c2.4,0,4.2,1.9,4.4,4.2C621.7,233.5,627.5,229.6,631.4,224.5z M350.5,420.5c2.4,0,4.4-2,4.4-4.4
	c0-2.4-2-4.4-4.4-4.4c-2.4,0-4.4,2-4.4,4.4C346.1,418.5,348.1,420.5,350.5,420.5z M392,240.8c2.4,0,4.4-2,4.4-4.4
	c0-2.4-2-4.4-4.4-4.4c-2.4,0-4.4,2-4.4,4.4C387.6,238.9,389.5,240.8,392,240.8z M358.8,432.7c2.4,0,4.4-2,4.4-4.4s-2-4.4-4.4-4.4
	c-2.4,0-4.4,2-4.4,4.4S356.4,432.7,358.8,432.7z M333.9,435.5c-2.4,0-4.4,2-4.4,4.4c0,2.4,2,4.4,4.4,4.4c2.4,0,4.4-2,4.4-4.4
	C338.4,437.4,336.4,435.5,333.9,435.5z M400.3,180c2.4,0,4.4-2,4.4-4.4c0-2.4-2-4.4-4.4-4.4c-2.4,0-4.4,2-4.4,4.4
	C395.9,178,397.8,180,400.3,180z M358.8,447.6c-2.4,0-4.4,2-4.4,4.4c0,2.4,2,4.4,4.4,4.4c2.4,0,4.4-2,4.4-4.4
	C363.2,449.6,361.3,447.6,358.8,447.6z M350.5,435.5c-2.4,0-4.4,2-4.4,4.4c0,2.4,2,4.4,4.4,4.4c2.4,0,4.4-2,4.4-4.4
	C354.9,437.4,353,435.5,350.5,435.5z M367.1,435.5c-2.4,0-4.4,2-4.4,4.4c0,2.4,2,4.4,4.4,4.4c2.4,0,4.4-2,4.4-4.4
	C371.5,437.4,369.6,435.5,367.1,435.5z M342.2,423.8c-2.4,0-4.4,2-4.4,4.4s2,4.4,4.4,4.4s4.4-2,4.4-4.4S344.7,423.8,342.2,423.8z
	 M392,432.7c2.4,0,4.4-2,4.4-4.4s-2-4.4-4.4-4.4c-2.4,0-4.4,2-4.4,4.4S389.5,432.7,392,432.7z M442.9,432.7c2.4,0,4.4-2,4.4-4.4
	s-2-4.4-4.4-4.4c-2.4,0-4.4,2-4.4,4.4S440.4,432.7,442.9,432.7z M434.6,444.3c2.4,0,4.4-2,4.4-4.4c0-2.4-2-4.4-4.4-4.4
	c-2.4,0-4.4,2-4.4,4.4C430.1,442.3,432.1,444.3,434.6,444.3z M434.6,420.5c2.4,0,4.4-2,4.4-4.4c0-2.4-2-4.4-4.4-4.4
	c-2.4,0-4.4,2-4.4,4.4C430.1,418.5,432.1,420.5,434.6,420.5z M451.2,444.3c2.4,0,4.4-2,4.4-4.4c0-2.4-2-4.4-4.4-4.4
	c-2.4,0-4.4,2-4.4,4.4C446.7,442.3,448.7,444.3,451.2,444.3z M392,192.2c2.4,0,4.4-2,4.4-4.4c0-2.4-2-4.4-4.4-4.4
	c-2.4,0-4.4,2-4.4,4.4C387.6,190.2,389.5,192.2,392,192.2z M383.7,219.8c-2.4,0-4.4,2-4.4,4.4c0,2.4,2,4.4,4.4,4.4
	c2.4,0,4.4-2,4.4-4.4C388.1,221.8,386.1,219.8,383.7,219.8z M375.4,432.7c2.4,0,4.4-2,4.4-4.4s-2-4.4-4.4-4.4c-2.4,0-4.4,2-4.4,4.4
	S373,432.7,375.4,432.7z M383.7,420.5c2.4,0,4.4-2,4.4-4.4c0-2.4-2-4.4-4.4-4.4c-2.4,0-4.4,2-4.4,4.4
	C379.3,418.5,381.3,420.5,383.7,420.5z M383.7,204.4c2.4,0,4.4-2,4.4-4.4c0-2.4-2-4.4-4.4-4.4c-2.4,0-4.4,2-4.4,4.4
	C379.3,202.4,381.3,204.4,383.7,204.4z M175.3,120.9c2.4,0,4.4-2,4.4-4.4c0-2.4-2-4.4-4.4-4.4c-2.4,0-4.4,2-4.4,4.4
	C170.8,118.9,172.8,120.9,175.3,120.9z M191.8,112c-2.4,0-4.4,2-4.4,4.4c0,2.4,2,4.4,4.4,4.4s4.4-2,4.4-4.4
	C196.3,114,194.3,112,191.8,112z M175.3,144.6c2.4,0,4.4-2,4.4-4.4c0-2.4-2-4.4-4.4-4.4c-2.4,0-4.4,2-4.4,4.4
	C170.8,142.7,172.8,144.6,175.3,144.6z M200.1,123.6c-2.4,0-4.4,2-4.4,4.4c0,2.4,2,4.4,4.4,4.4c2.4,0,4.4-2,4.4-4.4
	C204.6,125.6,202.6,123.6,200.1,123.6z M158.7,112c-2.4,0-4.4,2-4.4,4.4c0,2.4,2,4.4,4.4,4.4c2.4,0,4.4-2,4.4-4.4
	C163.1,114,161.1,112,158.7,112z M167,132.5c2.4,0,4.4-2,4.4-4.4c0-2.4-2-4.4-4.4-4.4c-2.4,0-4.4,2-4.4,4.4
	C162.5,130.5,164.5,132.5,167,132.5z M208.4,120.9c2.4,0,4.4-2,4.4-4.4c0-2.4-2-4.4-4.4-4.4c-2.4,0-4.4,2-4.4,4.4
	C204,118.9,206,120.9,208.4,120.9z M392,208.2c-2.4,0-4.4,2-4.4,4.4c0,2.4,2,4.4,4.4,4.4c2.4,0,4.4-2,4.4-4.4
	C396.4,210.2,394.4,208.2,392,208.2z M242.7,159.6c-2.4,0-4.4,2-4.4,4.4c0,2.4,2,4.4,4.4,4.4c2.4,0,4.4-2,4.4-4.4
	C247.1,161.5,245.2,159.6,242.7,159.6z M251,171.2c-2.4,0-4.4,2-4.4,4.4c0,2.4,2,4.4,4.4,4.4c2.4,0,4.4-2,4.4-4.4
	C255.4,173.2,253.5,171.2,251,171.2z M208.4,135.8c-2.4,0-4.4,2-4.4,4.4c0,2.4,2,4.4,4.4,4.4c2.4,0,4.4-2,4.4-4.4
	C212.9,137.8,210.9,135.8,208.4,135.8z M216.7,123.6c-2.4,0-4.4,2-4.4,4.4c0,2.4,2,4.4,4.4,4.4c2.4,0,4.4-2,4.4-4.4
	C221.2,125.6,219.2,123.6,216.7,123.6z M225,135.8c-2.4,0-4.4,2-4.4,4.4c0,2.4,2,4.4,4.4,4.4c2.4,0,4.4-2,4.4-4.4
	C229.4,137.8,227.5,135.8,225,135.8z M259.3,217.1c2.4,0,4.4-2,4.4-4.4c0-2.4-2-4.4-4.4-4.4c-2.4,0-4.4,2-4.4,4.4
	C254.9,215.1,256.9,217.1,259.3,217.1z M425.2,447.6c-2.4,0-4.4,2-4.4,4.4c0,2.4,2,4.4,4.4,4.4c2.4,0,4.4-2,4.4-4.4
	C429.6,449.6,427.6,447.6,425.2,447.6z M400.3,435.5c-2.4,0-4.4,2-4.4,4.4c0,2.4,2,4.4,4.4,4.4c2.4,0,4.4-2,4.4-4.4
	C404.7,437.4,402.7,435.5,400.3,435.5z M425.2,432.7c2.4,0,4.4-2,4.4-4.4s-2-4.4-4.4-4.4c-2.4,0-4.4,2-4.4,4.4
	S422.7,432.7,425.2,432.7z M392,447.6c-2.4,0-4.4,2-4.4,4.4c0,2.4,2,4.4,4.4,4.4c2.4,0,4.4-2,4.4-4.4
	C396.4,449.6,394.4,447.6,392,447.6z M383.7,435.5c-2.4,0-4.4,2-4.4,4.4c0,2.4,2,4.4,4.4,4.4c2.4,0,4.4-2,4.4-4.4
	C388.1,437.4,386.1,435.5,383.7,435.5z M416.9,444.3c2.4,0,4.4-2,4.4-4.4c0-2.4-2-4.4-4.4-4.4c-2.4,0-4.4,2-4.4,4.4
	C412.4,442.3,414.4,444.3,416.9,444.3z M408.6,423.8c-2.4,0-4.4,2-4.4,4.4s2,4.4,4.4,4.4c2.4,0,4.4-2,4.4-4.4S411,423.8,408.6,423.8
	z M234.4,204.4c2.4,0,4.4-2,4.4-4.4c0-2.4-2-4.4-4.4-4.4c-2.4,0-4.4,2-4.4,4.4C230,202.4,232,204.4,234.4,204.4z M242.7,217.1
	c2.4,0,4.4-2,4.4-4.4c0-2.4-2-4.4-4.4-4.4c-2.4,0-4.4,2-4.4,4.4C238.3,215.1,240.3,217.1,242.7,217.1z M183.6,123.6
	c-2.4,0-4.4,2-4.4,4.4c0,2.4,2,4.4,4.4,4.4c2.4,0,4.4-2,4.4-4.4C188,125.6,186,123.6,183.6,123.6z M375.4,447.6
	c-2.4,0-4.4,2-4.4,4.4c0,2.4,2,4.4,4.4,4.4c2.4,0,4.4-2,4.4-4.4C379.8,449.6,377.8,447.6,375.4,447.6z M404.2,404.5
	c0,2.4,2,4.4,4.4,4.4c2.4,0,4.4-2,4.4-4.4c0-2.4-2-4.4-4.4-4.4C406.1,400.1,404.2,402.1,404.2,404.5z M476,87.1
	c-2.4,0-4.4,2-4.4,4.4s2,4.4,4.4,4.4s4.4-2,4.4-4.4S478.5,87.1,476,87.1z M451.2,156.3c2.4,0,4.4-2,4.4-4.4c0-2.4-2-4.4-4.4-4.4
	c-2.4,0-4.4,2-4.4,4.4C446.7,154.3,448.7,156.3,451.2,156.3z M442.9,159.6c-2.4,0-4.4,2-4.4,4.4c0,2.4,2,4.4,4.4,4.4
	c2.4,0,4.4-2,4.4-4.4C447.3,161.5,445.3,159.6,442.9,159.6z M467.7,51.2c-2.4,0-4.4,2-4.4,4.4c0,2.4,2,4.4,4.4,4.4
	c2.4,0,4.4-2,4.4-4.4C472.2,53.2,470.2,51.2,467.7,51.2z M459.4,96c2.4,0,4.4-2,4.4-4.4s-2-4.4-4.4-4.4c-2.4,0-4.4,2-4.4,4.4
	S457,96,459.4,96z M451.2,108.1c2.4,0,4.4-2,4.4-4.4c0-2.4-2-4.4-4.4-4.4c-2.4,0-4.4,2-4.4,4.4C446.7,106.2,448.7,108.1,451.2,108.1
	z M442.9,144.6c2.4,0,4.4-2,4.4-4.4c0-2.4-2-4.4-4.4-4.4c-2.4,0-4.4,2-4.4,4.4C438.4,142.7,440.4,144.6,442.9,144.6z M451.2,132.5
	c2.4,0,4.4-2,4.4-4.4c0-2.4-2-4.4-4.4-4.4c-2.4,0-4.4,2-4.4,4.4C446.7,130.5,448.7,132.5,451.2,132.5z M442.9,183.3
	c-2.4,0-4.4,2-4.4,4.4c0,2.4,2,4.4,4.4,4.4c2.4,0,4.4-2,4.4-4.4C447.3,185.3,445.3,183.3,442.9,183.3z M434.6,156.3
	c2.4,0,4.4-2,4.4-4.4c0-2.4-2-4.4-4.4-4.4c-2.4,0-4.4,2-4.4,4.4C430.1,154.3,432.1,156.3,434.6,156.3z M408.6,144.6
	c2.4,0,4.4-2,4.4-4.4c0-2.4-2-4.4-4.4-4.4c-2.4,0-4.4,2-4.4,4.4C404.2,142.7,406.1,144.6,408.6,144.6z M451.2,171.2
	c-2.4,0-4.4,2-4.4,4.4c0,2.4,2,4.4,4.4,4.4c2.4,0,4.4-2,4.4-4.4C455.6,173.2,453.6,171.2,451.2,171.2z M434.6,195.5
	c-2.4,0-4.4,2-4.4,4.4c0,2.4,2,4.4,4.4,4.4c2.4,0,4.4-2,4.4-4.4C439,197.5,437,195.5,434.6,195.5z M434.6,180c2.4,0,4.4-2,4.4-4.4
	c0-2.4-2-4.4-4.4-4.4c-2.4,0-4.4,2-4.4,4.4C430.1,178,432.1,180,434.6,180z M484.3,51.2c-2.4,0-4.4,2-4.4,4.4c0,2.4,2,4.4,4.4,4.4
	s4.4-2,4.4-4.4C488.7,53.2,486.8,51.2,484.3,51.2z M425.2,208.2c-2.4,0-4.4,2-4.4,4.4c0,2.4,2,4.4,4.4,4.4c2.4,0,4.4-2,4.4-4.4
	C429.6,210.2,427.6,208.2,425.2,208.2z M425.2,232c-2.4,0-4.4,2-4.4,4.4c0,2.4,2,4.4,4.4,4.4c2.4,0,4.4-2,4.4-4.4
	C429.6,234,427.6,232,425.2,232z M425.2,183.3c-2.4,0-4.4,2-4.4,4.4c0,2.4,2,4.4,4.4,4.4c2.4,0,4.4-2,4.4-4.4
	C429.6,185.3,427.6,183.3,425.2,183.3z M416.9,219.8c-2.4,0-4.4,2-4.4,4.4c0,2.4,2,4.4,4.4,4.4c2.4,0,4.4-2,4.4-4.4
	C421.3,221.8,419.3,219.8,416.9,219.8z M425.2,159.6c-2.4,0-4.4,2-4.4,4.4c0,2.4,2,4.4,4.4,4.4c2.4,0,4.4-2,4.4-4.4
	C429.6,161.5,427.6,159.6,425.2,159.6z M476,39.6c-2.4,0-4.4,2-4.4,4.4c0,2.4,2,4.4,4.4,4.4s4.4-2,4.4-4.4
	C480.5,41.6,478.5,39.6,476,39.6z M416.9,204.4c2.4,0,4.4-2,4.4-4.4c0-2.4-2-4.4-4.4-4.4c-2.4,0-4.4,2-4.4,4.4
	C412.4,202.4,414.4,204.4,416.9,204.4z M463.9,67.8c0-2.4-2-4.4-4.4-4.4c-2.4,0-4.4,2-4.4,4.4c0,2.4,2,4.4,4.4,4.4
	C461.9,72.2,463.9,70.2,463.9,67.8z M476,72.2c2.4,0,4.4-2,4.4-4.4c0-2.4-2-4.4-4.4-4.4s-4.4,2-4.4,4.4
	C471.6,70.2,473.6,72.2,476,72.2z M467.7,75c-2.4,0-4.4,2-4.4,4.4s2,4.4,4.4,4.4c2.4,0,4.4-2,4.4-4.4S470.2,75,467.7,75z
	 M467.7,156.3c2.4,0,4.4-2,4.4-4.4c0-2.4-2-4.4-4.4-4.4c-2.4,0-4.4,2-4.4,4.4C463.3,154.3,465.3,156.3,467.7,156.3z M492.6,48.4
	c2.4,0,4.4-2,4.4-4.4c0-2.4-2-4.4-4.4-4.4c-2.4,0-4.4,2-4.4,4.4C488.2,46.5,490.2,48.4,492.6,48.4z M459.4,159.6
	c-2.4,0-4.4,2-4.4,4.4c0,2.4,2,4.4,4.4,4.4c2.4,0,4.4-2,4.4-4.4C463.9,161.5,461.9,159.6,459.4,159.6z M408.6,112
	c-2.4,0-4.4,2-4.4,4.4c0,2.4,2,4.4,4.4,4.4c2.4,0,4.4-2,4.4-4.4C413,114,411,112,408.6,112z M416.9,108.1c2.4,0,4.4-2,4.4-4.4
	c0-2.4-2-4.4-4.4-4.4c-2.4,0-4.4,2-4.4,4.4C412.4,106.2,414.4,108.1,416.9,108.1z M416.9,123.6c-2.4,0-4.4,2-4.4,4.4
	c0,2.4,2,4.4,4.4,4.4c2.4,0,4.4-2,4.4-4.4C421.3,125.6,419.3,123.6,416.9,123.6z M434.6,83.8c2.4,0,4.4-2,4.4-4.4s-2-4.4-4.4-4.4
	c-2.4,0-4.4,2-4.4,4.4S432.1,83.8,434.6,83.8z M425.2,112c-2.4,0-4.4,2-4.4,4.4c0,2.4,2,4.4,4.4,4.4c2.4,0,4.4-2,4.4-4.4
	C429.6,114,427.6,112,425.2,112z M442.9,72.2c2.4,0,4.4-2,4.4-4.4c0-2.4-2-4.4-4.4-4.4c-2.4,0-4.4,2-4.4,4.4
	C438.4,70.2,440.4,72.2,442.9,72.2z M425.2,96c2.4,0,4.4-2,4.4-4.4s-2-4.4-4.4-4.4c-2.4,0-4.4,2-4.4,4.4S422.7,96,425.2,96z
	 M459.4,135.8c-2.4,0-4.4,2-4.4,4.4c0,2.4,2,4.4,4.4,4.4c2.4,0,4.4-2,4.4-4.4C463.9,137.8,461.9,135.8,459.4,135.8z M400.3,108.1
	c2.4,0,4.4-2,4.4-4.4c0-2.4-2-4.4-4.4-4.4c-2.4,0-4.4,2-4.4,4.4C395.9,106.2,397.8,108.1,400.3,108.1z M416.9,83.8
	c2.4,0,4.4-2,4.4-4.4s-2-4.4-4.4-4.4c-2.4,0-4.4,2-4.4,4.4S414.4,83.8,416.9,83.8z M451.2,60c2.4,0,4.4-2,4.4-4.4
	c0-2.4-2-4.4-4.4-4.4c-2.4,0-4.4,2-4.4,4.4C446.7,58.1,448.7,60,451.2,60z M408.6,96c2.4,0,4.4-2,4.4-4.4s-2-4.4-4.4-4.4
	c-2.4,0-4.4,2-4.4,4.4S406.1,96,408.6,96z M400.3,123.6c-2.4,0-4.4,2-4.4,4.4c0,2.4,2,4.4,4.4,4.4c2.4,0,4.4-2,4.4-4.4
	C404.7,125.6,402.7,123.6,400.3,123.6z M484.3,75c-2.4,0-4.4,2-4.4,4.4s2,4.4,4.4,4.4s4.4-2,4.4-4.4S486.8,75,484.3,75z
	 M284.2,195.5c-2.4,0-4.4,2-4.4,4.4c0,2.4,2,4.4,4.4,4.4c2.4,0,4.4-2,4.4-4.4C288.6,197.5,286.6,195.5,284.2,195.5z M492.6,63.4
	c-2.4,0-4.4,2-4.4,4.4c0,2.4,2,4.4,4.4,4.4c2.4,0,4.4-2,4.4-4.4C497,65.3,495.1,63.4,492.6,63.4z M459.4,112c-2.4,0-4.4,2-4.4,4.4
	c0,2.4,2,4.4,4.4,4.4c2.4,0,4.4-2,4.4-4.4C463.9,114,461.9,112,459.4,112z M467.7,99.3c-2.4,0-4.4,2-4.4,4.4c0,2.4,2,4.4,4.4,4.4
	c2.4,0,4.4-2,4.4-4.4C472.2,101.3,470.2,99.3,467.7,99.3z M459.4,48.4c2.4,0,4.4-2,4.4-4.4c0-2.4-2-4.4-4.4-4.4
	c-2.4,0-4.4,2-4.4,4.4C455,46.5,457,48.4,459.4,48.4z M500.9,51.2c-2.4,0-4.4,2-4.4,4.4c0,2.4,2,4.4,4.4,4.4c2.4,0,4.4-2,4.4-4.4
	C505.3,53.2,503.4,51.2,500.9,51.2z M467.7,36.3c2.4,0,4.4-2,4.4-4.4c0-2.4-2-4.4-4.4-4.4c-2.4,0-4.4,2-4.4,4.4
	C463.3,34.3,465.3,36.3,467.7,36.3z M476,24.7c2.4,0,4.4-2,4.4-4.4s-2-4.4-4.4-4.4s-4.4,2-4.4,4.4S473.6,24.7,476,24.7z M492.6,24.7
	c2.4,0,4.4-2,4.4-4.4s-2-4.4-4.4-4.4c-2.4,0-4.4,2-4.4,4.4S490.2,24.7,492.6,24.7z M500.9,36.3c2.4,0,4.4-2,4.4-4.4
	c0-2.4-2-4.4-4.4-4.4c-2.4,0-4.4,2-4.4,4.4C496.5,34.3,498.5,36.3,500.9,36.3z M484.3,36.3c2.4,0,4.4-2,4.4-4.4c0-2.4-2-4.4-4.4-4.4
	s-4.4,2-4.4,4.4C479.9,34.3,481.9,36.3,484.3,36.3z M408.6,447.6c-2.4,0-4.4,2-4.4,4.4c0,2.4,2,4.4,4.4,4.4c2.4,0,4.4-2,4.4-4.4
	C413,449.6,411,447.6,408.6,447.6z M425.2,543.8c-2.4,0-4.4,2-4.4,4.4c0,2.4,2,4.4,4.4,4.4c2.4,0,4.4-2,4.4-4.4
	C429.6,545.8,427.6,543.8,425.2,543.8z M425.2,520c-2.4,0-4.4,2-4.4,4.4s2,4.4,4.4,4.4c2.4,0,4.4-2,4.4-4.4S427.6,520,425.2,520z
	 M425.2,471.4c-2.4,0-4.4,2-4.4,4.4c0,2.4,2,4.4,4.4,4.4c2.4,0,4.4-2,4.4-4.4C429.6,473.4,427.6,471.4,425.2,471.4z M425.2,496.3
	c-2.4,0-4.4,2-4.4,4.4c0,2.4,2,4.4,4.4,4.4c2.4,0,4.4-2,4.4-4.4C429.6,498.3,427.6,496.3,425.2,496.3z M425.2,567.6
	c-2.4,0-4.4,2-4.4,4.4s2,4.4,4.4,4.4c2.4,0,4.4-2,4.4-4.4S427.6,567.6,425.2,567.6z M408.6,567.6c-2.4,0-4.4,2-4.4,4.4
	s2,4.4,4.4,4.4c2.4,0,4.4-2,4.4-4.4S411,567.6,408.6,567.6z M416.9,579.8c-2.4,0-4.4,2-4.4,4.4c0,2.4,2,4.4,4.4,4.4
	c2.4,0,4.4-2,4.4-4.4C421.3,581.7,419.3,579.8,416.9,579.8z M451.2,507.9c-2.4,0-4.4,2-4.4,4.4c0,2.4,2,4.4,4.4,4.4
	c2.4,0,4.4-2,4.4-4.4C455.6,509.9,453.6,507.9,451.2,507.9z M442.9,480.2c2.4,0,4.4-2,4.4-4.4c0-2.4-2-4.4-4.4-4.4
	c-2.4,0-4.4,2-4.4,4.4C438.4,478.3,440.4,480.2,442.9,480.2z M451.2,468.1c2.4,0,4.4-2,4.4-4.4c0-2.4-2-4.4-4.4-4.4
	c-2.4,0-4.4,2-4.4,4.4C446.7,466.1,448.7,468.1,451.2,468.1z M442.9,520c-2.4,0-4.4,2-4.4,4.4s2,4.4,4.4,4.4c2.4,0,4.4-2,4.4-4.4
	S445.3,520,442.9,520z M447.3,500.7c0-2.4-2-4.4-4.4-4.4c-2.4,0-4.4,2-4.4,4.4c0,2.4,2,4.4,4.4,4.4
	C445.3,505.1,447.3,503.1,447.3,500.7z M442.9,543.8c-2.4,0-4.4,2-4.4,4.4c0,2.4,2,4.4,4.4,4.4c2.4,0,4.4-2,4.4-4.4
	C447.3,545.8,445.3,543.8,442.9,543.8z M451.2,483.6c-2.4,0-4.4,2-4.4,4.4c0,2.4,2,4.4,4.4,4.4c2.4,0,4.4-2,4.4-4.4
	C455.6,485.5,453.6,483.6,451.2,483.6z M317.4,291.7c-2.4,0-4.4,2-4.4,4.4c0,2.4,2,4.4,4.4,4.4c2.4,0,4.4-2,4.4-4.4
	C321.8,293.7,319.8,291.7,317.4,291.7z M408.6,552.7c2.4,0,4.4-2,4.4-4.4c0-2.4-2-4.4-4.4-4.4c-2.4,0-4.4,2-4.4,4.4
	C404.2,550.7,406.1,552.7,408.6,552.7z M309.1,279.5c-2.4,0-4.4,2-4.4,4.4c0,2.4,2,4.4,4.4,4.4s4.4-2,4.4-4.4
	C313.5,281.5,311.5,279.5,309.1,279.5z M416.9,531.7c-2.4,0-4.4,2-4.4,4.4c0,2.4,2,4.4,4.4,4.4c2.4,0,4.4-2,4.4-4.4
	C421.3,533.6,419.3,531.7,416.9,531.7z M300.8,291.7c-2.4,0-4.4,2-4.4,4.4c0,2.4,2,4.4,4.4,4.4c2.4,0,4.4-2,4.4-4.4
	C305.2,293.7,303.2,291.7,300.8,291.7z M292.5,208.2c-2.4,0-4.4,2-4.4,4.4c0,2.4,2,4.4,4.4,4.4c2.4,0,4.4-2,4.4-4.4
	C296.9,210.2,294.9,208.2,292.5,208.2z M416.9,492.4c2.4,0,4.4-2,4.4-4.4c0-2.4-2-4.4-4.4-4.4c-2.4,0-4.4,2-4.4,4.4
	C412.4,490.4,414.4,492.4,416.9,492.4z M408.6,528.9c2.4,0,4.4-2,4.4-4.4s-2-4.4-4.4-4.4c-2.4,0-4.4,2-4.4,4.4
	S406.1,528.9,408.6,528.9z M412.4,559.9c0,2.4,2,4.4,4.4,4.4c2.4,0,4.4-2,4.4-4.4c0-2.4-2-4.4-4.4-4.4
	C414.4,555.4,412.4,557.4,412.4,559.9z M408.6,505.1c2.4,0,4.4-2,4.4-4.4c0-2.4-2-4.4-4.4-4.4c-2.4,0-4.4,2-4.4,4.4
	C404.2,503.1,406.1,505.1,408.6,505.1z M408.6,480.2c2.4,0,4.4-2,4.4-4.4c0-2.4-2-4.4-4.4-4.4c-2.4,0-4.4,2-4.4,4.4
	C404.2,478.3,406.1,480.2,408.6,480.2z M416.9,507.9c-2.4,0-4.4,2-4.4,4.4c0,2.4,2,4.4,4.4,4.4c2.4,0,4.4-2,4.4-4.4
	C421.3,509.9,419.3,507.9,416.9,507.9z M584.9,219.8c-2.4,0-4.4,2-4.4,4.4c0,2.4,2,4.4,4.4,4.4c2.4,0,4.4-2,4.4-4.4
	C589.4,221.8,587.4,219.8,584.9,219.8z M576.7,208.2c-2.4,0-4.4,2-4.4,4.4c0,2.4,2,4.4,4.4,4.4c2.4,0,4.4-2,4.4-4.4
	C581.1,210.2,579.1,208.2,576.7,208.2z M568.4,219.8c-2.4,0-4.4,2-4.4,4.4c0,2.4,2,4.4,4.4,4.4s4.4-2,4.4-4.4
	C572.8,221.8,570.8,219.8,568.4,219.8z M576.7,192.2c2.4,0,4.4-2,4.4-4.4c0-2.4-2-4.4-4.4-4.4c-2.4,0-4.4,2-4.4,4.4
	C572.2,190.2,574.2,192.2,576.7,192.2z M560.1,208.2c-2.4,0-4.4,2-4.4,4.4c0,2.4,2,4.4,4.4,4.4c2.4,0,4.4-2,4.4-4.4
	C564.5,210.2,562.5,208.2,560.1,208.2z M584.9,204.4c2.4,0,4.4-2,4.4-4.4c0-2.4-2-4.4-4.4-4.4c-2.4,0-4.4,2-4.4,4.4
	C580.5,202.4,582.5,204.4,584.9,204.4z M593.2,192.2c2.4,0,4.4-2,4.4-4.4c0-2.4-2-4.4-4.4-4.4c-2.4,0-4.4,2-4.4,4.4
	C588.8,190.2,590.8,192.2,593.2,192.2z M626.4,208.2c-2.4,0-4.4,2-4.4,4.4c0,2.4,2,4.4,4.4,4.4c2.4,0,4.4-2,4.4-4.4
	C630.8,210.2,628.9,208.2,626.4,208.2z M618.1,219.8c-2.4,0-4.4,2-4.4,4.4c0,2.4,2,4.4,4.4,4.4c2.4,0,4.4-2,4.4-4.4
	C622.5,221.8,620.6,219.8,618.1,219.8z M609.8,208.2c-2.4,0-4.4,2-4.4,4.4c0,2.4,2,4.4,4.4,4.4c2.4,0,4.4-2,4.4-4.4
	C614.3,210.2,612.3,208.2,609.8,208.2z M601.5,204.4c2.4,0,4.4-2,4.4-4.4c0-2.4-2-4.4-4.4-4.4c-2.4,0-4.4,2-4.4,4.4
	C597.1,202.4,599.1,204.4,601.5,204.4z M434.6,492.4c2.4,0,4.4-2,4.4-4.4c0-2.4-2-4.4-4.4-4.4c-2.4,0-4.4,2-4.4,4.4
	C430.1,490.4,432.1,492.4,434.6,492.4z M292.5,255.8c-2.4,0-4.4,2-4.4,4.4c0,2.4,2,4.4,4.4,4.4c2.4,0,4.4-2,4.4-4.4
	C296.9,257.7,294.9,255.8,292.5,255.8z M601.5,219.8c-2.4,0-4.4,2-4.4,4.4c0,2.4,2,4.4,4.4,4.4c2.4,0,4.4-2,4.4-4.4
	C606,221.8,604,219.8,601.5,219.8z M593.2,208.2c-2.4,0-4.4,2-4.4,4.4c0,2.4,2,4.4,4.4,4.4c2.4,0,4.4-2,4.4-4.4
	C597.7,210.2,595.7,208.2,593.2,208.2z M500.9,195.5c-2.4,0-4.4,2-4.4,4.4c0,2.4,2,4.4,4.4,4.4c2.4,0,4.4-2,4.4-4.4
	C505.3,197.5,503.4,195.5,500.9,195.5z M526.9,183.3c-2.4,0-4.4,2-4.4,4.4c0,2.4,2,4.4,4.4,4.4c2.4,0,4.4-2,4.4-4.4
	C531.3,185.3,529.3,183.3,526.9,183.3z M434.6,555.4c-2.4,0-4.4,2-4.4,4.4c0,2.4,2,4.4,4.4,4.4c2.4,0,4.4-2,4.4-4.4
	C439,557.4,437,555.4,434.6,555.4z M434.6,540.5c2.4,0,4.4-2,4.4-4.4c0-2.4-2-4.4-4.4-4.4c-2.4,0-4.4,2-4.4,4.4
	C430.1,538.5,432.1,540.5,434.6,540.5z M560.1,183.3c-2.4,0-4.4,2-4.4,4.4c0,2.4,2,4.4,4.4,4.4c2.4,0,4.4-2,4.4-4.4
	C564.5,185.3,562.5,183.3,560.1,183.3z M434.6,516.7c2.4,0,4.4-2,4.4-4.4c0-2.4-2-4.4-4.4-4.4c-2.4,0-4.4,2-4.4,4.4
	C430.1,514.8,432.1,516.7,434.6,516.7z M492.6,232c-2.4,0-4.4,2-4.4,4.4c0,2.4,2,4.4,4.4,4.4c2.4,0,4.4-2,4.4-4.4
	C497,234,495.1,232,492.6,232z M543.5,208.2c-2.4,0-4.4,2-4.4,4.4c0,2.4,2,4.4,4.4,4.4c2.4,0,4.4-2,4.4-4.4
	C547.9,210.2,545.9,208.2,543.5,208.2z M618.1,204.4c2.4,0,4.4-2,4.4-4.4c0-2.4-2-4.4-4.4-4.4c-2.4,0-4.4,2-4.4,4.4
	C613.7,202.4,615.7,204.4,618.1,204.4z M609.8,192.2c2.4,0,4.4-2,4.4-4.4c0-2.4-2-4.4-4.4-4.4c-2.4,0-4.4,2-4.4,4.4
	C605.4,190.2,607.4,192.2,609.8,192.2z M509.2,232c-2.4,0-4.4,2-4.4,4.4c0,2.4,2,4.4,4.4,4.4c2.4,0,4.4-2,4.4-4.4
	C513.6,234,511.6,232,509.2,232z M517.5,219.8c-2.4,0-4.4,2-4.4,4.4c0,2.4,2,4.4,4.4,4.4s4.4-2,4.4-4.4
	C521.9,221.8,519.9,219.8,517.5,219.8z M300.8,276.2c2.4,0,4.4-2,4.4-4.4c0-2.4-2-4.4-4.4-4.4c-2.4,0-4.4,2-4.4,4.4
	C296.3,274.2,298.3,276.2,300.8,276.2z M251,156.3c2.4,0,4.4-2,4.4-4.4c0-2.4-2-4.4-4.4-4.4c-2.4,0-4.4,2-4.4,4.4
	C246.6,154.3,248.6,156.3,251,156.3z M275.9,192.2c2.4,0,4.4-2,4.4-4.4c0-2.4-2-4.4-4.4-4.4s-4.4,2-4.4,4.4
	C271.5,190.2,273.4,192.2,275.9,192.2z M259.3,168.4c2.4,0,4.4-2,4.4-4.4c0-2.4-2-4.4-4.4-4.4c-2.4,0-4.4,2-4.4,4.4
	C254.9,166.4,256.9,168.4,259.3,168.4z M284.2,243.6c-2.4,0-4.4,2-4.4,4.4c0,2.4,2,4.4,4.4,4.4c2.4,0,4.4-2,4.4-4.4
	C288.6,245.6,286.6,243.6,284.2,243.6z M300.8,204.4c2.4,0,4.4-2,4.4-4.4c0-2.4-2-4.4-4.4-4.4c-2.4,0-4.4,2-4.4,4.4
	C296.3,202.4,298.3,204.4,300.8,204.4z M292.5,192.2c2.4,0,4.4-2,4.4-4.4c0-2.4-2-4.4-4.4-4.4c-2.4,0-4.4,2-4.4,4.4
	C288.1,190.2,290,192.2,292.5,192.2z M284.2,180c2.4,0,4.4-2,4.4-4.4c0-2.4-2-4.4-4.4-4.4c-2.4,0-4.4,2-4.4,4.4
	C279.8,178,281.7,180,284.2,180z M225,120.9c2.4,0,4.4-2,4.4-4.4c0-2.4-2-4.4-4.4-4.4c-2.4,0-4.4,2-4.4,4.4
	C220.6,118.9,222.6,120.9,225,120.9z M242.7,144.6c2.4,0,4.4-2,4.4-4.4c0-2.4-2-4.4-4.4-4.4c-2.4,0-4.4,2-4.4,4.4
	C238.3,142.7,240.3,144.6,242.7,144.6z M208.4,96c2.4,0,4.4-2,4.4-4.4s-2-4.4-4.4-4.4c-2.4,0-4.4,2-4.4,4.4S206,96,208.4,96z
	 M216.7,108.1c2.4,0,4.4-2,4.4-4.4c0-2.4-2-4.4-4.4-4.4c-2.4,0-4.4,2-4.4,4.4C212.3,106.2,214.3,108.1,216.7,108.1z M234.4,132.5
	c2.4,0,4.4-2,4.4-4.4c0-2.4-2-4.4-4.4-4.4c-2.4,0-4.4,2-4.4,4.4C230,130.5,232,132.5,234.4,132.5z M234.4,156.3c2.4,0,4.4-2,4.4-4.4
	c0-2.4-2-4.4-4.4-4.4c-2.4,0-4.4,2-4.4,4.4C230,154.3,232,156.3,234.4,156.3z M317.4,243.6c-2.4,0-4.4,2-4.4,4.4
	c0,2.4,2,4.4,4.4,4.4c2.4,0,4.4-2,4.4-4.4C321.8,245.6,319.8,243.6,317.4,243.6z M342.2,288.4c2.4,0,4.4-2,4.4-4.4
	c0-2.4-2-4.4-4.4-4.4s-4.4,2-4.4,4.4C337.8,286.4,339.8,288.4,342.2,288.4z M317.4,228.7c2.4,0,4.4-2,4.4-4.4c0-2.4-2-4.4-4.4-4.4
	c-2.4,0-4.4,2-4.4,4.4C312.9,226.7,314.9,228.7,317.4,228.7z M200.1,108.1c2.4,0,4.4-2,4.4-4.4c0-2.4-2-4.4-4.4-4.4
	c-2.4,0-4.4,2-4.4,4.4C195.7,106.2,197.7,108.1,200.1,108.1z M309.1,232c-2.4,0-4.4,2-4.4,4.4c0,2.4,2,4.4,4.4,4.4s4.4-2,4.4-4.4
	C313.5,234,311.5,232,309.1,232z M309.1,208.2c-2.4,0-4.4,2-4.4,4.4c0,2.4,2,4.4,4.4,4.4s4.4-2,4.4-4.4
	C313.5,210.2,311.5,208.2,309.1,208.2z M300.8,219.8c-2.4,0-4.4,2-4.4,4.4c0,2.4,2,4.4,4.4,4.4c2.4,0,4.4-2,4.4-4.4
	C305.2,221.8,303.2,219.8,300.8,219.8z M325.6,217.1c2.4,0,4.4-2,4.4-4.4c0-2.4-2-4.4-4.4-4.4s-4.4,2-4.4,4.4
	C321.2,215.1,323.2,217.1,325.6,217.1z M333.9,276.2c2.4,0,4.4-2,4.4-4.4c0-2.4-2-4.4-4.4-4.4c-2.4,0-4.4,2-4.4,4.4
	C329.5,274.2,331.5,276.2,333.9,276.2z M317.4,204.4c2.4,0,4.4-2,4.4-4.4c0-2.4-2-4.4-4.4-4.4c-2.4,0-4.4,2-4.4,4.4
	C312.9,202.4,314.9,204.4,317.4,204.4z M309.1,192.2c2.4,0,4.4-2,4.4-4.4c0-2.4-2-4.4-4.4-4.4s-4.4,2-4.4,4.4
	C304.6,190.2,306.6,192.2,309.1,192.2z M325.6,255.8c-2.4,0-4.4,2-4.4,4.4c0,2.4,2,4.4,4.4,4.4s4.4-2,4.4-4.4
	C330.1,257.7,328.1,255.8,325.6,255.8z M325.6,232c-2.4,0-4.4,2-4.4,4.4c0,2.4,2,4.4,4.4,4.4s4.4-2,4.4-4.4
	C330.1,234,328.1,232,325.6,232z M267.6,180c2.4,0,4.4-2,4.4-4.4c0-2.4-2-4.4-4.4-4.4c-2.4,0-4.4,2-4.4,4.4
	C263.2,178,265.2,180,267.6,180z M216.7,195.5c-2.4,0-4.4,2-4.4,4.4c0,2.4,2,4.4,4.4,4.4c2.4,0,4.4-2,4.4-4.4
	C221.2,197.5,219.2,195.5,216.7,195.5z M200.1,171.2c-2.4,0-4.4,2-4.4,4.4c0,2.4,2,4.4,4.4,4.4c2.4,0,4.4-2,4.4-4.4
	C204.6,173.2,202.6,171.2,200.1,171.2z M225,183.3c-2.4,0-4.4,2-4.4,4.4c0,2.4,2,4.4,4.4,4.4c2.4,0,4.4-2,4.4-4.4
	C229.4,185.3,227.5,183.3,225,183.3z M208.4,159.6c-2.4,0-4.4,2-4.4,4.4c0,2.4,2,4.4,4.4,4.4c2.4,0,4.4-2,4.4-4.4
	C212.9,161.5,210.9,159.6,208.4,159.6z M234.4,219.8c-2.4,0-4.4,2-4.4,4.4c0,2.4,2,4.4,4.4,4.4c2.4,0,4.4-2,4.4-4.4
	C238.8,221.8,236.9,219.8,234.4,219.8z M216.7,180c2.4,0,4.4-2,4.4-4.4c0-2.4-2-4.4-4.4-4.4c-2.4,0-4.4,2-4.4,4.4
	C212.3,178,214.3,180,216.7,180z M225,208.2c-2.4,0-4.4,2-4.4,4.4c0,2.4,2,4.4,4.4,4.4c2.4,0,4.4-2,4.4-4.4
	C229.4,210.2,227.5,208.2,225,208.2z M191.8,96c2.4,0,4.4-2,4.4-4.4s-2-4.4-4.4-4.4s-4.4,2-4.4,4.4S189.4,96,191.8,96z M267.6,219.8
	c-2.4,0-4.4,2-4.4,4.4c0,2.4,2,4.4,4.4,4.4c2.4,0,4.4-2,4.4-4.4C272,221.8,270,219.8,267.6,219.8z M242.7,232c-2.4,0-4.4,2-4.4,4.4
	c0,2.4,2,4.4,4.4,4.4c2.4,0,4.4-2,4.4-4.4C247.1,234,245.2,232,242.7,232z M259.3,232c-2.4,0-4.4,2-4.4,4.4c0,2.4,2,4.4,4.4,4.4
	c2.4,0,4.4-2,4.4-4.4C263.7,234,261.7,232,259.3,232z M251,219.8c-2.4,0-4.4,2-4.4,4.4c0,2.4,2,4.4,4.4,4.4c2.4,0,4.4-2,4.4-4.4
	C255.4,221.8,253.5,219.8,251,219.8z M275.9,232c-2.4,0-4.4,2-4.4,4.4c0,2.4,2,4.4,4.4,4.4s4.4-2,4.4-4.4
	C280.3,234,278.3,232,275.9,232z M158.7,96c2.4,0,4.4-2,4.4-4.4s-2-4.4-4.4-4.4c-2.4,0-4.4,2-4.4,4.4S156.2,96,158.7,96z
	 M191.8,159.6c-2.4,0-4.4,2-4.4,4.4c0,2.4,2,4.4,4.4,4.4s4.4-2,4.4-4.4C196.3,161.5,194.3,159.6,191.8,159.6z M150.4,108.1
	c2.4,0,4.4-2,4.4-4.4c0-2.4-2-4.4-4.4-4.4c-2.4,0-4.4,2-4.4,4.4C146,106.2,147.9,108.1,150.4,108.1z M175.3,96c2.4,0,4.4-2,4.4-4.4
	s-2-4.4-4.4-4.4c-2.4,0-4.4,2-4.4,4.4S172.8,96,175.3,96z M183.6,108.1c2.4,0,4.4-2,4.4-4.4c0-2.4-2-4.4-4.4-4.4
	c-2.4,0-4.4,2-4.4,4.4C179.1,106.2,181.1,108.1,183.6,108.1z M142.1,112c-2.4,0-4.4,2-4.4,4.4c0,2.4,2,4.4,4.4,4.4
	c2.4,0,4.4-2,4.4-4.4C146.5,114,144.5,112,142.1,112z M167,108.1c2.4,0,4.4-2,4.4-4.4c0-2.4-2-4.4-4.4-4.4c-2.4,0-4.4,2-4.4,4.4
	C162.5,106.2,164.5,108.1,167,108.1z M175.3,159.6c-2.4,0-4.4,2-4.4,4.4c0,2.4,2,4.4,4.4,4.4c2.4,0,4.4-2,4.4-4.4
	C179.7,161.5,177.7,159.6,175.3,159.6z M183.6,147.4c-2.4,0-4.4,2-4.4,4.4c0,2.4,2,4.4,4.4,4.4c2.4,0,4.4-2,4.4-4.4
	C188,149.4,186,147.4,183.6,147.4z M150.4,123.6c-2.4,0-4.4,2-4.4,4.4c0,2.4,2,4.4,4.4,4.4c2.4,0,4.4-2,4.4-4.4
	C154.8,125.6,152.8,123.6,150.4,123.6z M167,147.4c-2.4,0-4.4,2-4.4,4.4c0,2.4,2,4.4,4.4,4.4c2.4,0,4.4-2,4.4-4.4
	C171.4,149.4,169.4,147.4,167,147.4z M158.7,135.8c-2.4,0-4.4,2-4.4,4.4c0,2.4,2,4.4,4.4,4.4c2.4,0,4.4-2,4.4-4.4
	C163.1,137.8,161.1,135.8,158.7,135.8z"/>
</svg>
