
<svg class="hover-check" xmlns="http://www.w3.org/2000/svg" xmlns:xlink="http://www.w3.org/1999/xlink">


	<symbol viewBox="0 0 100 100" id='catalog1' >
		<path  d="M59.98132,83.24023c2.87299-5.45111,4.3465-12.12714,4.3465-19.99603V40.4101    c0-6.62976,5.55078-6.98633,5.99622-6.98718l0.00916-0.00336c0.02075,0.00031,0.04083,0.00421,0.06171,0.00421    c0.74768,0,1.88379-0.28693,3.04987-1.65308c2.71344-3.17993,3.95117-10.23761,2.81744-16.06775    c-0.81439-4.1886-2.67834-6.68921-4.98596-6.68921c-0.05988,0-0.12604,0.00549-0.19067,0.00964l-0.41235-0.0152    c-0.52728-0.01819-13.05115-0.37378-22.08417,8.33417c-5.85962,5.64886-8.83075,13.7757-8.83075,24.15509v20.66193    c0.00195,7.54108,0.00317,11.69501-9.02521,11.89093l-0.43414,0.0094c-0.06769-0.00385-0.13483-0.01312-0.203-0.01312    c-0.81122,0-2.02777,0.29626-3.21765,1.70758c-1.42023,1.68445-2.33649,4.41516-2.67822,7.48608H15.0835v2H84.1582v-2H59.98132z     M71.15063,10.784l0.33667,0.01184l0.00018-0.00513c1.07812,0.19141,2.3858,1.83582,3.04932,5.24774    c1.00812,5.18488-0.10419,11.86664-2.42902,14.59094c-0.40363,0.47302-1.02826,1.03656-1.71289,1.03656    c-0.44293,0-0.93707-0.26251-1.41663-0.80176c0.16534-0.1441,0.32751-0.302,0.48517-0.47394    c2.59851-2.83044,3.77075-8.95898,2.66888-13.95239c-0.42206-1.914-1.14374-3.44617-2.08691-4.43079l-0.34137-0.35638    C70.07697,11.24872,70.5896,10.83978,71.15063,10.784z M68.77612,13.22296c0.70966,0.74103,1.29205,2.01721,1.63959,3.59351    c0.95831,4.34259-0.07086,10.01428-2.24725,12.38513c-0.04596,0.05005-0.09271,0.09045-0.13904,0.13678    c-0.35193-0.77411-0.66327-1.7467-0.89514-2.93927c-0.87115-4.4801-0.15668-10.07263,1.55273-13.26917L68.77612,13.22296z     M53.00806,17.12109c0.15009-0.65143,0.53204-1.27148,0.92377-1.71539c5.26843-3.28485,10.95007-4.25238,14.13568-4.5321    c-2.6001,3.26715-3.76953,10.14844-2.65869,15.86102c0.48212,2.48047,1.33453,4.36267,2.42725,5.49042    c-0.95007,0.33148-2.05725,0.89954-3.01251,1.86865l-0.00208-0.00336l-0.74792,0.46149    c-1.02014,0.62903-3.90631-0.15076-7.13153-3.8526C53.27435,26.48938,52.18677,20.68182,53.00806,17.12109z M41.51605,41.49744    c0-9.87585,2.78583-17.57294,8.28021-22.8775c0.44617-0.43079,0.90448-0.83276,1.3689-1.21765    c-0.64172,3.90863,0.44604,9.85394,4.45166,14.45148c2.56726,2.94696,5.44794,4.6463,7.63751,4.65033    c-0.42377,1.05194-0.68433,2.33673-0.68433,3.90601v12.151l-0.36163,0.34351c-0.85516,0.81195-2.36945,1.53949-4.2641,2.04865    c-5.26581,1.41498-12.05548,0.88843-15.13654-1.17291c-0.30585-0.20483-0.56067-0.41718-0.75708-0.63153l-0.53461-0.58362    V41.49744z M41.51605,62.15881V55.0061c0.10406,0.07855,0.20093,0.15942,0.3139,0.23505    c2.20221,1.47333,5.8924,2.26569,9.76709,2.26569c2.29358,0,4.65192-0.27783,6.80341-0.85614    c1.69781-0.45618,3.11365-1.06946,4.16956-1.79492v8.38843c0,7.97711-1.5567,14.65637-4.59412,19.99603h-7.25397    c-0.70477-2.34692-1.87653-4.75281-3.62781-6.91614c-1.93591-2.39142-4.64899-4.38196-6.86292-4.72876    C41.51514,69.159,41.51709,65.85095,41.51605,62.15881z M38.26697,73.87396l0.71393-0.44287    c0.92987-0.57678,4.09509,0.72345,6.74677,3.99896c1.44287,1.78229,2.44873,3.80115,3.11432,5.81018H36.45111    c-0.13147-0.7948-0.28766-1.58331-0.50006-2.34802c-0.63782-2.29688-1.56415-4.09161-2.66595-5.26849    C35.47833,75.33789,37.08722,74.7348,38.26697,73.87396z M32.62695,77.6109c0.63989,0.94684,1.2066,2.22546,1.63055,3.75165    c0.1687,0.60754,0.29773,1.23889,0.40948,1.87769h-4.17108c0.26569-2.13879,0.86957-4.03278,1.78113-5.22723    C32.3913,77.86346,32.50848,77.73157,32.62695,77.6109z M28.22217,76.88708c0.55872-0.66278,1.13892-1.00952,1.72607-1.06158    l0.31567-0.00684c0.39612,0.03784,0.79279,0.20782,1.17963,0.49622c-0.1944,0.19098-0.38452,0.39667-0.56384,0.63184    c-1.1427,1.49719-1.87817,3.7655-2.17017,6.29352h-2.71582C26.30841,80.58813,27.07043,78.25311,28.22217,76.88708z"/>
	</symbol>

	<symbol viewBox="0 0 100 100" id='catalog2' >
		<path d="M87.70442,13.96538H51.62793L12.23167,52.68801l0.01316,0.01348h-0.02026v7.04461h6.22324    c-3.3031,3.21153-5.44503,5.06732-5.4688,5.08767l-0.73299,0.63319h-0.02146v7.04437h6.44939    c-3.43138,3.34689-5.67062,5.287-5.69495,5.30791l-0.73299,0.63319h-0.02146v7.04437h36.63558l0.01252,0.01236l38.83175-39.32798    v-6.46518h-6.43798l6.43798-6.52022v-6.46518h-6.22085l6.22085-6.30038V13.96538z M52.43199,15.9311h31.94324l-36.9584,36.77039    H15.02211L52.43199,15.9311z M14.19029,54.66721h32.72592v3.11318H14.19029V54.66721z M14.19029,67.43268h32.72592v3.11294    H14.19029V67.43268z M46.91621,83.53109H14.19029v-3.11293h32.72592V83.53109z M48.88193,82.70215v-2.93442l36.85678-36.66932    v2.27593L48.88193,82.70215z M84.37524,41.68173L47.41651,78.45244H15.22607c1.12808-1.01594,3.1789-2.90339,5.79274-5.48779    l0.45835-0.45332h27.383l0.01252,0.01236l30.45286-30.84196H84.37524z M48.88193,69.71667v-2.93442l36.85678-36.66924v2.27593    L48.88193,69.71667z M84.37524,28.69634L47.41651,65.46696H15.22607c1.12808-1.01586,3.1789-2.90331,5.79274-5.48779    l0.23571-0.23308h27.60563l0.01252,0.01236l30.67007-31.06213H84.37524z M78.72121,26.73062h-0.01396v0.01412l-29.82533,30.2067    v-2.93442L85.73871,17.3477v2.2757L78.72121,26.73062z"/>
	</symbol>

	<symbol viewBox="0 0 130 112" id='catalog3' >
		<path d="M124.23579,28.63441v-8.5477h-13.3495h-2.1264h-16.0075v-1.6822c0-3.951-3.188-7.1703-7.12338-7.2149    l-30.48562-3.9248c-1.2747-0.9487-2.8417-1.5222-4.5427-1.5372L28.96629,3.394l-0.0028,0.02541    c-1.2499-0.3477-2.9241-0.3988-4.5459-0.3988c-5.619,0-13.4655,0.9799-13.7897,1.0208c-4.8042,0.5765-8.1597,3.9911-8.1597,8.3037    v31.297c0,4.5567,3.68281,8.269,8.2261,8.3124c1.0454,0.1309,11.0444,1.36849,16.18071,1.3689h0.00029    c0.0519,0,0.0958-0.0015,0.1464-0.0018l6.3936,2.8896l6.5659,53.2173l23.2519-3.7811l-0.81308-5.3646h6.55858v-0.0215    l13.52551,2.3115c0.4071,0.1859,0.83479,0.3335,1.28249,0.43119l25.03481,5.45871c0.44279,0.0966,0.89529,0.1454,1.3453,0.1454    c2.916,0,5.4815-2.06,6.101-4.90211l7.1468-33.29459c0.4207-1.9296-0.1148-3.8475-1.28439-5.2715l0.0695-0.08791l-0.5743-0.45409    c-0.2548-0.24491-0.5291-0.4705-0.8251-0.671c-1.1497-0.98391-4.33-3.8778-6.3611-7.3996    c-3.1272-5.4214-3.55009-13.888-3.5528-13.9165v-13.9764H124.23579z M121.77148,22.551v3.61911h-10.8852V22.551H121.77148z     M108.42188,22.551l0.0007,9.53341H93.14301V22.551H108.42188z M90.67859,42.135v3.19211L86.68,60.84021    c-0.23061,0.456-0.42591,0.9334-0.53812,1.4484L85.32159,66.11l-0.0512,0.19891l0.0081,0.00209L79.804,91.81621l-13.59281-0.0726    l-6.13319-0.6172l-5.46152-25.3616l0.2252-10.2624h1.9298c-0.0068,1.1645,0.0476,3.9749,0.6624,6.1938    c0.6935,2.5059,2.0085,4.2376,2.29012,4.589c0.60978,0.9066,1.53328,1.5275,2.60868,1.7523    c0.2888,0.0602,0.57932,0.0901,0.8677,0.0901c0.8062,0,1.5969-0.2324,2.2901-0.6821c0.9413-0.6102,1.5907-1.5484,1.8283-2.6417    c0.2386-1.0971,0.0343-2.2182-0.5745-3.1571l-0.0959-0.1286c-0.00999-0.0116-0.985-1.1785-1.4295-2.8356    c-0.2616-0.975-0.2492-2.4567-0.2118-3.1801h21.0385v-11.2375C87.85278,44.14,89.48058,43.35331,90.67859,42.135z     M31.22759,52.51811l19.3731-2.0895c1.939-0.0171,3.7057-0.7564,5.06-1.956l27.9206-3.8955v8.461h-31.1502l-0.1968,8.9634    l-0.0157,0.0034L31.22759,52.51811z M30.95759,38.94211h1.3869c0.9513,0,1.7251,0.77388,1.7251,1.7252    c0,0.9513-0.7738,1.7251-1.7251,1.7251h-1.3869V38.94211z M62.83839,59.32131c0.5254,1.9572,1.5894,3.3685,1.87,3.7171    c0.2241,0.3727,0.2959,0.8114,0.2024,1.2418c-0.0986,0.4534-0.3689,0.8433-0.7612,1.09769    c-0.3922,0.2548-0.8587,0.3432-1.3129,0.2472c-0.45068-0.0942-0.83568-0.3572-1.0846-0.7409l-0.08908-0.1207    c-0.01242-0.0147-1.24081-1.5089-1.85411-3.7249c-0.5323-1.9217-0.5775-4.5039-0.5722-5.5362h3.3038    C62.50639,56.28731,62.48369,57.99851,62.83839,59.32131z M85.54649,13.65361c2.6146,0,4.7416,2.1311,4.7416,4.7509V37.076    c0,2.61971-2.127,4.75092-4.7416,4.75092l-27.8784,3.8785c0.4078-0.948,0.6367-1.9911,0.6367-3.0878v-29.0792    c0-1.2547-0.3027-2.4372-0.8279-3.4887l27.91211,3.5938L85.54649,13.65361z M50.53159,8.19161    c2.92742,0,5.3089,2.3987,5.3089,5.3468v29.0792c0,2.94839-2.38148,5.347-5.3089,5.347l-19.574,2.1047v-5.2126h1.3869    c2.3099,0,4.1894-1.8795,4.1894-4.1894c0-2.31-1.8795-4.1895-4.1894-4.1895h-1.3869v-17.9823h1.3869    c2.3099,0,4.1894-1.87951,4.1894-4.1894c0-2.31-1.8795-4.1895-4.1894-4.1895h-1.3869v-4.0291l19.442,2.0969L50.53159,8.19161z     M30.95759,12.58091h1.3869c0.9513,0,1.7251,0.7739,1.7251,1.7252c0,0.9513-0.7738,1.7251-1.7251,1.7251h-1.3869V12.58091z     M28.49329,50.791c-0.3181,0.03541-0.8252,0.06811-1.6176,0.06811c-0.0004,0-0.00068,0-0.00068,0    c-0.35951,0-0.74811-0.0072-1.15582-0.0194v-5.983v-2.4643v-23.8969v-2.4643V5.50911c1.672,0.0605,2.4482,0.2292,2.7741,0.3403    V50.791z M23.25489,42.39241h-1.3873c-0.9512,0-1.7252-0.7738-1.7252-1.7251c0-0.95131,0.774-1.7252,1.7252-1.7252h1.3873    V42.39241z M23.25489,16.03121h-1.3873c-0.9512,0-1.7252-0.7738-1.7252-1.7251c0-0.9513,0.774-1.7252,1.7252-1.7252h1.3873    V16.03121z M10.77469,49.49051c-3.2214,0-5.8421-2.6236-5.8421-5.8484v-31.297c0-3.5305,3.1045-5.5108,5.9962-5.858    c0.0739-0.0093,6.9666-0.8692,12.3261-0.9877v4.6172h-1.3873c-2.3099,0-4.1895,1.8795-4.1895,4.1895    c0,2.30989,1.8796,4.1894,4.1895,4.1894h1.3873v17.9823h-1.3873c-2.3099,0-4.1895,1.8795-4.1895,4.1895    c0,2.3099,1.8796,4.1894,4.1895,4.1894h1.3873v5.8622c-5.3785-0.3445-12.2397-1.2078-12.3255-1.21891L10.77469,49.49051z     M39.95639,89.10161L36.045,57.39971l15.78579,7.1345l5.6706,26.3329L39.95639,89.10161z M66.51429,97.81851h-6.96021    l0.8771,5.78809l-18.3178,2.97871l-1.8475-14.9758l25.7348,2.58929v0.0081l0.08431,0.0004l0.42929,0.04321V97.81851z     M68.97858,94.22281l10.297,0.055l-0.28011,1.3053c-0.2952,1.354-0.128,2.734,0.45631,3.9678l-10.47321-1.78992V94.22281z     M121.00588,69.89061l-7.1468,33.2945c-0.3738,1.7142-1.9267,2.95869-3.6924,2.95869c-0.27368,0-0.54968-0.0299-0.8203-0.089    l-25.0348-5.45881c-0.2759-0.06009-0.53699-0.15501-0.7874-0.2701l0.0131-0.0768l-0.2186-0.0373    c-0.5591-0.3004-1.0452-0.7227-1.3982-1.2685c-0.5473-0.8471-0.7313-1.8537-0.5164-2.839l6.31692-29.4299l1.28779-4.9961    c0.6707-1.10231,1.8886-1.8272,3.2341-1.8272c0.2737,0,0.5497,0.02989,0.8203,0.089l25.0345,5.4584    c0.4639,0.1012,0.88309,0.2919,1.2591,0.5361c0.19209,0.161,0.32021,0.2641,0.34779,0.286l0.33142,0.262    C120.87739,67.35991,121.28259,68.62141,121.00588,69.89061z M112.30408,57.75871c0.9934,1.7222,2.2152,3.2859,3.3787,4.5909    l-22.0946-4.8174c-0.4428-0.0967-0.8953-0.1454-1.3453-0.1454c-0.78371,0-1.5371,0.1588-2.2392,0.4315l3.13932-12.179v-11.0905    h15.27978l0.0005,8.1176C108.44019,43.037,108.874,51.81141,112.30408,57.75871z M111.40059,98.634    c-0.28951,1.26611-1.052,2.34461-2.147,3.03712c-0.7842,0.4964-1.6723,0.75179-2.5758,0.75179    c-0.3609,0-0.724-0.0405-1.0843-0.12299l-21.5897-4.93771l0.5495-2.4024l21.5896,4.9376    c0.6185,0.142,1.2548,0.03159,1.7936-0.3087c0.5411-0.3424,0.9183-0.87671,1.0617-1.5041    c0.2956-1.2924-0.5044-2.5819-1.783-2.8742l-21.59-4.9379l0.5494-2.40251l21.59,4.938    C110.36778,93.40311,111.99879,96.01671,111.40059,98.634z M113.90888,82.181c0.68481,1.09941,0.9028,2.40241,0.6134,3.66861    c-0.5161,2.2549-2.5218,3.7876-4.7317,3.7876c-0.3551,0-0.7151-0.0393-1.0754-0.1217l-21.59-4.938l0.5493-2.4024l21.5901,4.93789    c1.2782,0.29191,2.5592-0.52049,2.85519-1.81279c0.14371-0.6278,0.0361-1.2727-0.3026-1.8163    c-0.3369-0.5411-0.8625-0.9165-1.4807-1.0578l-21.5896-4.938l0.5493-2.4024l21.5897,4.9379    C112.14868,80.31241,113.22228,81.07841,113.90888,82.181z M117.30248,73.22751c-0.516,2.2549-2.5217,3.7876-4.7317,3.7876    c-0.3551,0-0.715-0.0392-1.0753-0.1217l-21.5897-4.9377l0.5494-2.4024l21.5896,4.9376c1.2776,0.2919,2.56-0.5208,2.8553-1.8128    c0.2956-1.2924-0.5044-2.5819-1.7829-2.8742L91.52708,64.866l0.5494-2.40249l21.59,4.938    C116.26978,67.99661,117.90069,70.61021,117.30248,73.22751z"/>
	</symbol>

	<symbol viewBox="0 0 155 100" id='catalog4' >
		<path d="M144.03001,16.39612l-1.31134-4.10583L76.70121,12.3327L31.74113,59.41937l-0.35669,0.00189    C17.98557,59.49213,7.6475,59.43835,7.6475,59.43835L7.40092,60.5213l-1.73956,7.34418L23.59165,86.25H13.13298v2h112.94189v-2    h-8.96277c-7.43994-7.54852-14.48462-14.71613-19.82513-20.19043c4.40424-4.56244,10.71191-11.09503,16.83325-17.43475    c7.24786-7.50629,14.23182-14.89258,17.47749-18.25598l0.33191-0.34375c0.11322-0.11774,0.2218-0.22968,0.32397-0.33557    l0.02423-0.02551c1.7384-1.79901,10.77277-10.92407,11.45789-11.61627l0.6214-0.6275L144.03001,16.39612z M29.91184,61.31647    l-5.24396,5.43848l3.28302,3.34564l0.71558,0.72925l0.80615,0.79156L43.62272,86.25h-8.93842    C23.86112,75.07684,14.33744,65.08167,10.73716,61.29407C14.10008,61.31927,21.03666,61.3562,29.91184,61.31647z M100.80845,86.25    H46.24937L31.3372,70.83325c7.99005,0.00964,39.30811,0.04602,54.32361,0.03101L100.80845,86.25z M88.30668,70.86072    c1.60901-0.00275,2.91974-0.00635,3.85437-0.01099L107.33817,86.25h-3.88031L88.30668,70.86072z M7.74278,67.29547    l1.23932-5.10742C12.12333,65.49432,21.34983,75.18506,32.05595,86.25h-5.82697L7.74278,67.29547z M114.4846,86.25h-4.49585    L93.72642,69.74866c0.63843-0.66162,1.39441-1.44495,2.24872-2.33002C101.03855,72.60864,107.56767,79.2442,114.4846,86.25z     M131.5529,27.70184l-0.00262-0.00287l-0.63165,0.6543c-0.00787,0.00842-0.0163,0.01685-0.02423,0.02502l-0.33557,0.34821    c-3.08814,3.20013-10.30122,10.82397-17.79725,18.58679c-8.43628,8.73743-17.2298,17.84467-20.90118,21.64978    c-9.33771,0.04138-50.24871-0.00525-60.21466-0.01764L79.42319,18.047l61.41846,0.24054    C138.3372,20.81909,133.56004,25.64996,131.5529,27.70184z M78.61033,16.15997L29.27574,68.70203l-0.38287-0.33722    l-1.59094-1.6214l50.20581-52.52686l63.83387-0.03076l0.70679,2.21246L78.61033,16.15997z M89.93388,67.39349l0.5816,0.00049    l0.5816-0.59662l43.5893-44.8988l0.83551-0.85767l0.95819-0.9776l-37.4524,0.2876v-0.00024l-18.52795-0.3576L35.5568,67.35449    L89.93388,67.39349z M81.30997,21.87689l44.91003,0.06659L87.72318,61.7832H43.51017L81.30997,21.87689z M88.3021,63.67126    h0.22034l0.66022-0.6806l39.68171-41.06128l3.17273-0.01691l-42.31763,43.5929l-49.7417-0.03583l1.72321-1.79828H88.3021z"/>
	</symbol>

	<symbol viewBox="0 0 85 93" id='catalog5' >
		<path d="M71.83334,83.75v-74h-10h-2h-8h-2h-8h-2h-8h-2h-10v74h-9v2h9h10h2h8h2h8h2h8h2h10h8v-2H71.83334z     M21.83333,83.75v-72h8v72H21.83333z M31.83333,83.75v-72h8v72H31.83333z M41.83333,83.75v-72h8v72H41.83333z M51.83333,83.75v-72    h8v72H51.83333z M61.83333,83.75v-72h8v72H61.83333z"/>
	</symbol>

	<symbol viewBox="0 0 136 82" id='catalog6' >
		<path d="M122.5461,42.55971l-0.13125-0.19992l12.24583-28.30661l-0.27533-0.41932    c-0.27585-0.42008-6.86627-10.28583-17.36078-10.11873c-4.53133,0.07004-7.7228,2.11389-10.53857,3.91714    c-2.4631,1.57736-4.78975,3.06748-7.70545,3.06748c-2.88219,0-5.41692-1.64272-8.10061-3.38189    c-3.15617-2.04544-6.41927-4.16582-10.64365-3.94212c-4.93223,0.25479-7.89639,2.55057-10.51157,4.57593    c-2.41388,1.86951-4.50393,3.46989-7.77684,3.4154c-3.16136-0.06665-5.10688-1.63155-7.35979-3.4434    c-2.30778-1.85623-4.92348-3.96023-9.13201-4.20703c-10.56251-0.62038-15.52848,8.9696-15.59693,9.10764L2.35209,74.08278    l0.17706,0.07864l4.31231,3.72106l0.16943-0.19638l0.04906,0.03548l0.4203-0.5794l0.5763-0.66785l-0.03577-0.03087    c1.27427-1.54581,5.33903-5.96635,9.97888-5.7345c2.81706,0.13827,4.58167,1.56144,6.62529,3.20937    c2.49193,2.00959,5.31623,4.28741,10.4856,4.28741c4.66295,0,7.7527-2.34273,10.47866-4.4099    c2.46393-1.86816,4.59412-3.47948,7.54847-3.4268c3.56642,0.06641,6.44024,1.90943,9.21941,3.6917    c2.78567,1.78642,5.66635,3.63389,9.18288,3.63389c4.85699,0,7.67202-1.88868,10.39406-3.7151    c2.40815-1.61571,4.68242-3.14189,8.36371-3.27012c6.73608-0.24204,12.01241,6.99322,12.06508,7.06642l0.54301,0.75397    l0.15804-0.11351l0.03351,0.05517l4.9822-3.02249l0.0172,0.00747l0.01049-0.02423l0.03366-0.02037l-0.01502-0.0228    l14.11595-32.62934L122.5461,42.55971z M107.4891,8.99845c2.73434-1.75117,5.56174-3.56174,9.56401-3.62348    c0.07343-0.00128,0.14634-0.00181,0.21933-0.00181c8.20355,0,13.96091,7.10265,15.27436,8.88235l-11.39104,26.33091    c-2.14574-2.71721-8.06734-9.06432-16.48032-8.92235c-4.53133,0.07004-7.72282,2.11389-10.53859,3.91722    c-1.89555,1.21404-3.71133,2.37336-5.77594,2.84453l11.61731-26.13702C102.87143,11.95362,105.21483,10.45512,107.4891,8.99845z     M18.57151,42.39986l0.41879-0.83034c0.04332-0.08611,4.45042-8.59254,13.80764-8.04711    c3.61518,0.21193,5.78175,1.95457,8.07541,3.7994c1.68763,1.35743,3.41985,2.74536,5.71276,3.42559L32.78663,71.79387    c-1.93359-0.58702-3.44363-1.84158-5.01744-3.15132c-2.34068-1.94838-4.99171-4.15518-9.30144-4.15518    c-0.01404,0-0.02884,0-0.0428,0c-5.32235,0.01811-9.34092,2.5311-11.95074,4.89865l12.00945-27.03053L18.57151,42.39986z     M48.45783,41.11555c0.29283,0.03019,0.59117,0.05329,0.90226,0.05985c3.92469,0.08227,6.48748-1.89336,8.95481-3.80431    c2.51631-1.94891,5.11827-3.96416,9.46824-4.18914c3.6191-0.18581,6.49503,1.67465,9.53654,3.64582    c2.51495,1.62997,5.10838,3.30507,8.10591,3.62272L71.64293,71.45923c-2.7373-0.13057-5.20538-1.70431-7.81096-3.37064    c-3.19721-2.04461-6.50227-4.15775-10.72491-3.94061c-4.93768,0.2551-7.86032,2.55396-10.43897,4.5825    c-2.37178,1.86581-4.40884,3.47374-7.69375,3.40868c-0.10166-0.00219-0.19925-0.01064-0.29865-0.01615L48.45783,41.11555z     M87.45963,40.45366c2.97095-0.29539,5.36212-1.82143,7.68032-3.30626c2.73434-1.7511,5.56174-3.56167,9.56401-3.62348    c0.07343-0.00129,0.14634-0.00181,0.21925-0.00181c8.45428,0,14.31029,7.54296,15.38206,9.0302l-13.42938,31.04262    c-2.01252-2.59653-8.00832-9.2339-16.62486-9.10757c-4.53133,0.07011-7.7228,2.11389-10.53858,3.91721    c-1.95125,1.24944-3.81789,2.44106-5.95827,2.88378L87.45963,40.45366z M70.66352,9.22207    c2.51653-1.94884,5.1185-3.96438,9.46877-4.18906c3.61955-0.18476,6.49473,1.67457,9.53624,3.64551    c2.55843,1.6582,5.19813,3.36348,8.2619,3.63835L86.22952,38.64189c-2.79842-0.07464-5.27789-1.67654-7.89843-3.37487    c-3.15623-2.04536-6.41775-4.16627-10.64394-3.94234c-4.93201,0.25479-7.89616,2.55057-10.51134,4.57601    c-2.41381,1.86943-4.49631,3.47223-7.77684,3.4154c-0.04709-0.00106-0.09147-0.00544-0.13811-0.0071l11.7007-26.32465    c0.2434,0.02151,0.49162,0.03668,0.74739,0.04211C65.64042,13.11098,68.1962,11.13332,70.66352,9.22207z M31.33916,13.42057    c0.04362-0.08611,4.44733-8.59338,13.80795-8.04718c3.61517,0.212,5.78175,1.95457,8.07542,3.7994    c1.72302,1.38596,3.49026,2.80627,5.85555,3.46989L47.34809,39.03314c-2.04295-0.53759-3.58718-1.77571-5.30891-3.16046    c-2.308-1.85623-4.92371-3.96031-9.13224-4.20703c-5.10355-0.30075-8.89737,1.78498-11.46484,4.03095L31.33916,13.42057z     M103.41845,76.10135c-1.50981-1.86959-6.59473-7.46937-13.18553-7.25072c-4.21171,0.14656-6.81624,1.89434-9.33519,3.5843    c-2.60559,1.74853-5.06686,3.39978-9.35775,3.39978c-2.9714,0-5.50099-1.62219-8.17873-3.33963    c-2.99714-1.92181-6.09616-3.90936-10.18877-3.98544c-3.61729-0.07056-6.19692,1.90091-8.70704,3.80439    c-2.61412,1.98204-5.31752,4.03185-9.35488,4.03185c-4.51291,0-6.95586-1.97012-9.31827-3.8754    c-2.10378-1.69668-4.27941-3.45117-7.7013-3.61932c-5.50439-0.27268-10.00485,4.57208-11.48206,6.37412l-1.63412-1.40997    c1.41155-1.91751,6.11646-7.44311,13.45632-7.46802c0.01246,0,0.02468,0,0.03713,0c3.63593,0,5.80997,1.80952,8.11126,3.72462    c2.27291,1.89185,4.62318,3.84823,8.35594,3.92657c3.93638,0.0846,6.45193-1.89412,8.88266-3.80612    c2.4763-1.94816,5.03706-3.96235,9.38492-4.1871c3.62114-0.18552,6.67669,1.7634,9.62681,3.65019    c2.82642,1.80748,5.74907,3.67646,9.17692,3.67646c3.46031,0,6.12839-1.7086,8.70884-3.36114    c2.73427-1.75117,5.56167-3.56174,9.56402-3.62348c7.83413-0.1378,13.45572,6.24303,15.20562,8.50017L103.41845,76.10135z"/>
	</symbol>

	<symbol viewBox="0 0 100 100" id='catalog7' >
		<path  d="M75.85291,86.23828v-40.5199l-10.44592-9.7558L41.31775,12.5188l-17.17993,0.00464l-0.00714,73.71484    H14.875v2.00391h69.0752v-2.00391H75.85291z M74.00519,86.23828H58.24146V47.5661h15.76373V86.23828z M46.40845,58.9585    l0.10291,0.10077v27.17902H35.49371V48.16852C40.93915,53.59912,46.35034,58.90167,46.40845,58.9585z M35.49371,45.5575V26.61823    c3.26868,3.263,7.04028,7.02667,10.92792,10.90338l0.08972,0.08942v18.85944c-2.08923-2.0531-6.61084-6.50616-10.91351-10.80878    L35.49371,45.5575z M48.35901,58.28296V39.3703l8.03473,8.03497v38.83301h-8.03473V58.2876l0.00232-0.00238L48.35901,58.28296z     M73.13574,45.71838H57.32025l-7.90802-7.90814h15.24408L73.13574,45.71838z M62.75769,35.96259H47.47522    c-3.6004-3.59021-7.09253-7.07471-10.17041-10.14716h15.02643L62.75769,35.96259z M25.97809,14.37061l14.58905-0.00415    l9.86554,9.60132H35.45386c-5.42175-5.41309-9.1579-9.14697-9.1579-9.14697l-0.31787-0.31763V14.37061z M25.97809,17.11523    c1.38623,1.38501,4.14172,4.1377,7.66791,7.65839v21.53326l-0.008,0.00806l0.008,0.008v39.91534h-7.66791V17.11523z"/>
	</symbol>

	<use xlink:href="#catalog1" width="100" height="100" x="0" y="0"/>
	<use xlink:href="#catalog2" width="100" height="100" x="150" y="0"/>
	<use xlink:href="#catalog3" width="130" height="113" x="300" y="0"/>
	<use xlink:href="#catalog4" width="100" height="100" x="450" y="0"/>
	<use xlink:href="#catalog5" width="100" height="100" x="600" y="0"/>
	<use xlink:href="#catalog6" width="136" height="82" x="750" y="0"/>
	<use xlink:href="#catalog7" width="100" height="100" x="900" y="0"/>
</svg>
