
<svg class="hover-check" xmlns="http://www.w3.org/2000/svg" xmlns:xlink="http://www.w3.org/1999/xlink">
	<defs>
    <link href="/template/css/svg-base.css" type="text/css" rel="stylesheet" xmlns="http://www.w3.org/1999/xhtml"/>
  </defs>
	<symbol viewBox="0 0 240 98" id='logo' class="animated-svg animated-svg_logo">

		<g>
			<path class="st0" d="M200.6,95.7c0.5,0,1-0.1,1.3-0.4v1.6c-0.4,0.2-0.8,0.3-1.4,0.3c-0.9,0-1.6-0.3-2.2-0.8c-0.6-0.5-0.9-1.2-0.9-2
				c0-0.8,0.3-1.5,0.9-2c0.6-0.5,1.3-0.8,2.2-0.8c0.5,0,1,0.1,1.3,0.3v1.5c-0.4-0.2-0.9-0.3-1.3-0.3c-0.4,0-0.7,0.1-1,0.4
				c-0.3,0.2-0.4,0.5-0.4,0.9c0,0.4,0.1,0.7,0.4,0.9C199.8,95.5,200.2,95.7,200.6,95.7z"/>
			<path class="st0" d="M152.6,93.5c0,1.3-0.2,1.8-0.3,2c-0.1,0.1-0.2,0.1-0.4,0.1c-0.1,0-0.2,0-0.4-0.1V97c0.2,0.1,0.4,0.1,0.7,0.1
				c0.6,0,1-0.2,1.3-0.7c0.3-0.5,0.5-1.4,0.5-2.7l0-0.6h1.1V97h1.6v-5.3h-4.2L152.6,93.5z"/>
			<path class="st0" d="M193.6,91.7H192l-2.2,5.3h1.7l0.4-1h1.7l0.4,1h1.7L193.6,91.7z M192.4,94.8l0.4-1.3l0.4,1.3H192.4z"/>
			<path class="st0" d="M207.8,91.7h-1.6L204,97h1.7l0.4-1h1.7l0.4,1h1.7L207.8,91.7z M206.6,94.8l0.4-1.3l0.4,1.3H206.6z"/>
			<path class="st0" d="M133.8,92.2c-0.4-0.3-0.8-0.5-1.5-0.5h-2.4V97h1.6v-1.8h0.8c0.6,0,1.1-0.2,1.5-0.5c0.4-0.3,0.6-0.7,0.6-1.2
				C134.4,93,134.2,92.5,133.8,92.2z M132.2,94h-0.6v-0.9h0.6c0.3,0,0.6,0.2,0.6,0.5C132.7,93.8,132.5,94,132.2,94z"/>
			<path class="st0" d="M141.4,92.4c-0.5-0.5-1.2-0.8-2-0.8c-0.8,0-1.5,0.3-2,0.8c-0.5,0.5-0.8,1.2-0.8,1.9c0,0.8,0.3,1.4,0.8,1.9
				c0.5,0.5,1.2,0.8,2,0.8c0.8,0,1.5-0.3,2-0.8c0.5-0.5,0.8-1.2,0.8-2C142.2,93.6,142,93,141.4,92.4z M140.2,95.3
				c-0.2,0.2-0.5,0.4-0.8,0.4c-0.3,0-0.6-0.1-0.8-0.4c-0.2-0.2-0.3-0.5-0.3-0.9c0-0.4,0.1-0.7,0.3-0.9c0.2-0.2,0.5-0.4,0.8-0.4
				c0.3,0,0.6,0.1,0.8,0.4c0.2,0.2,0.3,0.5,0.3,0.9C140.6,94.8,140.4,95.1,140.2,95.3z"/>
			<path class="st0" d="M187.5,92.7c-0.4-0.5-1-0.7-1.8-0.7v-0.5H184v0.5c-0.8,0-1.4,0.3-1.8,0.7c-0.4,0.5-0.7,1-0.7,1.6
				c0,0.6,0.2,1.2,0.7,1.6c0.4,0.5,1.1,0.7,1.8,0.7v0.6h1.6v-0.6c0.8,0,1.4-0.3,1.8-0.7c0.4-0.5,0.7-1,0.7-1.6
				C188.1,93.7,187.9,93.1,187.5,92.7z M184,95.3c-0.4,0-0.8-0.4-0.8-1c0-0.6,0.4-1,0.8-1V95.3z M185.7,95.3v-2c0.4,0,0.8,0.4,0.8,1
				C186.5,94.9,186.1,95.3,185.7,95.3z"/>
			<path class="st0" d="M216.9,95.6v-3.9h-4.1v1c0,1.3-0.2,2.3-0.5,2.9h-0.5V98h1.5v-1h2.8v1h1.5v-2.4H216.9z M215.3,95.6h-1.4
				c0.1-0.3,0.2-0.7,0.3-1.1c0.1-0.5,0.1-0.9,0.1-1.4h1V95.6z"/>
			<polygon class="st0" points="172,94.4 172,91.7 170.4,91.7 170.4,97 171.8,97 173.8,94.4 173.8,97 175.4,97 175.4,91.7 174,91.7
				"/>
			<path class="st0" d="M149.1,94.6c-0.2-0.3-0.4-0.4-0.7-0.5c0.1-0.1,0.3-0.2,0.4-0.4c0.1-0.2,0.2-0.4,0.2-0.6c0-0.4-0.2-0.8-0.5-1
				c-0.3-0.2-0.7-0.3-1.2-0.3h-2.7V97h2.8c0.6,0,1.1-0.1,1.4-0.4c0.4-0.3,0.5-0.7,0.5-1.1C149.5,95.1,149.3,94.8,149.1,94.6z
				 M146.3,93h0.8c0.2,0,0.4,0.2,0.4,0.4c0,0.2-0.2,0.3-0.4,0.3h-0.8V93z M147.2,95.7h-0.9v-0.9h0.9c0.3,0,0.5,0.2,0.5,0.4
				C147.7,95.6,147.5,95.7,147.2,95.7z"/>
			<path class="st0" d="M161.5,91.7c-0.6,0-1.1,0.2-1.4,0.5c-0.4,0.3-0.5,0.7-0.5,1.2c0,0.7,0.4,1.2,1,1.5l-1.6,2.1h1.9l1.4-1.9h0.2
				V97h1.6v-5.3H161.5z M162.4,94h-0.7c-0.3,0-0.5-0.2-0.5-0.4c0-0.3,0.2-0.4,0.5-0.4h0.7V94z"/>
			<polygon class="st0" points="127.4,91.7 125.5,91.7 124,93.7 124,91.7 122.4,91.7 122.4,97 124,97 124,94.7 125.8,97 127.8,97
				125.6,94.2 	"/>
		</g>
		<g class='hover-animation hover-animation_logo'>
			<polygon class="st0" points="203.3,56.9 203.3,79.4 210.7,79.4 210.7,71.8 217.6,71.8 217.6,65.6 210.7,65.6 210.7,63.2
				218.5,63.2 218.5,56.9 	"/>
			<path class="st0" d="M168.8,63.1c-0.6-1.4-1.5-2.7-2.6-3.7c-1.1-1-2.4-1.8-4-2.3c-1.5-0.5-3.2-0.8-5-0.8c-1.8,0-3.4,0.3-5,0.8
				c-1.5,0.6-2.8,1.3-4,2.3c-1.1,1-2,2.2-2.6,3.7c-0.6,1.4-1,3.1-1,4.9c0,1.8,0.3,3.4,1,4.9c0.6,1.5,1.5,2.7,2.6,3.8s2.4,1.9,4,2.4
				c1.5,0.6,3.2,0.9,5,0.9c1.8,0,3.4-0.3,5-0.9c1.5-0.6,2.8-1.4,4-2.4c1.1-1,2-2.3,2.6-3.8c0.6-1.5,1-3.1,1-4.9
				C169.8,66.2,169.5,64.6,168.8,63.1z M161.4,70c-0.2,0.6-0.5,1.1-0.9,1.6c-0.4,0.4-0.9,0.8-1.4,1c-0.5,0.2-1.1,0.4-1.8,0.4
				c-0.6,0-1.2-0.1-1.8-0.4c-0.6-0.2-1-0.6-1.4-1c-0.4-0.4-0.7-1-0.9-1.6c-0.2-0.6-0.3-1.3-0.3-2c0-0.7,0.1-1.4,0.3-2
				c0.2-0.6,0.5-1.1,0.9-1.5c0.4-0.4,0.9-0.7,1.4-1c0.6-0.2,1.1-0.3,1.8-0.3c0.6,0,1.2,0.1,1.8,0.3c0.5,0.2,1,0.6,1.4,1
				c0.4,0.4,0.7,0.9,0.9,1.5c0.2,0.6,0.3,1.3,0.3,2C161.7,68.8,161.6,69.4,161.4,70z"/>
			<path class="st0" d="M197.9,63.1c-0.6-1.4-1.5-2.7-2.6-3.7c-1.1-1-2.4-1.8-4-2.3c-1.5-0.5-3.2-0.8-5-0.8c-1.8,0-3.4,0.3-5,0.8
				c-1.5,0.6-2.8,1.3-4,2.3c-1.1,1-2,2.2-2.6,3.7c-0.6,1.4-1,3.1-1,4.9c0,1.8,0.3,3.4,1,4.9c0.6,1.5,1.5,2.7,2.6,3.8s2.4,1.9,4,2.4
				c1.5,0.6,3.2,0.9,5,0.9c1.8,0,3.4-0.3,5-0.9c1.5-0.6,2.8-1.4,4-2.4c1.1-1,2-2.3,2.6-3.8c0.6-1.5,1-3.1,1-4.9
				C198.9,66.2,198.5,64.6,197.9,63.1z M190.5,70c-0.2,0.6-0.5,1.1-0.9,1.6c-0.4,0.4-0.9,0.8-1.4,1c-0.5,0.2-1.1,0.4-1.8,0.4
				s-1.2-0.1-1.8-0.4c-0.6-0.2-1-0.6-1.4-1c-0.4-0.4-0.7-1-0.9-1.6c-0.2-0.6-0.3-1.3-0.3-2c0-0.7,0.1-1.4,0.3-2
				c0.2-0.6,0.5-1.1,0.9-1.5c0.4-0.4,0.9-0.7,1.4-1c0.6-0.2,1.1-0.3,1.8-0.3s1.2,0.1,1.8,0.3c0.5,0.2,1,0.6,1.4,1
				c0.4,0.4,0.7,0.9,0.9,1.5c0.2,0.6,0.3,1.3,0.3,2C190.8,68.8,190.7,69.4,190.5,70z"/>
			<path class="st0" d="M137.3,70.3c1.3-0.6,2.2-1.4,2.9-2.4c0.7-1,1-2.3,1-3.6c0-1.4-0.3-2.6-0.8-3.5c-0.5-0.9-1.2-1.7-2.1-2.3
				c-0.9-0.6-1.8-1-2.9-1.2c-1.1-0.2-2.2-0.3-3.3-0.3h-9.7v22.5h7.3v-8h0.2l4.3,8h8.7L137.3,70.3z M133.6,65.5
				c-0.2,0.2-0.4,0.4-0.7,0.6c-0.3,0.1-0.5,0.2-0.9,0.3c-0.3,0-0.6,0.1-0.8,0.1h-1.5v-3.6h1.8c0.2,0,0.5,0,0.8,0
				c0.3,0,0.5,0.1,0.8,0.2c0.2,0.1,0.4,0.3,0.6,0.5c0.1,0.2,0.2,0.5,0.2,1C133.9,64.9,133.8,65.3,133.6,65.5z"/>
		</g>
		<g>
			<rect x="144.1" y="28.4" class="st0" width="7.6" height="22.5"/>
			<polygon class="st0" points="166,40.1 166.1,40.1 172.3,50.9 180.1,50.9 180.1,28.4 172.9,28.4 173.2,39.8 173.1,39.8 166.7,28.4
				159.1,28.4 159.1,50.9 166.3,50.9 	"/>
			<polygon class="st0" points="129.9,43.3 136.8,43.3 136.8,37.1 129.9,37.1 129.9,34.7 137.7,34.7 137.7,28.4 122.5,28.4
				122.5,50.9 129.9,50.9 	"/>
			<polygon class="st0" points="203.4,44.6 194.5,44.6 194.5,42.5 202.4,42.5 202.4,36.6 194.5,36.6 194.5,34.7 202.9,34.7
				202.9,28.4 187.4,28.4 187.4,50.9 203.4,50.9 	"/>
		</g>
		<g>
			<path class="st0" d="M54.6,71.3c-0.7,0-1.2,0.5-1.2,1.2c0,0.7,0.5,1.2,1.2,1.2c0.7,0,1.2-0.5,1.2-1.2
				C55.7,71.8,55.2,71.3,54.6,71.3z"/>
			<path class="st0" d="M52.4,68.3c-0.7,0-1.2,0.5-1.2,1.2c0,0.7,0.5,1.2,1.2,1.2c0.7,0,1.2-0.5,1.2-1.2
				C53.6,68.8,53.1,68.3,52.4,68.3z"/>
			<path class="st0" d="M58.8,77.5c-0.7,0-1.2,0.5-1.2,1.2c0,0.7,0.5,1.2,1.2,1.2c0.7,0,1.2-0.5,1.2-1.2C60,78,59.4,77.5,58.8,77.5z"
				/>
			<path class="st0" d="M58.8,73.6c0.7,0,1.2-0.5,1.2-1.2c0-0.7-0.5-1.2-1.2-1.2c-0.7,0-1.2,0.5-1.2,1.2
				C57.6,73.1,58.1,73.6,58.8,73.6z"/>
			<path class="st0" d="M56.7,68.3c-0.7,0-1.2,0.5-1.2,1.2c0,0.7,0.5,1.2,1.2,1.2c0.7,0,1.2-0.5,1.2-1.2
				C57.9,68.8,57.3,68.3,56.7,68.3z"/>
			<path class="st0" d="M56.7,74.3c-0.7,0-1.2,0.5-1.2,1.2c0,0.7,0.5,1.2,1.2,1.2c0.7,0,1.2-0.5,1.2-1.2
				C57.9,74.9,57.3,74.3,56.7,74.3z"/>
			<path class="st0" d="M52.4,74.3c-0.7,0-1.2,0.5-1.2,1.2c0,0.7,0.5,1.2,1.2,1.2c0.7,0,1.2-0.5,1.2-1.2
				C53.6,74.9,53.1,74.3,52.4,74.3z"/>
			<path class="st0" d="M50.3,71.3c-0.7,0-1.2,0.5-1.2,1.2c0,0.7,0.5,1.2,1.2,1.2c0.7,0,1.2-0.5,1.2-1.2C51.5,71.8,51,71.3,50.3,71.3z
				"/>
			<path class="st0" d="M54.6,77.5c-0.7,0-1.2,0.5-1.2,1.2c0,0.7,0.5,1.2,1.2,1.2c0.7,0,1.2-0.5,1.2-1.2C55.7,78,55.2,77.5,54.6,77.5z
				"/>
			<path class="st0" d="M60.9,80.8c-0.7,0-1.2,0.5-1.2,1.2c0,0.7,0.5,1.2,1.2,1.2s1.2-0.5,1.2-1.2C62.1,81.3,61.5,80.8,60.9,80.8z"/>
			<path class="st0" d="M41.9,71.3c-0.7,0-1.2,0.5-1.2,1.2c0,0.7,0.5,1.2,1.2,1.2s1.2-0.5,1.2-1.2C43.1,71.8,42.6,71.3,41.9,71.3z"/>
			<path class="st0" d="M39.8,70.6c0.7,0,1.2-0.5,1.2-1.2c0-0.7-0.5-1.2-1.2-1.2c-0.7,0-1.2,0.5-1.2,1.2
				C38.6,70.1,39.1,70.6,39.8,70.6z"/>
			<path class="st0" d="M39.8,74.3c-0.7,0-1.2,0.5-1.2,1.2c0,0.7,0.5,1.2,1.2,1.2c0.7,0,1.2-0.5,1.2-1.2C41,74.9,40.4,74.3,39.8,74.3z
				"/>
			<path class="st0" d="M37.7,71.3c-0.7,0-1.2,0.5-1.2,1.2c0,0.7,0.5,1.2,1.2,1.2c0.7,0,1.2-0.5,1.2-1.2
				C38.9,71.8,38.3,71.3,37.7,71.3z"/>
			<path class="st0" d="M60.9,74.3c-0.7,0-1.2,0.5-1.2,1.2c0,0.7,0.5,1.2,1.2,1.2s1.2-0.5,1.2-1.2C62.1,74.9,61.5,74.3,60.9,74.3z"/>
			<path class="st0" d="M48.3,74.3c-0.7,0-1.2,0.5-1.2,1.2c0,0.7,0.5,1.2,1.2,1.2c0.7,0,1.2-0.5,1.2-1.2
				C49.4,74.9,48.9,74.3,48.3,74.3z"/>
			<path class="st0" d="M48.3,70.6c0.7,0,1.2-0.5,1.2-1.2c0-0.7-0.5-1.2-1.2-1.2c-0.7,0-1.2,0.5-1.2,1.2
				C47.1,70.1,47.6,70.6,48.3,70.6z"/>
			<path class="st0" d="M46.1,71.3c-0.7,0-1.2,0.5-1.2,1.2c0,0.7,0.5,1.2,1.2,1.2c0.7,0,1.2-0.5,1.2-1.2
				C47.3,71.8,46.8,71.3,46.1,71.3z"/>
			<path class="st0" d="M44,74.3c-0.7,0-1.2,0.5-1.2,1.2c0,0.7,0.5,1.2,1.2,1.2c0.7,0,1.2-0.5,1.2-1.2C45.2,74.9,44.7,74.3,44,74.3z"
				/>
			<path class="st0" d="M44,70.6c0.7,0,1.2-0.5,1.2-1.2c0-0.7-0.5-1.2-1.2-1.2c-0.7,0-1.2,0.5-1.2,1.2C42.8,70.1,43.4,70.6,44,70.6z"
				/>
			<path class="st0" d="M60.9,68.3c-0.7,0-1.2,0.5-1.2,1.2c0,0.7,0.5,1.2,1.2,1.2s1.2-0.5,1.2-1.2C62.1,68.8,61.5,68.3,60.9,68.3z"/>
			<path class="st0" d="M50.3,67.5c0.7,0,1.2-0.5,1.2-1.2c0-0.7-0.5-1.2-1.2-1.2c-0.7,0-1.2,0.5-1.2,1.2C49.1,67,49.7,67.5,50.3,67.5z
				"/>
			<path class="st0" d="M54.6,67.5c0.7,0,1.2-0.5,1.2-1.2c0-0.7-0.5-1.2-1.2-1.2c-0.7,0-1.2,0.5-1.2,1.2C53.4,67,53.9,67.5,54.6,67.5z
				"/>
			<path class="st0" d="M52.4,64.6c0.7,0,1.2-0.5,1.2-1.2c0-0.7-0.5-1.2-1.2-1.2c-0.7,0-1.2,0.5-1.2,1.2
				C51.3,64.1,51.8,64.6,52.4,64.6z"/>
			<path class="st0" d="M48.3,64.6c0.7,0,1.2-0.5,1.2-1.2c0-0.7-0.5-1.2-1.2-1.2c-0.7,0-1.2,0.5-1.2,1.2
				C47.1,64.1,47.6,64.6,48.3,64.6z"/>
			<path class="st0" d="M46.1,67.5c0.7,0,1.2-0.5,1.2-1.2c0-0.7-0.5-1.2-1.2-1.2c-0.7,0-1.2,0.5-1.2,1.2C44.9,67,45.5,67.5,46.1,67.5z
				"/>
			<path class="st0" d="M60.9,64.6c0.7,0,1.2-0.5,1.2-1.2c0-0.7-0.5-1.2-1.2-1.2s-1.2,0.5-1.2,1.2C59.7,64.1,60.2,64.6,60.9,64.6z"/>
			<path class="st0" d="M56.7,64.6c0.7,0,1.2-0.5,1.2-1.2c0-0.7-0.5-1.2-1.2-1.2c-0.7,0-1.2,0.5-1.2,1.2C55.5,64.1,56,64.6,56.7,64.6z
				"/>
			<path class="st0" d="M58.8,67.5c0.7,0,1.2-0.5,1.2-1.2c0-0.7-0.5-1.2-1.2-1.2c-0.7,0-1.2,0.5-1.2,1.2C57.6,67,58.1,67.5,58.8,67.5z
				"/>
			<path class="st0" d="M104.9,28.6l0-0.6c0-5-3.4-6.8-7.6-9.1c-0.6-0.3-1.3-0.7-2-1.1c-1-0.5-3.6-2-5.9-0.3c-1.3-0.7-2.4-0.9-3.4-0.7
				c-0.6,0.2-1.5,0.6-2.1,1.7c-0.1,0.1-0.1,0.2-0.2,0.3L50.8,0L0,29v58.4h0L0,97h100.5v-9.1V58c2.5-3.1,4-7.2,4.2-12.1
				c0-0.9,0-2.6,0.1-4.7c0-2.8,0.1-6.4,0.2-9.9C104.9,30.8,104.9,29.5,104.9,28.6z M85.9,19.7c0.2-0.4,0.5-0.5,0.6-0.6
				c0.2,0,0.6,0,1.2,0.2c0,0,0,0,0,0c-0.2,0.4-0.5,0.9-0.8,1.4l-1.2-0.7C85.8,19.9,85.9,19.8,85.9,19.7z M61.8,24.2h2.9v-2.3h-2.1
				c0-0.7-0.2-1.8-0.5-2.9l25.4,14.4c0,2.2,0,5,0,5.7c0,0.5,0,0.9,0,1.4c0,1.2,0,2.5-0.2,2.8c-0.1,0.1-0.3,0.1-0.7,0.1l-5.3,0v0
				l-0.6,0c-0.2,0-17,0-20.4,0v0c-1.2,0-2,0-2.3,0v-1.2c0.2,0,0.3-0.1,0.5-0.1c1.2-0.3,2.8-1.1,3.8-3.2c1.1-2.1,1.3-4,0.8-6.8
				c-0.1-0.6-0.3-1.2-0.5-2c0.1-0.1,0.1-0.2,0.2-0.3c0.5-0.8,0.6-1.7,0.4-2.6c-0.1-0.4-0.4-1.5-1.5-2.2L61.8,24.2z M79.6,45.7l0,16.5
				l-4.2,0l0.1-16.5C77.2,45.7,78.6,45.7,79.6,45.7z M73.1,45.7L73,62.2l-1.1,0c0-6.5-0.6-13.1-4.1-16.5
				C69.5,45.7,71.4,45.7,73.1,45.7z M58,45.8c-0.1,0.4-0.3,0.8-0.5,1.2c-0.7,1.4-1.7,2.3-2.4,2.3c-0.2,0-0.4-0.1-0.6-0.2
				c-1-0.6-1.6-2-1.9-3.3H58z M51.6,13.5c2.7-0.1,4.7,0.6,6.2,2.1c1.9,1.9,2.4,4.6,2.5,6.1h-0.8H44.9h-1C44,19.8,44.8,13.7,51.6,13.5z
				 M50,24.2c0,1-0.2,2.7-1.3,4c-1,1.1-2.5,1.7-4.5,1.8c0.2-1,0.4-2,0.5-2.9c0.2-1.5,0.2-2.6,0.2-2.9H50z M43.7,32.3L43.7,32.3
				c3,0.1,5.2-0.8,6.7-2.5c1.6-1.9,1.9-4.2,1.9-5.6h3v1.9h2.3v-1.9h1.7l0,2.5c0.5,0,1.3,0.1,1.5,1c0.3,1.2-1,1.5-1.1,1.5
				c0,0,0,0,0.1,0c0,0-0.5,0.2-1.9,0.2c-3.9,0-4.7,2-4.7,5.9h2.3c0-3.6,0.5-3.6,2.3-3.6c1.3,0,2.1-0.2,2.6-0.3c0.1,0.3,0.2,0.7,0.3,1
				c0,0.3,0,0.5,0.1,0.7h-2.7v2.3H61c-0.1,0.9-0.4,1.6-0.7,2.3c-0.4,0.7-1.1,1.6-2.4,2C57.2,40,56.5,40,56.1,40c-0.3,0-0.4,0-0.4,0
				v3.5h-2.9h0H50h-12c0,0,0.4-0.4,0.8-0.9c0.4-0.5,0.9-1.2,1.3-1.7c1-1.4,1.8-3.3,2.5-5.2C43.1,34.6,43.4,33.5,43.7,32.3z M49.8,45.8
				c-0.5,1.2-1.4,2.5-3.1,3.2c-0.3,0.1-0.7,0.2-1.1,0.2c-2.1,0-4.9-1.5-7.4-3.4H49.8z M9.7,36l32.9-18.9c-0.8,2-1,3.9-1,4.8l0,2.3h1
				c0,0.2,0,1.2-0.2,2.6c-0.1,1.1-0.6,4.8-1.9,8c-0.6,1.5-1.3,3.3-2.3,4.6l0,0c-0.3,0.5-0.7,1.1-1.1,1.5c-0.4,0.4-0.7,0.8-0.7,0.8
				l-1.5,1.5c-0.9,0-2.1,0-3.4,0c-1.1,0-2.2,0-3.2,0c-0.8,0-1.6,0-2.4,0h-0.2c-4.7,0-9.3,0.3-13.2,2.8c-1,0.7-1.9,1.4-2.7,2.2V36z
				 M31.5,57.4v22.1l-4.6,0c0-3.4-0.1-13.7-0.1-18.3c0-8.1-1.7-13.3-5.1-15.6c1.3-0.1,2.6-0.1,4-0.1l0.6,0.1
				C26.7,45.7,31.5,46.8,31.5,57.4z M13.7,48c0.4-0.3,0.9-0.5,1.3-0.7l0,0c0,0,2.8-1.4,5.3,0.2c2.8,1.7,4.2,6.5,4.2,13.8
				c0,0.7,0,1.4,0,2.3H6.3C6.5,58,8.5,51.3,13.7,48z M6.2,65.9h18.4c0,1.4,0,3,0,4.5l-18.4,0C6.2,69.2,6.2,67.6,6.2,65.9z M37,92.2
				c-2.9,0.9-6.5,1.6-10.9,1.6c-5.6,0-10-1.5-12.9-4.4c-3.4-3.4-5-8.6-5-15.9v-0.7l16.4,0c0,2.8,0,5.3,0,6.7c-0.6-0.1-1-0.2-1.2-0.4
				c0,0-0.1-0.1-0.1-0.4v-1.2H21v1.2c0,0.9,0.3,1.6,0.8,2.1c1,1,2.7,1.1,5.1,1.1c0.3,0,0.6,0,0.8,0l1.2,0l0,0l8.1,0V92.2z M46.8,87.2
				l-0.5,0L46,87.6c0,0-2.3,2.1-6.6,3.8v-9.6l8,0c0.1,0,4.6,0,6.9,1.8c1.3,1,1.7,2.7,1.9,3.7H46.8z M62.4,87.3h-3.9v-0.1h0
				c0-0.1,0-0.2-0.1-0.4c0.1,0,0.2,0.1,0.4,0.1c0.7,0,1.2-0.5,1.2-1.2c0-0.7-0.5-1.2-1.2-1.2c-0.3,0-0.6,0.1-0.8,0.4
				c-0.2-0.6-0.5-1.2-1-1.8c0.5-0.1,0.9-0.6,0.9-1.1c0-0.7-0.5-1.2-1.2-1.2c-0.5,0-1,0.4-1.1,0.9c-1.5-1.1-3.4-1.6-5.1-1.9
				c0.6-0.1,1-0.6,1-1.1c0-0.7-0.5-1.2-1.2-1.2c-0.7,0-1.2,0.5-1.2,1.2c0,0.5,0.3,0.8,0.7,1c-1.4-0.2-2.4-0.2-2.5-0.2l-0.4,0
				c0.2-0.2,0.4-0.5,0.4-0.9c0-0.7-0.5-1.2-1.2-1.2c-0.7,0-1.2,0.5-1.2,1.2c0,0.3,0.1,0.6,0.4,0.9l-2.6,0c0.2-0.2,0.4-0.5,0.4-0.9
				c0-0.7-0.5-1.2-1.2-1.2s-1.2,0.5-1.2,1.2c0,0.3,0.2,0.6,0.4,0.9l-2.6,0c0.2-0.2,0.4-0.5,0.4-0.9c0-0.7-0.5-1.2-1.2-1.2
				c-0.7,0-1.2,0.5-1.2,1.2c0,0.3,0.2,0.7,0.4,0.9l-3,0V61.7l28.5,0.1V87.3z M62.4,59.4l-28.5-0.1v-1.9c0-6.4-1.7-9.9-3.4-11.8
				c0.3,0,0.7,0,1,0c1.1,0,2.1,0,2.9,0c2.8,2.4,7.4,5.9,11.2,5.9c0.7,0,1.4-0.1,2-0.4c1.6-0.6,2.7-1.7,3.4-2.8
				c0.5,1.1,1.2,2.2,2.3,2.8c0.6,0.3,1.2,0.5,1.8,0.5c1.9,0,3.5-1.7,4.5-3.6c0.1-0.1,0.1-0.2,0.1-0.3c0.7,1,2.7,4,2.7,9.2V59.4z
				 M69.4,87.3h-4.7V56.9c0-7.5-3.5-11.1-3.6-11.2c0,0,0,0,0,0c0.3,0,0.7,0,1.2,0c5.3,0.5,7.3,5.4,7.3,17.4
				C69.6,68.9,69.5,82.7,69.4,87.3z M90.8,87.3H71.8c0-4.3,0.1-16.4,0.1-22.7l10,0v-1h6.7c0.8,0,1.5-0.1,2.2-0.2V87.3z M90.8,61
				c-0.7,0.1-1.4,0.2-2.2,0.2h-6.7l0-15.5l4.7,0c0.3,0,0.5-0.1,0.8-0.1c-0.1,0.5-0.2,0.9-0.4,1c0,0-0.1,0.1-0.6,0.1h-1.2v2.3h1.2
				c0.9,0,1.7-0.3,2.2-0.8c1.3-1.3,1.3-3.6,1.3-7.8l0-2.1h0c0-0.9,0-2.3,0-3.7l0.9,0.5V61z M102.6,31.2c-0.1,3.5-0.1,7.1-0.2,9.9
				c0,2.1-0.1,3.8-0.1,4.7c-0.1,2.9-0.7,5.6-1.8,7.8V29.9l-2.2-1.3c0,0-1.2,2.1-1.5,2.6c-0.2,0.4-0.4,0.6-0.7,0.6
				c-0.3,0.1-0.8,0-1.3-0.3c-0.3-0.2-1-0.6-1.9-1.1c-1.6-0.9-3.7-2.1-5.3-3.1c-0.4-0.3-1-0.7-1-1.2c0-0.3,0.2-0.6,0.2-0.6s2.1-3.5,3-5
				c1.1-1.8,2.2-2,4.4-0.7c0.7,0.4,1.4,0.8,2.1,1.1c4.3,2.3,6.4,3.6,6.4,7l0,0.7C102.6,29.5,102.6,30.7,102.6,31.2z"/>
			<path class="st0" d="M44,64.6c0.7,0,1.2-0.5,1.2-1.2c0-0.7-0.5-1.2-1.2-1.2c-0.7,0-1.2,0.5-1.2,1.2C42.8,64.1,43.4,64.6,44,64.6z"
				/>
			<path class="st0" d="M37.7,67.5c0.7,0,1.2-0.5,1.2-1.2c0-0.7-0.5-1.2-1.2-1.2c-0.7,0-1.2,0.5-1.2,1.2C36.5,67,37,67.5,37.7,67.5z"
				/>
			<path class="st0" d="M41.9,67.5c0.7,0,1.2-0.5,1.2-1.2c0-0.7-0.5-1.2-1.2-1.2s-1.2,0.5-1.2,1.2C40.7,67,41.2,67.5,41.9,67.5z"/>
			<path class="st0" d="M39.8,64.6c0.7,0,1.2-0.5,1.2-1.2c0-0.7-0.5-1.2-1.2-1.2c-0.7,0-1.2,0.5-1.2,1.2
				C38.6,64.1,39.1,64.6,39.8,64.6z"/>
			<path class="st0" d="M35.6,70.6c0.7,0,1.2-0.5,1.2-1.2c0-0.7-0.5-1.2-1.2-1.2c-0.7,0-1.2,0.5-1.2,1.2C34.4,70.1,35,70.6,35.6,70.6z
				"/>
			<path class="st0" d="M35.6,76.7c0.7,0,1.2-0.5,1.2-1.2c0-0.7-0.5-1.2-1.2-1.2c-0.7,0-1.2,0.5-1.2,1.2C34.4,76.2,35,76.7,35.6,76.7z
				"/>
			<path class="st0" d="M35.6,64.6c0.7,0,1.2-0.5,1.2-1.2c0-0.7-0.5-1.2-1.2-1.2c-0.7,0-1.2,0.5-1.2,1.2C34.4,64.1,35,64.6,35.6,64.6z
				"/>
		</g>
	</symbol>

	<symbol viewBox="0 8 60 61" id='mini-logo' class="animated-svg animated-svg_minilogo">
		<g >
			<path d="M30.50591,7.44455l-0.01562,0.0266    l-0.04644-0.07431L5.27271,21.80719v34.60947h49.78791V21.59819L30.50591,7.44455z M10.07743,50.62703V25.20511l20.32589-11.6622    l19.85301,11.41141v25.67272H10.07743z"/>

		</g>
		<g class='hover-animation hover-animation_mini-forward'>
			<path d="M48.73142,48.49357h6.45755v5.21091    h-6.43222v6.77587h-5.92736v-19.5982h13.0938v5.73978h-7.19177V48.49357z"/>
		</g>
		<g class='hover-animation hover-animation_mini-back'>
			<path d="M48.73142,48.49357h6.45755v5.21091    h-6.43222v6.77587h-5.92736v-19.5982h13.0938v5.73978h-7.19177V48.49357z"/>
		</g>
	</symbol>

	<symbol viewBox="0 0 100 135" id='video-play' class="animated-svg animated-svg_video">
			<path class="hover-animation hover-animation_border" fill="#FF0000" d="M49.93896,60.06299c-24.4082,0-24.5918-0.05859-27.65967-1.03711     c-0.49951-0.15967-1.08154-0.34521-1.89307-0.56201c-3.61768-0.97412-6.46045-3.81787-7.42139-7.42139     c-1.58105-5.9126-1.59912-17.81299-1.59912-18.31689s0.01807-12.40479,1.59912-18.31787     c0.97461-3.61719,3.81787-6.45996,7.42139-7.4209c5.92432-1.58057,28.59082-1.59863,29.55273-1.59863     c0.9624,0,23.64014,0.01807,29.55322,1.59863c3.61719,0.97412,6.46094,3.81787,7.4209,7.42188     c1.58008,5.91211,1.59863,17.81299,1.59863,18.31689s-0.01855,12.4043-1.59863,18.31738     c-0.97461,3.61768-3.81836,6.46045-7.42188,7.4209C73.5791,60.04492,50.90137,60.06299,49.93896,60.06299z M49.93896,7.63818     c-0.23242,0-23.33105,0.01758-28.97266,1.52246c-2.82959,0.75488-5.06299,2.98877-5.82812,5.83008     c-1.50488,5.62842-1.52246,17.61426-1.52246,17.73486s0.01807,12.1084,1.52295,17.73633     c0.75488,2.83008,2.98877,5.06348,5.83008,5.82861c0.85352,0.22803,1.46777,0.42334,1.99463,0.5918     c2.69727,0.86035,2.91748,0.93066,26.97559,0.93066c0.23291,0,23.34229-0.01758,28.97119-1.52295     c2.83105-0.75439,5.06445-2.98828,5.83008-5.83008c1.50391-5.62842,1.52148-17.61377,1.52148-17.73438     s-0.01855-12.10938-1.52246-17.73682c-0.75391-2.83008-2.98828-5.06348-5.83105-5.82861     C73.28125,7.65576,50.17188,7.63818,49.93896,7.63818z"/>
			<path  d="M51.55223,62.05539l-2.4637-0.0501l0.1609-7.90122l2.4637,0.05032L51.55223,62.05539z M73.9111,66.54383     l-1.18771-2.15902l-6.9242,3.80927l1.18761,2.15897L73.9111,66.54383z M35.23175,68.47397l-6.73125-4.14017l-1.29113,2.09871     l6.73128,4.1403L35.23175,68.47397z M66.34653,95.81829l2.6889,33.5974h-33.9836l-0.02819-1.2032     c-0.123-5.22471-1.08981-51.24932,2.81189-58.32632c3.45-6.25778,17.184-5.55268,20.9688-3.911     c5.8332,2.52962,6.0309,8.67561,6.2052,14.09831c0.0382,1.18681,0.0743,2.3083,0.1626,3.3953     c1.9813-1.0802,4.369-1.997,6.3805-1.6612c1.27209,0.21291,2.3041,0.90759,2.98479,2.0092     C74.94903,84.48269,76.03223,86.23609,66.34653,95.81829z M37.36353,120.87039h28.5159l-2.0811-26.0023l0.4112-0.4037     c3.6559-3.58822,7.6487-8.1534,8.0878-9.55921c-0.2898-0.37089-0.6608-0.58469-1.1497-0.66659     c-2.5444-0.4301-6.9254,2.6053-8.3996,3.80959l-0.3892,0.31772l-0.5015-0.04472c-1.652-0.14718-6.4084-0.119-8.551,1.76262     c-2.6599,2.3358-2.9985,8.18581-2.9047,10.2431l0.0561,1.2297l-2.4596,0.1152l-0.058-1.2298     c-0.0166-0.3499-0.3573-8.61169,3.7401-12.2099c2.8865-2.5347,8.2226-2.48392,9.8945-2.3986     c0.2939-0.2279,0.7219-0.5484,1.2476-0.911l-0.0034,0.0003l-0.1008-1.2281c-0.0949-1.1558-0.1337-2.3687-0.1716-3.54179     c-0.0526-1.6338-0.1054-3.2378-0.2922-4.72872c-1.2773-0.14438-5.2725-0.56168-8.923-0.58088     c-4.7158-0.0195-10.504,0.82899-10.5621,0.8376l-1.2184,0.1815l-0.3633-2.43722l1.2183-0.18178     c0.2438-0.03651,6.0171-0.8856,10.9382-0.8643c3.23,0.0168,6.6268,0.3242,8.3992,0.51     c-0.6164-2.05441-1.7515-3.71301-3.9194-4.6531c-3.6758-1.5942-15.3621-1.63651-17.8299,2.8401     C37.39633,75.78699,37.16793,104.06409,37.36353,120.87039z M66.36613,126.95139l-0.2895-3.6167h-28.6802     c0.0195,1.30148,0.0411,2.5216,0.0641,3.6167H66.36613z"/>
			<path class="hover-animation hover-animation_play" fill="#FF0000"  d="M3.20654,28.15967V1.79102l22.83154,13.18457L3.20654,28.15967z M5.45654,5.68848v18.57373    l16.08154-9.28662L5.45654,5.68848z"/>
	</symbol>

	<use xlink:href="#logo" width="235" height="98" x="0" y="0"/>
	<use xlink:href="#mini-logo" width="50" height="50" x="0" y="0"/>
	<use xlink:href="#video-play" width="100" height="135" x="0" y="0"/>
</svg>
